<?xml version="1.0" encoding="UTF-8" standalone="no"?>
<!-- Created with Inkscape (http://www.inkscape.org/) -->

<svg
   xmlns:dc="http://purl.org/dc/elements/1.1/"
   xmlns:cc="http://creativecommons.org/ns#"
   xmlns:rdf="http://www.w3.org/1999/02/22-rdf-syntax-ns#"
   xmlns:svg="http://www.w3.org/2000/svg"
   xmlns="http://www.w3.org/2000/svg"
   xmlns:sodipodi="http://sodipodi.sourceforge.net/DTD/sodipodi-0.dtd"
   xmlns:inkscape="http://www.inkscape.org/namespaces/inkscape"
   width="1181"
   height="739"
   viewBox="0 0 312.47292 195.52708"
   version="1.1"
   id="svg6456"
   inkscape:version="0.92.2 (5c3e80d, 2017-08-06)"
   sodipodi:docname="logo-ticgal-branco.svg">
  <defs
     id="defs6450" />
  <sodipodi:namedview
     id="base"
     pagecolor="#ffffff"
     bordercolor="#666666"
     borderopacity="1.0"
     inkscape:pageopacity="0.0"
     inkscape:pageshadow="2"
     inkscape:zoom="0.49497475"
     inkscape:cx="-9.4599149"
     inkscape:cy="496.56247"
     inkscape:document-units="mm"
     inkscape:current-layer="layer1"
     showgrid="false"
     inkscape:window-width="1844"
     inkscape:window-height="1057"
     inkscape:window-x="68"
     inkscape:window-y="-8"
     inkscape:window-maximized="1"
     width="118mm"
     units="px" />
  <metadata
     id="metadata6453">
    <rdf:RDF>
      <cc:Work
         rdf:about="">
        <dc:format>image/svg+xml</dc:format>
        <dc:type
           rdf:resource="http://purl.org/dc/dcmitype/StillImage" />
        <dc:title></dc:title>
      </cc:Work>
    </rdf:RDF>
  </metadata>
  <g
     inkscape:label="Layer 1"
     inkscape:groupmode="layer"
     id="layer1"
     transform="translate(0,-101.47293)">
    <g
       style="display:inline"
       transform="matrix(4.4215211,0,0,4.4215211,-730.4797,-861.13051)"
       id="g15-8-6-0"
       inkscape:export-filename="D:\Datos\ticgal\Empresa\imaxeCorporativa\logo\TICgal-logo-branco.png"
       inkscape:export-xdpi="90"
       inkscape:export-ydpi="90">
      <g
         id="g17-9-3-7">
        <g
           id="g19-3-7-6">
          <path
             style="fill:#0067ad"
             inkscape:connector-curvature="0"
             id="path21-4-8-3"
             d="m 174.418,228.066 h 19.624 v 4.652 h -7.478 v 20.143 h -4.787 v -20.143 h -7.359 z" />
          <path
             style="fill:#0067ad"
             inkscape:connector-curvature="0"
             id="path23-4-8-6"
             d="m 193.981,228.066 h 4.686 v 24.796 h -4.686 z" />
          <path
             style="fill:#00ace5"
             inkscape:connector-curvature="0"
             id="path25-6-2-1"
             d="m 198.667,228.066 v 4.686 h -4.627 v -4.686 z" />
          <path
             style="fill:#0067ad"
             inkscape:connector-curvature="0"
             id="path27-0-9-5"
             d="m 224.796,232.424 -3.302,3.147 c -2.245,-2.374 -4.771,-3.561 -7.578,-3.561 -2.369,0 -4.365,0.811 -5.988,2.43 -1.622,1.62 -2.434,3.616 -2.434,5.991 0,1.653 0.359,3.122 1.078,4.404 0.718,1.282 1.735,2.289 3.048,3.02 1.314,0.731 2.774,1.096 4.38,1.096 1.37,0 2.621,-0.256 3.756,-0.768 1.134,-0.511 2.38,-1.442 3.739,-2.792 l 3.2,3.339 c -1.831,1.788 -3.562,3.027 -5.192,3.719 -1.631,0.691 -3.489,1.037 -5.58,1.037 -3.854,0 -7.009,-1.221 -9.465,-3.667 -2.456,-2.444 -3.683,-5.576 -3.683,-9.398 0,-2.472 0.559,-4.67 1.676,-6.591 1.119,-1.922 2.721,-3.467 4.806,-4.636 2.085,-1.168 4.328,-1.753 6.734,-1.753 2.045,0 4.015,0.432 5.909,1.295 1.892,0.865 3.525,2.095 4.896,3.688 z" />
        </g>
        <g
           id="g29-6-1-4">
          <path
             style="fill:#dadde6;fill-opacity:1"
             inkscape:connector-curvature="0"
             id="path31-6-3-2"
             d="m 165.112,217.637 h 10.195 v 5.912 h -3.771 v 32.541 h 3.771 v 5.912 h -10.195 z" />
          <path
             style="fill:#dadde6;fill-opacity:1"
             inkscape:connector-curvature="0"
             id="path33-1-5-0"
             d="m 234.103,262.001 h -11.148 v -5.912 h 4.724 v -32.541 h -3.771 v -5.912 h 10.195 z" />
        </g>
        <path
           style="fill:#00ace5"
           inkscape:connector-curvature="0"
           id="path35-8-9-9"
           d="m 222.991,254.129 h 8.531 c 1.152,0 1.896,0.027 2.233,0.08 0.335,0.054 0.691,0.245 1.068,0.572 0.375,0.327 0.662,0.782 0.861,1.367 0.194,0.584 0.295,1.319 0.295,2.205 0,1.089 -0.182,1.964 -0.547,2.624 -0.364,0.659 -1.081,1.001 -2.149,1.024 v -3.318 c 0.49,0 0.735,-0.181 0.735,-0.542 0,-0.259 -0.076,-0.432 -0.226,-0.516 -0.151,-0.085 -0.465,-0.126 -0.943,-0.126 h -0.837 c 0.262,0.293 0.46,0.602 0.595,0.927 0.133,0.324 0.2,0.664 0.2,1.02 0,0.615 -0.122,1.121 -0.368,1.52 -0.244,0.398 -0.566,0.67 -0.963,0.816 -0.397,0.147 -0.965,0.221 -1.699,0.221 h -4.022 c -1.053,0 -1.809,-0.192 -2.271,-0.576 -0.462,-0.384 -0.693,-0.968 -0.693,-1.752 0,-0.429 0.087,-0.819 0.258,-1.173 0.174,-0.352 0.432,-0.666 0.779,-0.943 l -0.837,-0.246 z m 2.938,3.428 c -0.507,0 -0.829,0.029 -0.969,0.089 -0.139,0.059 -0.208,0.19 -0.208,0.393 0,0.198 0.079,0.337 0.237,0.419 0.16,0.082 0.472,0.122 0.94,0.122 h 3.723 c 0.495,0 0.817,-0.031 0.964,-0.093 0.148,-0.063 0.222,-0.192 0.222,-0.39 0,-0.226 -0.089,-0.372 -0.267,-0.441 -0.178,-0.066 -0.582,-0.101 -1.21,-0.101 h -3.432 z" />
        <path
           style="fill:#00ace5"
           inkscape:connector-curvature="0"
           id="path37-4-8-7"
           d="m 227.281,249.095 v 3.208 h -0.743 c -0.858,0 -1.518,-0.099 -1.983,-0.3 -0.463,-0.201 -0.874,-0.602 -1.231,-1.206 -0.356,-0.603 -0.533,-1.388 -0.533,-2.353 0,-1.157 0.201,-2.029 0.605,-2.616 0.403,-0.587 0.898,-0.94 1.486,-1.058 0.587,-0.119 1.796,-0.178 3.627,-0.178 h 5.558 v 3.327 h -0.987 c 0.395,0.208 0.693,0.479 0.89,0.809 0.198,0.329 0.296,0.724 0.296,1.18 0,0.598 -0.165,1.148 -0.496,1.647 -0.33,0.499 -1.057,0.748 -2.174,0.748 h -0.91 c -0.829,0 -1.394,-0.132 -1.695,-0.397 -0.3,-0.265 -0.652,-0.922 -1.052,-1.972 -0.434,-1.123 -0.726,-1.724 -0.877,-1.803 -0.15,-0.08 -0.455,-0.119 -0.918,-0.119 -0.578,0 -0.956,0.043 -1.131,0.131 -0.175,0.088 -0.263,0.233 -0.263,0.436 0,0.232 0.073,0.375 0.222,0.432 0.146,0.056 0.529,0.084 1.148,0.084 z m 1.519,-1.083 c 0.395,0.548 0.725,0.865 0.992,0.953 0.268,0.087 0.651,0.131 1.153,0.131 0.573,0 0.943,-0.038 1.11,-0.114 0.168,-0.077 0.249,-0.227 0.249,-0.453 0,-0.215 -0.064,-0.355 -0.195,-0.419 -0.13,-0.065 -0.474,-0.098 -1.03,-0.098 z" />
        <path
           style="fill:#00ace5"
           inkscape:connector-curvature="0"
           id="path39-9-4-3"
           d="m 216.836,238.703 h 17.267 v 3.522 h -17.267 z" />
      </g>
    </g>
  </g>
</svg>
