<svg xmlns="http://www.w3.org/2000/svg" viewBox="0 0 431.05 431"><defs><style>.cls-1{fill:#adcf00;}.cls-1,.cls-3{fill-rule:evenodd;}.cls-2,.cls-3{fill:#fff;}.cls-4{font-size:28px;font-family:CenturyGothic-Bold, Century Gothic;font-weight:700;}</style></defs><title>Recurso 1</title><g id="Capa_2" data-name="Capa 2"><g id="Capa_1-2" data-name="Capa 1"><path class="cls-1" d="M43.21,0h344.6A43.33,43.33,0,0,1,431,43.2V387.8a43.33,43.33,0,0,1-43.2,43.2H43.21A43.33,43.33,0,0,1,0,387.8V43.2A43.33,43.33,0,0,1,43.21,0"/><path class="cls-2" d="M99.86,139.82a2.62,2.62,0,0,0-1.29.69,1.56,1.56,0,0,0-.48,1.23v.59a4.14,4.14,0,0,0,.48,1.36c.3.67.74,1.6,1.29,2.79h1.32v-.6c-.55-1.18-1-2.09-1.28-2.76a5.52,5.52,0,0,1-.48-1.08,4.57,4.57,0,0,0,.7-1,2,2,0,0,0,.18-.64Zm-12.79,0c-.78,1.4-1.4,2.46-1.88,3.2s-.88,1.09-1.21,1.09a.6.6,0,0,0,.18.47,1.66,1.66,0,0,0,.7.12h.88a20.68,20.68,0,0,1,2-3.53,4.78,4.78,0,0,1,1.8-1.65.6.6,0,0,0-.18-.47,1.66,1.66,0,0,0-.7-.12Zm23.6-5a.92.92,0,0,0-.52.13,1.14,1.14,0,0,0-.36.47V136a2.12,2.12,0,0,0,1.36,1.92,12.34,12.34,0,0,0,4.15,1,1.66,1.66,0,0,0,.7-.12.6.6,0,0,0,.18-.47V138a10.12,10.12,0,0,1-4.15-1A2.47,2.47,0,0,1,110.67,134.78Zm-8.6-6.8v.14c0,.37-.89.82-2.61,1.36s-4.34,1.16-7.76,1.9h-.88v-.3a46,46,0,0,0,5.44-1.65,18.34,18.34,0,0,0,3.6-1.75Zm23.6-1.78a1,1,0,0,0-.52.12,1.21,1.21,0,0,0-.36.47v.59c0,.3.88.74,2.64,1.34h1.33v-.3c-1-.59-1.77-1.09-2.28-1.46S125.67,126.35,125.67,126.2Zm-23.16.3c0-.08.33-.3.95-.69s1.58-.94,2.8-1.68h1.32l.44,1.48c-.66,0-1.76.59-3.31,1.77A6.16,6.16,0,0,1,103,127C102.69,126.89,102.51,126.72,102.51,126.5Zm9-7.26a21.91,21.91,0,0,1,2,.92c.44.22.66.42.66.56l-4,3.7a2.1,2.1,0,0,1-.78-.44,11.4,11.4,0,0,1-1.43-1.33c1-.89,1.77-1.63,2.28-2.2s.81-1,.81-1.21Zm1.32-2.36a3.58,3.58,0,0,1,1.33.32,19.89,19.89,0,0,1,2,.86,5.09,5.09,0,0,1-.62.86c-.22.22-.37.32-.48.32a6.93,6.93,0,0,1-2.65-1.77Zm2.43-2.52a1.46,1.46,0,0,1,.81.42,7.08,7.08,0,0,1,1,1.21v.29a4.13,4.13,0,0,1-.73-.1c-.37,0-.92-.12-1.69-.19v-.3l.44-1.33Zm.88-1.48a5.87,5.87,0,0,1,1-1.33,1.36,1.36,0,0,1,.81-.45v2.08a.57.57,0,0,1-.19.46,1.44,1.44,0,0,1-.7.13,1.12,1.12,0,0,0-.18-.67A.93.93,0,0,0,116.18,112.88Zm6.62-13.62a21.39,21.39,0,0,1-1,3.88c-.33.86-.73,1.3-1.18,1.3L121,101V98.67Zm.88-4.29v1.78l-.44.44a2.28,2.28,0,0,1-1.69-.54A2.48,2.48,0,0,1,121,95ZM121,91.42a1.35,1.35,0,0,1,.47.1l.85.19a2.21,2.21,0,0,0,.55-.09c.26-.05.66-.13,1.21-.2v2.37c-.88-.3-1.32-.6-1.32-.89a1.53,1.53,0,0,0-.51.1l-.81.19H121Zm-.45-4.59a3.22,3.22,0,0,0,1.44.67,9.51,9.51,0,0,0,2.09.22v2.07c-.88-.3-1.32-.59-1.32-.89l-2.21.3Zm1.77-10.06h.44l.88-.3c.11,1.92.22,3.58.3,5s.14,2.61.14,3.57v.3l-2.64.3-.89-1.93V81.35l1.33.6h.44a1.49,1.49,0,0,0,.7-.13.59.59,0,0,0,.18-.47v-.29c0-1.19-.88-1.78-2.65-1.78v-3.4ZM120.59,71a4,4,0,0,1,2.28,1.58,5,5,0,0,1,.81,3h-.88c-1.76-1.63-2.65-2.66-2.65-3.11V71ZM90.82,44.06a3.84,3.84,0,0,1,1.69.66A1.46,1.46,0,0,1,93,45.83c0,2.37,0,4.47.15,6.34s.18,3.51.29,4.91c-.11,1.48-.22,3-.29,4.54S93,64.78,93,66.41l3.53,29.74v8.29l.22,3.56c-.66,0-1.21-1.83-1.69-5.46s-.85-9.05-1.18-16.3q-1.49-12.76-2.28-23.07c-.55-6.83-.8-12.82-.8-17.93a.62.62,0,0,0-.15-.34c-.07-.15-.18-.33-.29-.55a.53.53,0,0,0,.29-.1A.21.21,0,0,0,90.82,44.06Zm1.32-1.78.88.3-.44.59a1,1,0,0,1-.51-.12,1.14,1.14,0,0,1-.37-.47v-.3ZM91.26,41v.74h-.88V41Zm19.85-3.26a31.94,31.94,0,0,1,5.11,6,39.24,39.24,0,0,1,3.93,7.89q1,2.9,2.65,18.21h-.44a8.53,8.53,0,0,1-2.28-2.1,3.54,3.54,0,0,1-.81-2.19,51.53,51.53,0,0,0-2.28-16,32.47,32.47,0,0,0-6.76-11.87ZM95.23,36.8a53,53,0,0,1,6.43,5.88c1.43,1.6,2.17,2.86,2.17,3.74.77,0,1.54,3.38,2.35,10.12s1.73,16.82,2.72,30.29a77.27,77.27,0,0,1-.62,8.66c-.33,1.92-.7,2.88-1.14,2.88a26.77,26.77,0,0,1-1.69,10.09,15.06,15.06,0,0,1-5.15,6.79.59.59,0,0,0-.15-.47.38.38,0,0,0-.29-.12c-.33-8.88-.85-17.3-1.51-25.21s-1.58-15.35-2.68-22.3c0-1.85,0-3.58.15-5.21s.18-3.16.29-4.56c-.33-5-.55-9.11-.7-12.39s-.18-5.74-.18-7.3l-.44-.59a.37.37,0,0,0,.29-.1A.21.21,0,0,0,95.23,36.8Zm-4.41-.59c0,.15.14.37.47.67s.74.66,1.29,1.11c-.11,0-.22.12-.29.34a3,3,0,0,0-.15,1.14H90.38L89.93,38V36.21Zm-3.75-4.29,1.1,27.53q2.64,24.64,2.65,28v2.67c.33,2.07.55,4,.69,5.77s.19,3.4.19,4.88c1,4.22,1.76,7.7,2.28,10.44a33.91,33.91,0,0,1,.81,6v2.37a5.12,5.12,0,0,0,.95.86,1.45,1.45,0,0,0,.81.32h.22a64.52,64.52,0,0,0,5.66-4c1.22-1,1.84-1.72,1.84-2.09q5.3-2.67,7.28-22.65V78.25c-.77-9.48-1.62-17-2.5-22.62s-1.91-9.28-3-11a26.25,26.25,0,0,0-5.44-6.51,41.06,41.06,0,0,0-8.46-5.63H89.93a1.81,1.81,0,0,0-.18-.86.77.77,0,0,0-.7-.32h-.88Zm-6.62-4A25.4,25.4,0,0,1,85.74,27h1.77a21.07,21.07,0,0,1,4,.86,40.71,40.71,0,0,1,4.16,1.65,37.61,37.61,0,0,1,11.06,8,42.58,42.58,0,0,1,7.91,12c.44,4.52.88,8.51,1.36,11.94a80,80,0,0,0,1.51,8.64c0,3.4,0,7.84.14,13.29s.19,11.94.3,19.42c0,1.7-1,4.07-2.94,7.1a102.9,102.9,0,0,1-8.75,11.1,47.58,47.58,0,0,1-8.83,5.65,28.7,28.7,0,0,1-8.82,2.64v-6.07a46.06,46.06,0,0,0-.62-7.13c-.45-2.52-1-5.23-1.81-8.11q-.83-10.56-1.47-17c-.44-4.31-.84-7.32-1.17-9,0-1.63,0-4-.15-7.13s-.18-7-.29-11.67Zm4.85-2.66c-1.21,0-2.31,0-3.27.12a11.57,11.57,0,0,0-2.46.47c-.11,0-.33.17-.67.54s-.77.87-1.32,1.53c.33,5.26.66,10.44,1.07,15.54S79.46,53.6,80,58.56v3.11l.44.59H80a1.19,1.19,0,0,0,.15.64,1.9,1.9,0,0,0,.29.55L80,64.63c0,3.92.15,8.12.48,12.56s.73,9.2,1.28,14.23a.37.37,0,0,0-.29.1.21.21,0,0,0-.15.19l.44,1.78v4.88q4,20.66,4,22.65v8.88a20.48,20.48,0,0,0,2.8,2.32,9.1,9.1,0,0,0,2.28,1.23,10.16,10.16,0,0,0,1.83-.22c.81-.15,1.81-.37,3-.67q12.4-3.66,18.67-8.88t6.25-12a6.42,6.42,0,0,0,1.7-2.22,7.09,7.09,0,0,0,.51-2.67A56.35,56.35,0,0,0,125,98.47a40.55,40.55,0,0,0,.7-7.35V79.87c0-2.44-.08-4.26-.19-5.45s-.36-1.8-.69-1.8a149.1,149.1,0,0,0-1.48-15.44A38.06,38.06,0,0,0,121,48.05a45.11,45.11,0,0,0-6.22-8.88,13.65,13.65,0,0,0-5.92-4,95.26,95.26,0,0,0-12.72-7.45c-3.53-1.66-6.36-2.47-8.45-2.47ZM69.64,13.42A38.78,38.78,0,0,1,72.32,17a4.53,4.53,0,0,1,.85,1.9h1.32v-.6a3.91,3.91,0,0,0-1-2,26.36,26.36,0,0,0-3-3.21Zm13-2.81a1.06,1.06,0,0,0-.66.24,2.49,2.49,0,0,0-.66.79l.44,1.48-.44,1.19a2.38,2.38,0,0,0,.52,1.13,1.08,1.08,0,0,0,.8.35c.45,1.4.85,2.59,1.18,3.52a7.15,7.15,0,0,0,1,2l.88-.29c-.44-1.85-.88-3.48-1.32-4.91s-.88-2.71-1.32-3.82l.44-1.34ZM98.54,10q-1.67,0-2,5.77V18.9l.22.59.88-.3a29.77,29.77,0,0,1,.48-6.12,4.37,4.37,0,0,1,1.29-2.76V10Z"/><path class="cls-2" d="M141.4,135.82a2.43,2.43,0,0,0-1.29.77,1.78,1.78,0,0,0-.47,1.3v1.78H141a9.34,9.34,0,0,1,.18-1.68,9.23,9.23,0,0,1,.7-1.87.41.41,0,0,1-.29-.1.22.22,0,0,1-.15-.2m-9-3.4a5.86,5.86,0,0,0-2.14.69,28.77,28.77,0,0,0-3.6,2.12.6.6,0,0,0,.19.47,1.57,1.57,0,0,0,.69.12l5.3-2.81Zm13.23-2.08,4.41-.19c1.29-.08,2.32-.1,3.09-.1v.59l-.44.59-3.82-.2c-1.11-.07-2-.09-2.8-.09h-.44Zm41.47-1.77c0-.22.63-.47,1.84-.77s3-.56,5.44-.86v.3c0,.37-.55.66-1.69.88a33.84,33.84,0,0,1-5.15.45Zm-60-2.22a11.11,11.11,0,0,0-2.46.54c-.55.2-.85.42-.85.64V128a6.4,6.4,0,0,0,1.73-.25,11.2,11.2,0,0,0,2-.79Zm56-13,2.65,13.92-.89.29h-.44a18.82,18.82,0,0,0-.66-4.83,24.67,24.67,0,0,0-2-5.08l.88-.89v-.89h-1.1v-1.33a3.3,3.3,0,0,0,.51-.64,1.27,1.27,0,0,0,.15-.55Zm-1.32-2.66a1.66,1.66,0,0,1,.7.12.6.6,0,0,1,.18.47v.3a3.37,3.37,0,0,1-.63.66,1,1,0,0,1-.47.23h-.45A3.85,3.85,0,0,1,181.77,110.66Zm-.67-3.11a1,1,0,0,1,.52.12.59.59,0,0,1,.15.47v1.19c0,.29-.22.44-.67.44h-.44v-1.63Zm-.88-3.85a1.49,1.49,0,0,1,.7.13.59.59,0,0,1,.18.47v.88l-.44,1.48h-.88V104.3Zm-1.32-2.22c.66-.59,1.1-.88,1.32-.88v1.48a.58.58,0,0,1-.18.46,1.49,1.49,0,0,1-.7.13h-.44l.44-.59Zm-34.85-1.77a18.1,18.1,0,0,1,3.31-1.78v3.26q-1.34,6.89-2,12a67.5,67.5,0,0,0-.66,8.31h-.22c0-6.14,0-11-.15-14.65S144.16,100.82,144.05,99.71Zm34.41-1.19a1.78,1.78,0,0,1,1.32-.89h.44l-.88,2.08h-.88ZM178,96.89a1.55,1.55,0,0,1,1.32-1.77v.29l-.44,1.48Zm-34-.88a5.33,5.33,0,0,0,1-.35c.55-.25,1.32-.62,2.32-1.13V96.6a5.09,5.09,0,0,0-1.36.2c-.45.14-1,.32-1.51.54h-.44Zm34.85-3.26c0,1-.44,1.63-1.32,1.78v-.3l.44-1.48Zm-1.77-1.92a.59.59,0,0,1,.19-.47,1.49,1.49,0,0,1,.7-.13v1.34h-.89Zm-32.64-.6c0-.07.22-.27.7-.56a24.73,24.73,0,0,1,2.17-1.21v3.7c0,.22-.22.47-.7.76a11,11,0,0,1-2.17,1h-.44l.44-1.48Zm31.76-1.48a.57.57,0,0,1,.19-.46,1.42,1.42,0,0,1,.69-.13h.45l-.45,1.48h-.88Zm-16.32-.88c0-.23.26-.42.81-.57A11.74,11.74,0,0,1,163,87c0,.22-.22.42-.66.59a18.89,18.89,0,0,1-2,.59.2.2,0,0,0-.15-.19A.37.37,0,0,0,159.93,87.87Zm-12.57-1.78v.59A13.14,13.14,0,0,1,146,87.82a1.7,1.7,0,0,1-.85.34h-.44V87a3.15,3.15,0,0,0,1.29-.22.69.69,0,0,0,.47-.67Zm24.92-.3a11.42,11.42,0,0,0,1.47-.09c.52,0,1.07-.13,1.62-.2,0,.15-.15.29-.48.44a7,7,0,0,1-1.28.45l-.85-.2a1.69,1.69,0,0,0-.48-.1Zm-27.57,0a2.57,2.57,0,0,1,.66-1.89,3.4,3.4,0,0,1,2-.92v1.48a14.38,14.38,0,0,1-1.36,1,1.56,1.56,0,0,1-.85.32Zm.44-4.29a8.64,8.64,0,0,1,1.43-1.13,2.83,2.83,0,0,1,.78-.35h.44v.3a1.75,1.75,0,0,1-.66,1.35,6.41,6.41,0,0,1-2,1Zm3.09-13.61c0,.51,0,1.62-.15,3.33s-.18,4-.29,6.88c0,.22-.15.44-.48.69a11.57,11.57,0,0,1-1.29.94l-.88-.3.44-.59V70.55a2,2,0,0,1,.48-1,17.31,17.31,0,0,1,1.29-1.65ZM146.92,67a1.15,1.15,0,0,1,.47-.94,4.91,4.91,0,0,1,1.29-.69L148.24,67Zm14.77-11a148.83,148.83,0,0,1,9.93,23.08l-10.37.6h-.44c0-2.52,0-5.73.15-9.65s.18-8.48.29-13.74v-.29Zm-13.89,0,.88-.3v.3a5,5,0,0,1-1,1.13,1.6,1.6,0,0,1-.8.35V55.75Zm1.32-1.19c.55-.52,1-.91,1.36-1.21a1.54,1.54,0,0,1,.85-.42v.6a10.82,10.82,0,0,1-.15,1.77c-.07.67-.18,1.41-.29,2.22A15.85,15.85,0,0,1,149.42,63a2.93,2.93,0,0,1-2.5,1.75h-.45a4.54,4.54,0,0,1,.78-1.88,9.74,9.74,0,0,1,1.43-1.67.41.41,0,0,0-.18-.35,2.27,2.27,0,0,0-.7-.25l-.88.3v-.74a3.09,3.09,0,0,1,.84-1.58,26.75,26.75,0,0,1,2.68-2.56v-.3a.49.49,0,0,0-.33-.47,3.39,3.39,0,0,0-1-.12Zm0-3.7a2.17,2.17,0,0,0,.7-.34c.33-.25.85-.62,1.51-1.14v1.48c-.89.81-1.58,1.48-2.14,2a6.15,6.15,0,0,0-.95,1.11h-.88l.88-3.41Zm12.57-4.59c.33.08,1.07,1.51,2.17,4.32s2.69,6.93,4.67,12.41l6.84,15.83h-.88a1,1,0,0,1-.52-.24,5.18,5.18,0,0,1-.81-.79,126.12,126.12,0,0,0-4.37-12.46,51,51,0,0,0-4.67-9,25.47,25.47,0,0,0-1.62-4.79c-.48-1.06-.92-1.58-1.25-1.58.11-.52.22-1.08.3-1.67A11.7,11.7,0,0,0,161.69,46.57Zm.44-11.25c-.77,0-1.5,1.34-2.16,4a93.13,93.13,0,0,0-1.81,11.86c0,1.85,0,5.11-.14,9.72s-.19,10.63-.3,18l-.44,2.66,2.21.89c1-.3,1.76-.52,2.35-.67a7.11,7.11,0,0,1,1.4-.22c1.87,0,3.93,0,6.14-.1l7.31-.19,1.33.59A10.89,10.89,0,0,0,180.66,80v-.29c0-.23-.14-.37-.47-.47a5.27,5.27,0,0,0-1.29-.13c-.88-1.7-1.58-3-2.13-3.87s-.85-1.31-1-1.31c-1.21-3.62-2.76-7.64-4.59-12.08s-3.9-9.23-6.22-14.41a81.34,81.34,0,0,0-1.36-9.13C163.2,36.31,162.69,35.32,162.13,35.32Zm-9-1.77c0,.07-.11,1-.33,2.86s-.55,4.54-1,8.09v3.26c-.88.74-1.58,1.3-2.13,1.67a3,3,0,0,1-1,.55l.44-3.41V45.39l1.32-1.19v-.59h-1.32a13.44,13.44,0,0,1,.81-3.75c.51-1.7,1.29-3.8,2.28-6.31Zm-.44-2.37a.42.42,0,0,1,.18-.35,2.31,2.31,0,0,1,.7-.24v1.18a.6.6,0,0,1-.18.47,1.66,1.66,0,0,1-.7.12Zm-1.76,38.19c.33-1.78.73-3.58,1.21-5.43A42.38,42.38,0,0,1,154,58.41c.33-6.29.63-11,.85-14.11s.48-4.68.7-4.68a87.31,87.31,0,0,1,.84-8.86c.37-2,.81-3,1.36-3h.89q4.95,0,7.27,4.88Q180,71,186.91,94c4.67,15.37,7,25.65,7,30.91a26.39,26.39,0,0,1-2.8.47c-.84.07-1.61.12-2.28.12h-.44a54.16,54.16,0,0,0-1.14-6.19Q186.15,113.9,184,104c-1.43-6.88-2.53-12.06-3.38-15.52s-1.36-5.2-1.69-5.2q-5.29.43-9.93.91c-3.09.3-5.95.64-8.6,1a15.77,15.77,0,0,1-2,1.8,2.78,2.78,0,0,1-1.14.57c-.11,2.07-.22,3.85-.29,5.35s-.15,2.72-.15,3.68c-.55,4.22-1.06,8.88-1.51,14s-.8,10.78-1.14,16.92q0,.45-.66.45h-3.09l-3.08.29a106.33,106.33,0,0,1,.8-12.41c.52-4.61,1.29-9.71,2.28-15.26V96.3a19.2,19.2,0,0,0-.14-2.56c-.08-.84-.19-1.66-.3-2.47a78.74,78.74,0,0,0,.7-7.92c.11-3.13.19-6.81.19-11l.44-2.67a.41.41,0,0,1-.3-.1A.2.2,0,0,1,150.89,69.37Zm7.27-43.67a6.92,6.92,0,0,0-3,.92,27,27,0,0,0-4.3,2.78,13.08,13.08,0,0,1-.85,3.88A44.3,44.3,0,0,1,147.36,39a63.14,63.14,0,0,1-.78,9.21c-.4,2.22-.88,3.6-1.43,4.12-.33,6-.66,10.48-1,13.44s-.66,4.46-1,4.46l.44,1.19c0,3.33-.19,7.1-.52,11.3s-.92,8.83-1.69,13.86q.33,16,1.32,30.64c-.33,1.25-.55,2.22-.69,2.91s-.19,1.16-.19,1.38a3.17,3.17,0,0,0,1.33.86,5.78,5.78,0,0,0,2,.32h8.38c.11,0,.37-.22.81-.66s1-1.11,1.62-2q1.65,0,4-40.41h.88a41.05,41.05,0,0,1,5.48-1.35c2.13-.37,4.56-.72,7.32-1l2.2,8.74c1,7.1,2,12.8,2.94,17.12s1.91,7.22,2.8,8.78c.33,2.59.62,4.59.84,6a6.62,6.62,0,0,0,.7,2.44c3-.07,5.29-.17,6.87-.29a15.73,15.73,0,0,0,2.62-.3,4.81,4.81,0,0,0,3.12-1.08,7.8,7.8,0,0,0,2.17-3.21v-.59a4.42,4.42,0,0,1-.85-1,4.12,4.12,0,0,1-.47-1.08q0-4.56-3-16.11t-9.12-30.07q-4.46-13.44-7.9-23.21c-2.32-6.52-4.23-11.8-5.77-15.87-1-3.92-2.54-6.88-4.63-8.85A11.06,11.06,0,0,0,158.16,25.7Zm8,115.3.66-.3a26,26,0,0,0,3-2.63c.63-.67.85-1.07.74-1.21a.55.55,0,0,0-.48-.23,1.19,1.19,0,0,0-.63.23,31,31,0,0,0-3.53,3c-.69.72-1,1.16-.88,1.31Zm11.24,0,.67-.44a7.2,7.2,0,0,0,1.14-2.67,1.89,1.89,0,0,0-.7-1.77L178,136a.53.53,0,0,0-.48-.35,1,1,0,0,0-.63.2,2.5,2.5,0,0,1,.52,1.7,12.89,12.89,0,0,1-.52,3Zm13.9-4.88a2.16,2.16,0,0,0,1.33,0l-.23-.6-2-1.77a1.5,1.5,0,0,0-.66-.25,2.16,2.16,0,0,0-.66.1l.22.59Z"/><path class="cls-2" d="M232.35,138.19a6.32,6.32,0,0,0,1.29,1.33,2.08,2.08,0,0,0,1.14.44l.88-.29c0-.08-.11-.22-.37-.47s-.62-.57-1.17-1v-1.48h-1.33Zm-5.73-2.07c-.22,0-.48.17-.81.54a7.17,7.17,0,0,0-1,1.53,2.83,2.83,0,0,0,.33,1.31,3.8,3.8,0,0,0,1,1.2l.89-.29-.44-1.93.44-2.07a.41.41,0,0,1-.3-.1A.2.2,0,0,1,226.62,136.12Zm13-.6a1.28,1.28,0,0,0-.7.13.59.59,0,0,0-.18.47,5.5,5.5,0,0,0,.95.86,1.53,1.53,0,0,0,.81.32l.89-.3a5.58,5.58,0,0,0-1-1.13A1.63,1.63,0,0,0,239.63,135.52ZM222,134.93a1.82,1.82,0,0,0-1.17.87,8.45,8.45,0,0,0-1,2.09v1.48h1.32v-1.18a2.09,2.09,0,0,1,.48-1.23,8.44,8.44,0,0,1,1.29-1.44v-.59Zm25.37-5.18c0-.15.15-.29.48-.44a6.88,6.88,0,0,1,1.29-.45v1.19h-1.77Zm-6.84-.59a1.39,1.39,0,0,0,.48-.1l.85-.2h.88c0,.15-.15.3-.48.45a7,7,0,0,1-1.29.44h-.44Zm-2.64.3a.41.41,0,0,1,.18-.35,2.27,2.27,0,0,1,.7-.25h.88c0,.15-.15.3-.48.45a7.11,7.11,0,0,1-1.28.44Zm-3.09,0c0-.15.18-.3.51-.45a9.83,9.83,0,0,1,1.69-.44v.29c0,.15-.14.3-.47.45a7.56,7.56,0,0,1-1.29.44h-.44Zm-3.31,0c0-.45.88-.74,2.65-.89h.22v.59l-2,.3Zm-3.09,0a1.75,1.75,0,0,1,1.32-.89H231c0,.15-.15.29-.48.44a7.15,7.15,0,0,1-1.29.45Zm-9-1.19a1.35,1.35,0,0,0,.47-.1l.85-.19c1,0,2,0,3,.12a26,26,0,0,1,3,.47l.81-.2a1.85,1.85,0,0,1,.51-.1h.44a1.37,1.37,0,0,1-.7.59,10.88,10.88,0,0,1-1.51.6l-2.42-.3h-4.41Zm-1.77-16.43v2.67a11.6,11.6,0,0,1-.14,1.75c-.08.74-.19,1.58-.3,2.54h-.44l-.44-3v-2.52l.44-1.48Zm-1.32-2.07a4.48,4.48,0,0,1,.66-.54,1.4,1.4,0,0,1,.66-.2v.45a1.55,1.55,0,0,1-1.32,1.77Zm0-1.92a1.78,1.78,0,0,1,1.32-.89v.89a1.78,1.78,0,0,1-1.32.89Zm0-1.78a1.78,1.78,0,0,1,1.32-.89,2.37,2.37,0,0,1-.48,1.14,1.16,1.16,0,0,1-.84.34Zm-.44-1.18a1.56,1.56,0,0,1,.48-1.24,2.62,2.62,0,0,1,1.28-.69v1a1.78,1.78,0,0,1-1.32.89Zm0-2.22a1.79,1.79,0,0,1,.48-1.31,2.29,2.29,0,0,1,1.28-.76v1.77a1.75,1.75,0,0,0-.48.1l-.84.2ZM214,29.55a2.43,2.43,0,0,0,.19.79,9.64,9.64,0,0,0,.47,1.14,3.81,3.81,0,0,1-.66,1.77l.66,1.33q.51,17.43,1.18,33.31t1.69,30.19A10.71,10.71,0,0,1,216,100a2.32,2.32,0,0,1-1.29.65q-.66-27-1-44.48t-.33-25.38V29.55Zm3.09-1.48,1.8.2c.44.05.74.1.85.1,1,0,1.76.61,2.28,1.87a14.32,14.32,0,0,1,.81,5.53c-.11.22-.22.39-.3.54a.61.61,0,0,0-.14.35l.44,1.48-.44,2.66a.41.41,0,0,1,.29.1.21.21,0,0,1,.15.2.41.41,0,0,0-.3.1.19.19,0,0,0-.14.19v1l.44.59h-.44a2.21,2.21,0,0,0,.14.91,2.17,2.17,0,0,0,.3.57l-.44,4.59c-.11,12.51-.23,23.29-.3,32.31s-.15,16.38-.15,22a4,4,0,0,0,.15,1c.07.42.19.89.3,1.41a.34.34,0,0,0-.3.22,1.11,1.11,0,0,0-.15.66q1.34,14.88,2.65,17.32l4.19-.3H231a79.19,79.19,0,0,1,8.42.32c1.87.2,2.83.5,2.83.87a2.88,2.88,0,0,0,.84-.1,4.44,4.44,0,0,0,.7-.2c1.21.22,2.35.37,3.46.47s2.17.12,3.16.12h.44a1.77,1.77,0,0,1-.15.79,3.86,3.86,0,0,1-.29.69c0,.3-.37.52-1.14.67a17.87,17.87,0,0,1-3.27.22h-.44l-2.43-.29-.85.19a1.35,1.35,0,0,1-.47.1,1.58,1.58,0,0,1-.52-.1l-.81-.19-.88.29-.88-.2a3.4,3.4,0,0,0-.88-.09h-2.21c-1.1,0-2.94,0-5.48-.13s-5.88-.24-10-.47c-.22,0-.44-.32-.66-1a20.48,20.48,0,0,1-.66-2.86q.66-4.11,1-6.81a36.79,36.79,0,0,0,.33-4.15v-5.77q-1.49-23.64-2.61-42.72t-1.8-33.65a1.07,1.07,0,0,1,.33-.69A7.76,7.76,0,0,1,217.13,28.07Zm-5.95,1.33L214.7,128a2.06,2.06,0,0,1,1.37.66,11.69,11.69,0,0,1,1.5,2c7.94.3,14.56.52,19.82.67s9.19.22,11.73.22q3,0,4.63-7.55l-.44-.59a9.23,9.23,0,0,0-1.33.1l-2,.19c-4.74-.59-8.94-1-12.54-1.33s-6.65-.44-9.08-.44l-.88.29c0-.07-.07-.14-.19-.19a1.49,1.49,0,0,0-.69-.1c-.67-.37-1.22-3-1.62-8s-.7-12.11-.81-21.51l.44-1.92-.44-1.48q.66-19.76.66-51.51c0-1.48-.07-2.93-.18-4.31s-.26-2.72-.48-4c0-.89-.62-1.61-1.84-2.1a17.61,17.61,0,0,0-5.66-.86Zm22.49-9.76A17.11,17.11,0,0,0,231,21c-.55.37-.84.72-.84,1l.44.6c1.21-.74,2.13-1.31,2.79-1.68s1-.62,1-.69a.4.4,0,0,0-.15-.35A1.4,1.4,0,0,0,233.67,19.64Zm-6.61-1.48a2,2,0,0,0-1,.69,11.09,11.09,0,0,0-1.18,1.67l.44.6a1.48,1.48,0,0,0,1.18-.67,6.92,6.92,0,0,0,1-2v-.29ZM218.46,17a9.31,9.31,0,0,0,.51,2.47c.22.52.48.79.81.79a1.49,1.49,0,0,0,.7-.13.56.56,0,0,0,.18-.46V19q0-2-1.32-2.22Z"/><path class="cls-2" d="M285.58,138.19a6.58,6.58,0,0,0,1.29,1.33A2.08,2.08,0,0,0,288,140l.88-.29c0-.08-.11-.22-.37-.47s-.62-.57-1.17-1v-1.48H286Zm-5.73-2.07c-.22,0-.48.17-.81.54a7.17,7.17,0,0,0-1,1.53,2.83,2.83,0,0,0,.33,1.31,3.84,3.84,0,0,0,1,1.2l.88-.29-.44-1.93.44-2.07a.41.41,0,0,1-.3-.1A.2.2,0,0,1,279.85,136.12Zm13-.6a1.28,1.28,0,0,0-.7.13.59.59,0,0,0-.18.47,5.18,5.18,0,0,0,1,.86,1.51,1.51,0,0,0,.8.32l.89-.3a5.27,5.27,0,0,0-1-1.13A1.63,1.63,0,0,0,292.86,135.52Zm-17.64-.59a1.82,1.82,0,0,0-1.18.87,8.45,8.45,0,0,0-1,2.09v1.48h1.32v-1.18a2.09,2.09,0,0,1,.48-1.23,8.89,8.89,0,0,1,1.29-1.44v-.59Zm25.36-5.18c0-.15.15-.29.48-.44a7.15,7.15,0,0,1,1.29-.45v1.19h-1.77Zm-6.84-.59a1.39,1.39,0,0,0,.48-.1l.85-.2H296c0,.15-.15.3-.48.45a7.11,7.11,0,0,1-1.28.44h-.45Zm-2.64.3a.41.41,0,0,1,.18-.35,2.27,2.27,0,0,1,.7-.25h.88c0,.15-.15.3-.48.45a7.11,7.11,0,0,1-1.28.44Zm-3.09,0c0-.15.18-.3.51-.45a9.74,9.74,0,0,1,1.7-.44v.29c0,.15-.15.3-.48.45a7.56,7.56,0,0,1-1.29.44H288Zm-3.31,0c0-.45.88-.74,2.65-.89h.22v.59l-2,.3Zm-3.09,0a1.75,1.75,0,0,1,1.33-.89h1.32c0,.15-.15.29-.48.44a6.88,6.88,0,0,1-1.29.45Zm-9-1.19a1.39,1.39,0,0,0,.48-.1l.84-.19c1,0,2,0,3,.12a25.62,25.62,0,0,1,3,.47l.81-.2a1.85,1.85,0,0,1,.51-.1h.44a1.37,1.37,0,0,1-.7.59,11.18,11.18,0,0,1-1.5.6l-2.43-.3h-4.41Zm-1.77-16.43v2.67a11.6,11.6,0,0,1-.14,1.75c-.08.74-.19,1.58-.3,2.54h-.44l-.44-3v-2.52l.44-1.48Zm-1.32-2.07a4.48,4.48,0,0,1,.66-.54,1.4,1.4,0,0,1,.66-.2v.45a1.55,1.55,0,0,1-1.32,1.77Zm0-1.92a1.78,1.78,0,0,1,1.32-.89v.89a1.78,1.78,0,0,1-1.32.89Zm0-1.78a1.78,1.78,0,0,1,1.32-.89,2.48,2.48,0,0,1-.47,1.14,1.19,1.19,0,0,1-.85.34Zm-.44-1.18a1.59,1.59,0,0,1,.48-1.24,2.62,2.62,0,0,1,1.28-.69v1a1.78,1.78,0,0,1-1.32.89Zm0-2.22a1.83,1.83,0,0,1,.48-1.31,2.29,2.29,0,0,1,1.28-.76v1.77a1.64,1.64,0,0,0-.47.1l-.85.2Zm-1.77-73.12a2.43,2.43,0,0,0,.19.79,9.93,9.93,0,0,0,.48,1.14,3.74,3.74,0,0,1-.67,1.77l.67,1.33q.49,17.43,1.17,33.31t1.69,30.19a10.71,10.71,0,0,1-1.58,1.87,2.32,2.32,0,0,1-1.28.65q-.66-27-1-44.48t-.33-25.38V29.55Zm3.09-1.48,1.8.2c.45.05.74.1.85.1,1,0,1.76.61,2.28,1.87a14.32,14.32,0,0,1,.81,5.53c-.11.22-.22.39-.3.54a.61.61,0,0,0-.14.35l.44,1.48-.44,2.66a.41.41,0,0,1,.29.1.21.21,0,0,1,.15.2.41.41,0,0,0-.3.1.19.19,0,0,0-.14.19v1l.44.59h-.44a2.21,2.21,0,0,0,.14.91,2.17,2.17,0,0,0,.3.57l-.44,4.59q-.17,18.77-.3,32.31c-.11,9.06-.14,16.38-.14,22a3.83,3.83,0,0,0,.14,1c.08.42.19.89.3,1.41a.35.35,0,0,0-.3.22,1.12,1.12,0,0,0-.14.66q1.32,14.88,2.64,17.32l4.19-.3h2.21a79.19,79.19,0,0,1,8.42.32c1.87.2,2.83.5,2.83.87a2.88,2.88,0,0,0,.84-.1,4.44,4.44,0,0,0,.7-.2c1.22.22,2.36.37,3.46.47s2.17.12,3.16.12h.44a1.77,1.77,0,0,1-.15.79,3.86,3.86,0,0,1-.29.69c0,.3-.37.52-1.14.67a17.79,17.79,0,0,1-3.27.22h-.44l-2.43-.29-.84.19a1.39,1.39,0,0,1-.48.1,1.58,1.58,0,0,1-.52-.1l-.81-.19-.88.29-.88-.2a3.4,3.4,0,0,0-.88-.09h-2.21c-1.1,0-2.94,0-5.48-.13s-5.88-.24-10-.47c-.22,0-.44-.32-.66-1a20.48,20.48,0,0,1-.66-2.86q.66-4.11,1-6.81a36.79,36.79,0,0,0,.33-4.15v-5.77Q272,82.43,270.84,63.35T269,29.7a1.07,1.07,0,0,1,.33-.69A7.76,7.76,0,0,1,270.36,28.07Zm-5.95,1.33L267.94,128a2.06,2.06,0,0,1,1.36.66,11.69,11.69,0,0,1,1.5,2c7.94.3,14.56.52,19.82.67s9.19.22,11.73.22q3,0,4.63-7.55l-.44-.59a9.33,9.33,0,0,0-1.33.1l-2,.19c-4.74-.59-8.93-1-12.54-1.33s-6.65-.44-9.08-.44l-.88.29c0-.07-.07-.14-.18-.19a1.56,1.56,0,0,0-.7-.1c-.66-.37-1.22-3-1.62-8s-.7-12.11-.81-21.51l.44-1.92-.44-1.48q.66-19.76.66-51.51c0-1.48-.07-2.93-.18-4.31s-.26-2.72-.48-4c0-.89-.62-1.61-1.84-2.1a17.61,17.61,0,0,0-5.66-.86Zm22.5-9.76A16.85,16.85,0,0,0,284.22,21c-.55.37-.84.72-.84,1l.44.6c1.21-.74,2.13-1.31,2.79-1.68s1-.62,1-.69a.4.4,0,0,0-.15-.35A1.43,1.43,0,0,0,286.91,19.64Zm-6.62-1.48a2,2,0,0,0-1,.69,11.09,11.09,0,0,0-1.18,1.67l.44.6a1.47,1.47,0,0,0,1.18-.67,6.92,6.92,0,0,0,1-2v-.29ZM271.69,17a9.31,9.31,0,0,0,.51,2.47c.22.52.48.79.81.79a1.49,1.49,0,0,0,.7-.13.56.56,0,0,0,.18-.46V19q0-2-1.32-2.22Z"/><path class="cls-2" d="M343.67,139.37q0,1.11,3.31,4.89l.88-.3q0-.66-3.31-4.88ZM338.81,141v.59a4.36,4.36,0,0,0,.19,1.24,3.62,3.62,0,0,0,.7,1.13l.88-.3a5.15,5.15,0,0,0-.15-1.23c-.07-.44-.18-.91-.29-1.43l.44-1.63v-.29h-1.32Zm9.05-2.81c.11.37.59.81,1.43,1.33a36.33,36.33,0,0,0,3.42,1.78h.88v-.6c-1.43-1-2.57-1.67-3.42-2.12a6.64,6.64,0,0,0-1.43-.69Zm-11.69-.89a5.64,5.64,0,0,0-1.33,1.14q-1.15,1.11-3.3,3.45v.59H332a8.28,8.28,0,0,0,2.13-1.53,37.45,37.45,0,0,0,2.94-3.06v-.59Zm8.82-7.84h2v.29l-11.47,2.07a1,1,0,0,1-.52-.34,9.56,9.56,0,0,1-.81-1.14Zm8.16-.6v.3H351v-.3Zm2.87-.59h2.21v.3c-.11,0-.56.05-1.29.12s-1.69.25-2.91.47v-.59Zm2.21-5.18a6.49,6.49,0,0,1,1.69.35c.33.15.51.32.51.54v3.55a6.56,6.56,0,0,1-1.69-.34c-.33-.15-.51-.32-.51-.55Zm-22.06-19.83a2.49,2.49,0,0,1,1,.32c.22.12.33.27.33.42v.59h-.88a2.72,2.72,0,0,0-.66-1.33Zm-2-.59a27.43,27.43,0,0,1,2.47,2.78,3.58,3.58,0,0,1,.84,1.81c0,1.4,0,3.08.15,5s.18,4.1.29,6.54c-.11,1.11-.22,2.1-.29,3a17.72,17.72,0,0,0-.15,2.2,2.53,2.53,0,0,1-1.65-.69,7.5,7.5,0,0,1-1.66-2.12c.11-1.11.22-2.12.3-3a20.32,20.32,0,0,0,.14-2.47v-8.14a14.91,14.91,0,0,0-.14-2C334.4,104.74,334.29,103.78,334.18,102.67Zm.44-3.26a3.14,3.14,0,0,0,.52,1c.33.49.81,1.16,1.47,2v.3H336a1.63,1.63,0,0,1-.81-.35,4.59,4.59,0,0,1-1-1.13V99.41Zm0-6.66A10.6,10.6,0,0,1,336,96a42.41,42.41,0,0,1,1.07,4.91h-.88c-.77-1.26-1.36-2.22-1.8-2.89a6.41,6.41,0,0,1-.63-1.11l.44-1.77V93.64l-.44-.59Zm-.88-2.81a5.59,5.59,0,0,1,1.69,1.36,2.41,2.41,0,0,1,.52,1.45h-.88c-.45-.74-.78-1.33-1-1.75a3.35,3.35,0,0,1-.33-.77Zm-.44-5A11.39,11.39,0,0,0,336,86.68a1.29,1.29,0,0,1-.15.64,1.78,1.78,0,0,1-.29.55l.66.88v2.08a7.05,7.05,0,0,1-2.17-2.1,4.23,4.23,0,0,1-.7-2.34Zm0-4.3Q336,84.39,336,85.5v.29a7.52,7.52,0,0,1-2.69-2.31,5.29,5.29,0,0,1-.84-2.87Zm0-2.22a2.16,2.16,0,0,1,1.29.62,1.83,1.83,0,0,1,.48,1.31V81.5c-.34,0-.7-.27-1.11-.79a7.61,7.61,0,0,1-1.1-2.32Zm0-4.44c.22,0,.48.35.81,1a21.34,21.34,0,0,1,1,3.13h-.45c-.44,0-.81-.35-1.14-1a10.6,10.6,0,0,1-.62-3.14ZM347,74a.4.4,0,0,1,.18-.34,2.27,2.27,0,0,1,.7-.25V74Zm-6.4-.59,5.07.3V74c-.77,0-1.76,0-3,.1l-4.3.2a1,1,0,0,1-.51-.12,1.14,1.14,0,0,1-.37-.47v-.3Zm7.28-3.7a10.72,10.72,0,0,0,1.47.87,3.17,3.17,0,0,0,1.18.32v1.92h-.45c-1.76-.74-2.64-1.18-2.64-1.33V69.66Zm-14.12-5.77V67l.88.89v.59h-.44l-2.2-.3V63.89Zm-2.2-3a1.45,1.45,0,0,1,.84.44,13.68,13.68,0,0,1,1.36,1.34v.88h-.44a3.26,3.26,0,0,1-1.69-1,2.66,2.66,0,0,1-.52-1.65Zm-.45-4.29a2,2,0,0,1,1.84,1.13,8.19,8.19,0,0,1,.81,3.46h-.88a7.41,7.41,0,0,1-1.43-1.88,6.38,6.38,0,0,1-.78-2.42.41.41,0,0,0,.3-.1A.19.19,0,0,0,331.09,56.64Zm0-3.7a3.64,3.64,0,0,1,1.18.56,11.43,11.43,0,0,1,1.47,1.36v2.07h-.44a8.66,8.66,0,0,1-1.69-.64c-.33-.22-.52-.39-.52-.54Zm0-5.78a9.29,9.29,0,0,1,2,.33c.44.12.66.27.66.41v1.48a1.59,1.59,0,0,1-.48-.09l-.84-.2H332l1.76,1.48v2.66a3.67,3.67,0,0,1-2.65-1.77Zm0-3c1.77,0,2.65.6,2.65,1.78v.89c-1.54,0-2.43-.3-2.65-.89Zm0-2.51a4,4,0,0,1,1.51.25,2.57,2.57,0,0,1,1.14.78v1.19c-1.54,0-2.43-.3-2.65-.89Zm.45-6.37a2.65,2.65,0,0,1,1,.33c.22.12.33.27.33.41v2.08l.44,3.55a11,11,0,0,1-1.69-.77c-.33-.19-.52-.34-.52-.42V35.32Zm5.51-.88c2.43,0,4.74,0,7-.13s4.37-.24,6.47-.47l.88.89h-1.77c-.55,0-1.21,0-2,.1L345,35l-.88-.3a8.41,8.41,0,0,1-2.1.47c-.84.08-1.76.12-2.75.12h-4.64v-.59l2-.29Zm14.34-3.85c.88.29,1.32.59,1.32.89v1.77c-.88-.29-1.32-.59-1.32-.89Zm-30.22.29c5-.51,9.74-.93,14.37-1.2s9-.42,13.2-.42h.44a10.06,10.06,0,0,1-.48,2.31,1.87,1.87,0,0,1-.84,1.09q-8.61.33-13.24.47l-5.29.12-.88.3c.11,1,.22,1.77.29,2.47a11.76,11.76,0,0,1,.15,1.82v3.85c0,2.07,0,4.51-.15,7.35s-.18,6-.29,9.67c.33,2.89.66,5.23.95,7s.59,3.11.81,3.92a30.83,30.83,0,0,1,3.68.32c.77.15,1.18.35,1.18.57l9-.89h.44a.76.76,0,0,1,.51.13.56.56,0,0,1,.15.46V72c-1.43,0-3.31,0-5.59.1l-8.08.2-1.33.44c.33,1,.55,1.73.7,2.32a8.84,8.84,0,0,1,.18,1.23,1.13,1.13,0,0,1-.33.87,1.34,1.34,0,0,1-1,.32q1.65,10,2.65,33.74v.59c0,1.11,0,2.52-.15,4.2s-.18,3.65-.29,5.87c2,2.22,3.31,3.4,4,3.55h7.28c2.09-.37,4.15-.72,6.17-1s4.08-.54,6.18-.77l.44,1.48v.3a1.06,1.06,0,0,1-.15.59c-.07.17-.18.37-.29.59a75.11,75.11,0,0,1-8,1.11c-3.71.37-8.45.74-14.3,1.11l-4-.29a.22.22,0,0,1-.15.2.4.4,0,0,1-.29.09v-1.33c-1-5-1.73-8.78-2.17-11.44s-.7-4.17-.7-4.54q-.5-12.66-1.1-20.55t-1.1-11v-3.4c0-.52-.23-3.68-.67-9.43s-1.1-14.11-2-25.06ZM351,27.48q-10.26,0-29.78,1.78h-.44a12.07,12.07,0,0,0-1.29.56c-.33.18-.48.32-.48.47v11.1q4,52.62,4,60.39a82.37,82.37,0,0,0,1,10.85c.66,4.47,1.58,9.8,2.79,15.94a1.7,1.7,0,0,0,.81,1.53,3.94,3.94,0,0,0,2.28.54,7.94,7.94,0,0,0,2.61,2,7.58,7.58,0,0,0,3.13.66c3.19-.74,5.62-1.25,7.24-1.6a10.81,10.81,0,0,0,2.46-.62q8.78-.66,13.09-1.18c2.9-.35,4.34-.62,4.34-.84v-2.44l.44-2.94a13.15,13.15,0,0,0-1.69-.88c-.77-.37-1.84-.82-3.16-1.34h-.45c-.66.23-1.32.4-1.94.55a10.23,10.23,0,0,1-1.81.19c-.11,0-1.14.15-3.12.45s-4.82.74-8.57,1.33H339.7v-3.4l.44-1.48a.45.45,0,0,1-.3-.1.21.21,0,0,1-.14-.2l.44-.59a2,2,0,0,1-.3-.55,1.25,1.25,0,0,1-.14-.64V106.66L337.05,81.8l.44-.59a2.33,2.33,0,0,0-.18-.79,4.57,4.57,0,0,0-.7-1,4.48,4.48,0,0,1,.66-.54,1.3,1.3,0,0,1,.66-.2l-1.32-1.78v-.29a28.1,28.1,0,0,0,3-.54,8.87,8.87,0,0,0,1.84-.65h4.63c1.44-.22,2.61-.37,3.53-.46a20.59,20.59,0,0,1,2.21-.13,8.66,8.66,0,0,1,.84-2.09A3.7,3.7,0,0,1,354,71.44v-.3c-2.09-1-3.63-1.7-4.66-2.24s-1.51-.87-1.51-1c-.44,0-1.55.07-3.35.22l-7.46.66h-.44V67l-1.1-1V59.3c0-1.92,0-3.9.14-5.89s.19-4.1.3-6.25c-.11-2-.3-3.84-.52-5.52a37,37,0,0,0-.81-4.39,7.51,7.51,0,0,0,1.14-.12,6.14,6.14,0,0,0,1.29-.47c5.4,0,9.45-.13,12.1-.35s4-.54,4-1a1.62,1.62,0,0,0,1.51-1,8.31,8.31,0,0,0,.48-3.13Z"/><path d="M177.84,218.5a1.2,1.2,0,0,1-.22.61c-.16.24-.35.51-.6.82l.49.09a1.35,1.35,0,0,0,.6-.21,3.25,3.25,0,0,0,.71-.59V218h-1Zm6.39-1.07a3.83,3.83,0,0,0-1.34.82,1.61,1.61,0,0,0-.47,1.14v1.16l.33.36h.33a12.15,12.15,0,0,1,.74-2.33c.24-.52.49-.79.73-.79v-.36Zm4.25.18q0,1.33,2.46,2.94a1.5,1.5,0,0,0,.51-.07.31.31,0,0,0,.14-.28,6.67,6.67,0,0,1-1.61-1.55,2.41,2.41,0,0,1-.52-1.4Zm-2.29-4.19a.34.34,0,0,1-.14.28,1.27,1.27,0,0,1-.52.08h-1.3l.32-.36Zm-4.75-.36,1.56.12a9.78,9.78,0,0,0,1.06.06v.36a7.63,7.63,0,0,0-2,.53c-.41,0-.82-.09-1.2-.11a8.8,8.8,0,0,0-1.09-.06,9.82,9.82,0,0,0,1.25-.58C181.31,213.21,181.44,213.11,181.44,213.06Zm11.13-.35a.24.24,0,0,1,.14-.2,1.53,1.53,0,0,1,.52-.07h.32c.66.31,1.56.8,2.68,1.46s2.48,1.48,4,2.46a1.35,1.35,0,0,1-1,.54H199c-3.44-1.7-5.57-3-6.39-4Zm-15.06-.45a8.19,8.19,0,0,1,1.34.15,14.67,14.67,0,0,1,1.94.48l-1.64.89a4.47,4.47,0,0,1-1.12-.2c-.52-.11-1.17-.29-2-.52v-.35a10,10,0,0,0,1.12-.15C177.41,212.48,177.51,212.4,177.51,212.26ZM176,211.19a3.5,3.5,0,0,1,.87.39c.19.13.28.24.28.33s-.17.26-.52.38a7.15,7.15,0,0,1-1.61.24,1.59,1.59,0,0,1-.52-.06.24.24,0,0,1-.14-.21Zm14.9-7.31h.65v-.18h-.65Zm-9.5-1.07a39.94,39.94,0,0,1,3.9,3.05,21.53,21.53,0,0,1,2.81,2.93l-.65.08h-.33q-2.82-2.34-4.42-3.59a12,12,0,0,0-2-1.4,1.29,1.29,0,0,1,.13-.53A2,2,0,0,1,181.44,202.81Zm9-.18c.74.14,1.29.26,1.61.36s.52.22.52.36v.53h-1l.66.54v.35a.24.24,0,0,1-.14.2,1.53,1.53,0,0,1-.52.07l.33.89v.36h-.33a2.05,2.05,0,0,1-.6-.34c-.3-.23-.71-.55-1.2-1a3,3,0,0,1,.38,0,3.82,3.82,0,0,1,.6.07h.17a1,1,0,0,0-.82-.44l.82-1.07c-.09,0-.17-.06-.25-.2a2.83,2.83,0,0,1-.25-.52Zm0-2.58a13.41,13.41,0,0,1,1.61.55c.36.13.52.25.52.34v.45l-1.63-.45h-.17l1.8,1v.71a3.64,3.64,0,0,1-1.36-.19,1.55,1.55,0,0,1-.77-.52Zm0-1.25a18.18,18.18,0,0,1,1.86.39c.41.13.6.24.6.32v.18a16.17,16.17,0,0,1-2.07-.19c-.47-.09-.71-.21-.71-.34Zm.82-3.12,1.64.18v1.25l-.33.35-.65-.17h-.66v.35a7.34,7.34,0,0,1,1.26.17c.24.06.38.14.38.28v.71a5.91,5.91,0,0,1-2.07-.28.94.94,0,0,1-.71-.88v-2Zm1.64-1.07v.71h-2.78v-.89Zm-11.46-35.48a4.28,4.28,0,0,1,1.37.2,5.61,5.61,0,0,1,1.25.52q.85,0,2.07,5.29t2.68,15.92c0,1.29,0,3.51.11,6.63s.13,7.19.22,12.18c.08.94.16,1.68.21,2.22a6.94,6.94,0,0,1,.11,1.08.81.81,0,0,0-.52.13.6.6,0,0,0-.13.4,2.38,2.38,0,0,1-1.2-.74,18.55,18.55,0,0,1-2.08-2.2,13.25,13.25,0,0,0-1.71.26l-3.69.72a.33.33,0,0,0,.11.2c.06.09.14.2.22.34l-.65,1.25v.17l4.28,3.88a9.5,9.5,0,0,1,1.44,1.47h-1.8l-2.94-1.87q-3.19-3.62-4.42-10.43.36-9.09.6-14.1c.13-3.34.22-5.33.22-6a6.69,6.69,0,0,1-.14-1.44c0-.56,0-1.19,0-1.85.17-1.56.33-2.74.47-3.54s.27-1.19.35-1.19a21.25,21.25,0,0,1,.63-5.36,12.45,12.45,0,0,1,2-4.18Zm-.32-.71c0-.18.24-.34.73-.48a16.56,16.56,0,0,1,2.21-.41h.82a5.28,5.28,0,0,1,2.7,2.52,23.26,23.26,0,0,1,2.21,5.68c1.06,1.87,1.86,5,2.35,9.48a156.68,156.68,0,0,1,.76,17.17c-.08.14-.16.26-.22.35a.29.29,0,0,0-.11.19.32.32,0,0,1,.22.06c.08,0,.11.07.11.12l-.33.8a.32.32,0,0,1,.22.06c.08,0,.11.07.11.12a.33.33,0,0,0-.22.06c-.08,0-.11.07-.11.12a13.61,13.61,0,0,1-1.74-.2,5.28,5.28,0,0,1-1-.25l.33-.36,1.47.18v-.53a5.22,5.22,0,0,1-1.34-.14c-.3-.09-.46-.22-.46-.4l.65-.18h1.48V192h-1.48l-.65-.18s0-.09.11-.12a.32.32,0,0,1,.22-.06l-.33-2v-7.84c-.41-3.93-.9-7.49-1.45-10.72s-1.17-6.09-1.82-8.63a3.11,3.11,0,0,0-1-2.24,6.83,6.83,0,0,0-2.81-1.59h-1.63ZM168,191.31q0-14.56,2.46-23a43.75,43.75,0,0,1,1.93-8.34c.74-1.86,1.5-2.8,2.32-2.8-.73,1.74-1.42,3.52-2,5.38a46.74,46.74,0,0,0-1.56,5.76c-.16,5.18-.35,9.11-.6,11.83s-.55,4.18-.87,4.4c-.08,2.49-.17,4.43-.22,5.81s-.11,2.17-.11,2.39c.08,1.92.16,3.34.27,4.29s.22,1.42.38,1.42a18.32,18.32,0,0,0,1.21,7,11.36,11.36,0,0,0,3.54,4.69v.18l-1.31.89h.66l1.31-.53h.32v.18l-1.63,1.07a3.81,3.81,0,0,1-.85-.49,14,14,0,0,1-1.44-1.3,21.81,21.81,0,0,1-2.6-5.2,32,32,0,0,1-1.5-6.12c.09-.85.17-1.65.22-2.39a18.27,18.27,0,0,0,.11-2Zm16-34.58a8.15,8.15,0,0,0-3.46.65,4.85,4.85,0,0,0-2.1,1.93c-.49,0-1,1.2-1.5,3.61s-1,6-1.61,10.83v8.56c0,1.47-.06,3.37-.14,5.69s-.27,5.05-.52,8.22a2.77,2.77,0,0,0,.11.92c.06.22.14.32.22.32a12.81,12.81,0,0,0,1.44,5.92,19,19,0,0,0,4.29,5.23c0,.49.65.86,1.93,1.13a32.85,32.85,0,0,0,5.76.38c0-.13.19-.29.6-.49s1-.44,1.69-.76c-2.54-2.09-4.44-3.67-5.75-4.73a25.61,25.61,0,0,1-1.94-1.68v-.18a1,1,0,0,1,.49-.36c.25-.1.57-.22,1-.36a46.35,46.35,0,0,0,4,3.82,15,15,0,0,0,3.08,2.16l.66-.18a7.92,7.92,0,0,0,1.69-2.33,6.25,6.25,0,0,0,.6-2.75v-.54q0-15.65-.39-23.46c-.27-5.21-.68-7.83-1.25-7.83a38.16,38.16,0,0,0-3.63-10.31c-1.36-2.27-2.84-3.41-4.39-3.41ZM170.8,192.56a65,65,0,0,1,.58-6.57c.3-2.12.65-4.17,1.06-6.18a75.82,75.82,0,0,1,1.12-14.1,22.2,22.2,0,0,1,3.46-8.89c1-.9,3.11-1.34,6.39-1.34h.82a16.8,16.8,0,0,1,6.51,1.05,6.46,6.46,0,0,1,3.47,3.14c1.06,3.56,1.88,6.4,2.43,8.5a20.4,20.4,0,0,1,.84,4.16v2.85a15.48,15.48,0,0,1-.11,1.95c-.05.71-.13,1.48-.21,2.33a10.74,10.74,0,0,1,.38,1.85,21.25,21.25,0,0,1,.11,2.34v3.12c0,.49-.06,1.91-.14,4.25s-.19,5.6-.35,9.74v1.52a10.57,10.57,0,0,1-.63,3.25,21.81,21.81,0,0,1-2,4.06,48.43,48.43,0,0,1,4.88,2.86,29.55,29.55,0,0,1,3.79,2.93.32.32,0,0,1-.13.28,1.31,1.31,0,0,1-.52.08,1.27,1.27,0,0,1-.52-.08.32.32,0,0,1-.14-.28,1.78,1.78,0,0,0-.38.06c-.16,0-.35.08-.6.12-1.47-.94-2.62-1.65-3.41-2.12a7.82,7.82,0,0,0-1.34-.73l-2-1.7h-.66l-2.83,1.13a5.35,5.35,0,0,1-1.26.39v-.09h-1.09a10.07,10.07,0,0,0-1.2.08,24.68,24.68,0,0,1-7.23-.94,11.48,11.48,0,0,1-4.88-2.8c-1-.49-1.83-2.1-2.57-4.8A72.2,72.2,0,0,1,170.8,192.56Zm13.75-38.15c-2.53.13-4.42.3-5.67.47s-1.86.38-1.86.6a9.26,9.26,0,0,0-4.63,2.36,5.77,5.77,0,0,0-1.59,4.23,90.33,90.33,0,0,0-2.59,12c-.68,4.41-1.17,9.23-1.5,14.44v8.91a19.52,19.52,0,0,0,.6,4.79,27.94,27.94,0,0,0,1.69,4.93,13.89,13.89,0,0,0,3.09,4.22,12.18,12.18,0,0,0,4.28,2.56,23.3,23.3,0,0,1,3.08.44c.68.16,1,.31,1,.45a29.36,29.36,0,0,0,4.31-.46c1.8-.3,4-.75,6.49-1.33h.33a17.85,17.85,0,0,0,2.43,1.88c1.14.75,2.56,1.65,4.28,2.67h1l1.34-.52a2.5,2.5,0,0,1,.63-.19s0,.09.11.12a.43.43,0,0,0,.21.06l3.77-1.52c-2.05-1.56-3.82-2.85-5.27-3.86a24.83,24.83,0,0,0-3.57-2.11,22.43,22.43,0,0,0,1.2-2.87,28.2,28.2,0,0,0,.93-3.73v-2.76c0-1.83.08-3.64.24-5.41s.41-3.51.74-5.2l-.33-1.07v-5.62a17.54,17.54,0,0,0-.13-2,13.18,13.18,0,0,0-.52-2.08l.65-.17-.32-1.79V172a19.83,19.83,0,0,0-.47-3.67c-.24-.83-.52-1.28-.84-1.32a33.47,33.47,0,0,0-1.48-6.36,6.1,6.1,0,0,0-2-3.09,4.61,4.61,0,0,0-3-2A30.18,30.18,0,0,0,184.55,154.41Zm4.26-5.35a1.22,1.22,0,0,0-.82.42,3.52,3.52,0,0,0-.82,1.27.34.34,0,0,0,.14.29,1.53,1.53,0,0,0,.52.07c.08,0,.27-.15.57-.46a10.51,10.51,0,0,0,1.06-1.32.23.23,0,0,0-.13-.2A1.57,1.57,0,0,0,188.81,149.06Zm-13.1,0a1.46,1.46,0,0,0-.51.07.22.22,0,0,0-.14.2,13,13,0,0,0,2.45,1.6l.66-.18c0-.22-.19-.47-.63-.74A11.79,11.79,0,0,0,175.71,149.06Zm6.71-.18a5.89,5.89,0,0,0-.73.25c-.17.09-.25.15-.25.2v.89a.34.34,0,0,0,.14.28,1.27,1.27,0,0,0,.52.08.72.72,0,0,0,.62-.42,3.41,3.41,0,0,0,.36-1.28Z"/><path d="M231.33,218.59a.77.77,0,0,0-.38.08.61.61,0,0,0-.27.28,2.13,2.13,0,0,0,.46,1.08.89.89,0,0,0,.69.34,1.5,1.5,0,0,0,.51-.07.31.31,0,0,0,.14-.28,4.43,4.43,0,0,1-.63-.69A6,6,0,0,1,231.33,218.59Zm-4.42-.18a1.51,1.51,0,0,0-.68.34,1.61,1.61,0,0,0-.46.82v1.34h.82l.16-.54.49-1.69a.33.33,0,0,1-.22-.06c-.08,0-.11-.07-.11-.12Zm-6.38-.71a1.68,1.68,0,0,0-.84.59,11.08,11.08,0,0,0-1.12,1.46l-.17.18h.66a3.1,3.1,0,0,0,1.28-.86,2.71,2.71,0,0,0,.52-1.19v-.18Zm14.57-.62a1,1,0,0,0,.35,1,5.21,5.21,0,0,0,1.61,1h.66v-.36a6.89,6.89,0,0,1-1.37-.92,4,4,0,0,1-.76-.86ZM224,208.43a5.11,5.11,0,0,1,3.44,1.6v.18H226.1a3.73,3.73,0,0,1-1.12-.58,8.82,8.82,0,0,1-1-.84Zm2.94.09a1.85,1.85,0,0,0,.39-.06c.16,0,.35-.08.6-.12a2.15,2.15,0,0,1,.84.21,4.07,4.07,0,0,1,1,.68,4.72,4.72,0,0,1-.85.68,1.15,1.15,0,0,1-.46.21h-.33a1.09,1.09,0,0,0-.27-.74,2.53,2.53,0,0,0-.88-.68Zm-5.07-.54a.82.82,0,0,1,.63.27,2.76,2.76,0,0,1,.52.8h-.33a4.73,4.73,0,0,1-1.47-1.07Zm7.37.18a.88.88,0,0,1,.24-.68,1.26,1.26,0,0,1,.74-.3c.65.18,1,.36,1,.54l-.49.89H230Zm3.43-2.67-.16.71-.33.8h-.65l-.66-.18.82-.8c-.08-.13-.16-.24-.22-.32a.38.38,0,0,1-.11-.21v-.18Zm-.65-2.41a4.42,4.42,0,0,0,.63.28,2,2,0,0,0,.51.08v.71a4.23,4.23,0,0,1-.84.48,1.32,1.32,0,0,1-.46.14l-.66-1.24.16-.45Zm-.49-2.67a1,1,0,0,1,.87.59,6.74,6.74,0,0,1,.76,1.72h-.32a1.11,1.11,0,0,1-.6-.26,3.71,3.71,0,0,1-.71-.81Zm-.49-4.73a.21.21,0,0,1,.13-.19,1.31,1.31,0,0,1,.52-.08l.49,4.1v.18l-.49-.18c-.16,0-.3-.31-.38-.95S231.09,197,231,195.68Zm.82-5-.17,2.23h-.33c0-.36,0-.73,0-1.13a6.13,6.13,0,0,0-.14-1.19v-.18Zm-.17-.89-.16.44h-.33l.16-.44Zm1-35.57c-.16,4.23-.32,7.67-.46,10.31s-.27,4.49-.35,5.56q.73,4.68-.5,18.45a.38.38,0,0,0,.11.21c.06.09.14.19.22.33l-.65.17.32-4-.16-.35h.33a30.93,30.93,0,0,1-.36-4.63c0-2.4,0-5.67,0-9.82l.33-3.65q.24-.41,0-5.62l.65-7Zm1.64.27c0-.14.25-.22.74-.28s1.22-.12,2.21-.17c.32,0,.51,1.43.6,4.28s0,7.13-.28,12.84c-.16,4.05-.24,7.34-.27,9.83s0,4.21.11,5.14c.66,4.1,1.12,7.46,1.36,10.09a35.4,35.4,0,0,1,.28,5.6,27.61,27.61,0,0,1-1.12,5.62,7.08,7.08,0,0,1-2,3.21c-.08.76-.74,1.44-2,2.06a23.08,23.08,0,0,1-5.68,1.68c-.08,0-.49,0-1.17-.15s-1.69-.25-2.92-.47a15.4,15.4,0,0,1-6.49-3,5.09,5.09,0,0,1-1.69-4.64,32,32,0,0,1-1.09-7.61q-.33-5.61-.22-14.76c.08-1.39,0-4.51-.27-9.38s-.79-11.53-1.53-20v-.18l2.29-.09a2.36,2.36,0,0,1,.74.08c.16.06.24.14.24.28L216,156a13.73,13.73,0,0,0-.11,1.73,7.25,7.25,0,0,0,.11,1.39c-.08.32,0,2.72.22,7.21s.6,11.07,1.09,19.71a158.52,158.52,0,0,1,2,18.19v.18a5.31,5.31,0,0,1-.11,1.11,9.64,9.64,0,0,1-.38,1.38,8.27,8.27,0,0,0,3.06,3,8.75,8.75,0,0,0,4.14,1.08l1.64.09a9.5,9.5,0,0,0,5.05-2.28,6.84,6.84,0,0,0,2-4.49l.16-.36a10.28,10.28,0,0,0-.22-2.88c-.24-1.16-.6-2.51-1.09-4.07l.17-28.79a2.14,2.14,0,0,1,.13-.58,4.47,4.47,0,0,1,.36-.85,28.85,28.85,0,0,0,.13-3.67C234.28,161.08,234.28,158.2,234.28,154.5Zm-24.55-1.25c.57,0,1,.58,1.36,1.75a24,24,0,0,1,.6,5.29q.62,9.44,1,17.3t.49,14.08a48,48,0,0,0-.11,7.7,21.94,21.94,0,0,0,1.09,5.76h-.66a20.06,20.06,0,0,0-1.06-2.41c-.3-.53-.49-.8-.57-.8q.12-10.5,0-17.77a112.57,112.57,0,0,0-.63-11.29l.17-2.85c-.17-5-.39-8.87-.63-11.63s-.6-4.42-1-4.95Zm4.25-.36a1.59,1.59,0,0,1,.52.06.26.26,0,0,1,.14.21,4,4,0,0,0-.71.06,3.32,3.32,0,0,0-.6.12l-.65-.18-.66.18a2.77,2.77,0,0,1-.71-.27c-.16-.09-.19-.18-.11-.27Zm18.5.45q0-.27,3.93-.54v.27c-.25,0-.66.05-1.26.12s-1.36.19-2.34.33c0-.05,0-.09-.11-.12A.33.33,0,0,0,232.48,153.34Zm4.58-1.07c-.57,0-1.28,0-2.1.07s-1.83.15-3,.29a.24.24,0,0,0-.14-.21,1.64,1.64,0,0,0-.52-.15l-.65.18a2.05,2.05,0,0,0,.49,1.07,1.68,1.68,0,0,1-.11.67,1,1,0,0,1-.22.4c-.24,4.5-.43,9.51-.6,15s-.3,11.53-.38,18a38.22,38.22,0,0,1,.36,5.23c.05,2.81.05,6.71,0,11.71l.16.62a6.42,6.42,0,0,1-1.69,1.81,6.06,6.06,0,0,1-2.07.95l-1.8-.09a12.16,12.16,0,0,1-2.43-.34,4.29,4.29,0,0,1-1.66-.81l.32-3.3-.82-8.38c-.57-3.17-.95-5.89-1.14-8.19a40.76,40.76,0,0,1-.16-5.63q-.5-3.13-.85-9.72t-.46-16.67l.49-1.24a5.55,5.55,0,0,1-1.2-.48A23.5,23.5,0,0,1,214.8,152l-3.93-.09-1.63-.26-.66.53-.16,1.16c.49,0,.9,1.59,1.2,4.63s.52,7.63.6,13.73c.25,4.41.41,8.56.52,12.45s.13,7.56.13,11a22.77,22.77,0,0,0,.39,7.29,8.09,8.09,0,0,0,2.72,4.47,10.32,10.32,0,0,0,1.91,3.9,8.71,8.71,0,0,0,3.17,2.34,27.49,27.49,0,0,0,8.84,2.14h.65a4.31,4.31,0,0,0,2-.26,11.53,11.53,0,0,0,7.25-4.16c1.75-2.22,2.81-5.25,3.22-9.13,0-.13,0-.58,0-1.3s-.05-1.77-.13-3.06a89.31,89.31,0,0,1-1.75-11.71,58.28,58.28,0,0,1-.05-9.78c.41-7.44.57-13,.52-16.74s-.28-5.59-.69-5.63c-.57-.31-1-.57-1.33-.76S237.06,152.4,237.06,152.27Z"/><path d="M265.84,219.3c0,.45.82,1.43,2.46,2.95l.65-.18c0-.27-.82-1.25-2.45-2.94Zm-3.6,1v.36a2,2,0,0,0,.14.74,2.23,2.23,0,0,0,.51.69l.66-.18a2.55,2.55,0,0,0-.11-.74c-.05-.27-.14-.55-.22-.87l.33-1v-.17h-1Zm6.71-1.69c.08.22.44.49,1.07.8a25.4,25.4,0,0,0,2.53,1.07h.66v-.35c-1.07-.58-1.91-1-2.54-1.28a6.3,6.3,0,0,0-1.06-.42Zm-8.67-.53a3.94,3.94,0,0,0-1,.68c-.57.45-1.39,1.14-2.45,2.08v.36h.33a6.85,6.85,0,0,0,1.58-.92,27.56,27.56,0,0,0,2.18-1.85v-.35Zm6.54-4.73h1.48v.18l-8.51,1.25a.83.83,0,0,1-.39-.21,7,7,0,0,1-.6-.68Zm6.06-.35v.17h-1.64V213Zm2.13-.36h1.63v.18l-.95.07c-.52.06-1.26.15-2.16.28v-.35Zm1.63-3.12a5.28,5.28,0,0,1,1.26.21c.24.09.38.19.38.32v2.14A5.27,5.27,0,0,1,277,212c-.25-.08-.39-.19-.39-.32Zm-16.36-11.95a2.33,2.33,0,0,1,.73.2c.17.07.25.16.25.25v.36h-.66a1.51,1.51,0,0,0-.49-.81Zm-1.48-.35a17.55,17.55,0,0,1,1.83,1.68,2,2,0,0,1,.63,1.08c0,.85,0,1.86.11,3s.13,2.46.22,3.93c-.09.67-.17,1.27-.22,1.8a8.84,8.84,0,0,0-.11,1.32,2.15,2.15,0,0,1-1.23-.41,4.89,4.89,0,0,1-1.23-1.28c.09-.67.17-1.28.22-1.81a10.26,10.26,0,0,0,.11-1.49v-4.9a7.56,7.56,0,0,0-.11-1.2C259,198.45,258.89,197.87,258.8,197.2Zm.33-2a1.89,1.89,0,0,0,.38.59c.25.3.6.7,1.09,1.19v.18h-.49a1.43,1.43,0,0,1-.6-.21,3.38,3.38,0,0,1-.71-.68v-1.07Zm0-4a6,6,0,0,1,1,1.95,21.38,21.38,0,0,1,.79,3h-.65c-.58-.76-1-1.34-1.34-1.74a3.69,3.69,0,0,1-.46-.67l.32-1.07v-.89l-.32-.36Zm-.65-1.69a4.28,4.28,0,0,1,1.25.82,1.27,1.27,0,0,1,.38.87h-.65c-.33-.44-.57-.8-.74-1.05a2.13,2.13,0,0,1-.24-.46Zm-.33-3a9.1,9.1,0,0,0,2,1.07.63.63,0,0,1-.11.39,1,1,0,0,1-.21.32l.49.54v1.25a4.8,4.8,0,0,1-1.61-1.27,2.18,2.18,0,0,1-.52-1.41Zm0-2.59c1.31,1.52,2,2.5,2,3V187a5.45,5.45,0,0,1-2-1.39,2.75,2.75,0,0,1-.63-1.73Zm0-1.33a1.66,1.66,0,0,1,1,.37,1,1,0,0,1,.36.79v.71a1.22,1.22,0,0,1-.82-.48,4.31,4.31,0,0,1-.82-1.39Zm0-2.68c.16,0,.35.21.6.61a10.8,10.8,0,0,1,.71,1.89h-.33a1,1,0,0,1-.85-.61,5.45,5.45,0,0,1-.46-1.89Zm10.15,0a.22.22,0,0,1,.13-.2,1.73,1.73,0,0,1,.52-.15v.35Zm-4.75-.35,3.76.18v.17c-.57,0-1.31,0-2.21.06l-3.19.12a.92.92,0,0,1-.38-.07.73.73,0,0,1-.27-.28v-.18Zm5.4-2.23a8.68,8.68,0,0,0,1.09.52,2.69,2.69,0,0,0,.87.19v1.16h-.32a7.36,7.36,0,0,1-2-.8v-1.07Zm-10.47-3.48v1.87l.65.54v.35h-.33l-1.63-.17v-2.59Zm-1.64-1.78a1.2,1.2,0,0,1,.63.27,8.78,8.78,0,0,1,1,.8v.53h-.33a2.61,2.61,0,0,1-1.26-.61,1.42,1.42,0,0,1-.38-1Zm-.33-2.59a1.61,1.61,0,0,1,1.37.69,4.32,4.32,0,0,1,.6,2.08h-.66a4.76,4.76,0,0,1-1.06-1.13,3.53,3.53,0,0,1-.58-1.46.3.3,0,0,0,.22-.06C256.48,169.56,256.51,169.52,256.51,169.47Zm0-2.22a2.77,2.77,0,0,1,.87.34,7.6,7.6,0,0,1,1.1.81v1.25h-.33a8.72,8.72,0,0,1-1.26-.38c-.24-.14-.38-.24-.38-.33Zm0-3.48A7.66,7.66,0,0,1,258,164c.33.08.5.17.5.25v.9a1.56,1.56,0,0,1-.36-.06l-.63-.12h-.32l1.31.89v1.6a2.77,2.77,0,0,1-2-1.07Zm0-1.78c1.31,0,2,.35,2,1.07v.53c-1.15,0-1.8-.18-2-.53Zm0-1.52a3.57,3.57,0,0,1,1.12.15,2.09,2.09,0,0,1,.85.47v.72c-1.15,0-1.8-.18-2-.54Zm.33-3.83a2.18,2.18,0,0,1,.74.19c.16.07.24.16.24.25v1.25l.33,2.14a11.14,11.14,0,0,1-1.26-.46c-.24-.12-.38-.21-.38-.25v-3.12Zm4.09-.54c1.8,0,3.52,0,5.18-.07s3.25-.15,4.8-.28l.66.53h-1.31q-.61,0-1.47.06l-2,.12-.65-.18a7.72,7.72,0,0,1-1.56.28c-.62.05-1.31.08-2,.08h-3.44v-.36l1.47-.18Zm10.64-2.32c.65.18,1,.36,1,.54v1.07c-.65-.18-1-.36-1-.54Zm-22.42.18c3.68-.31,7.23-.56,10.66-.73s6.69-.25,9.8-.25h.32a5.27,5.27,0,0,1-.35,1.4,1.21,1.21,0,0,1-.63.65c-4.25.14-7.53.23-9.82.29l-3.93.07-.65.18c.08.58.16,1.07.22,1.48a5.88,5.88,0,0,1,.1,1.1v2.32c0,1.25,0,2.72-.1,4.43s-.14,3.64-.22,5.82c.24,1.74.49,3.15.71,4.24s.43,1.87.6,2.36a25.88,25.88,0,0,1,2.72.19c.58.09.88.21.88.34l6.71-.53h.33a.68.68,0,0,1,.38.07.32.32,0,0,1,.11.28v1.07c-1.07,0-2.46,0-4.15.06l-6,.12-1,.27c.24.58.41,1,.52,1.4a4.38,4.38,0,0,1,.13.74.62.62,0,0,1-.24.52,1.19,1.19,0,0,1-.74.19q1.23,6,2,20.33v.35c0,.67,0,1.52-.11,2.53s-.13,2.2-.21,3.54a9.15,9.15,0,0,0,2.94,2.13h5.4c1.56-.22,3.09-.43,4.59-.6s3-.33,4.58-.47l.33.9v.17a.55.55,0,0,1-.11.36c-.06.11-.14.22-.22.36-1.23.22-3.19.44-5.92.67s-6.27.44-10.61.67l-2.95-.18s0,.09-.11.12a.36.36,0,0,1-.22.06v-.81c-.73-3-1.28-5.29-1.6-6.89a23.43,23.43,0,0,1-.52-2.73q-.37-7.63-.82-12.38c-.3-3.17-.57-5.36-.82-6.61v-2.05c0-.31-.16-2.22-.49-5.68s-.82-8.5-1.47-15.09Zm22.09-2.05q-7.61,0-22.09,1.07h-.33c-.41.14-.74.24-1,.34s-.35.2-.35.29v6.68q2.94,31.69,3,36.37a41.14,41.14,0,0,0,.7,6.54c.5,2.69,1.18,5.9,2.08,9.6a1,1,0,0,0,.6.92,3.47,3.47,0,0,0,1.69.32,5.8,5.8,0,0,0,1.94,1.21,6.62,6.62,0,0,0,2.32.4c2.37-.45,4.17-.76,5.37-1a9.08,9.08,0,0,0,1.83-.37c4.33-.27,7.58-.5,9.71-.71s3.22-.37,3.22-.51v-1.47l.32-1.77a10.23,10.23,0,0,0-1.25-.53c-.57-.22-1.36-.49-2.35-.8h-.32c-.49.13-1,.24-1.45.32a8.31,8.31,0,0,1-1.34.12l-2.31.27-6.36.8h-2V208l.33-.89A.33.33,0,0,1,263,207c-.08,0-.11-.07-.11-.12l.33-.35a1.36,1.36,0,0,1-.22-.33.68.68,0,0,1-.11-.39V199.6l-2-15,.33-.36a1.23,1.23,0,0,0-.14-.47,2.62,2.62,0,0,0-.52-.6,4.22,4.22,0,0,1,.49-.33,1.29,1.29,0,0,1,.5-.11l-1-1.07v-.18c.9-.09,1.64-.21,2.24-.33a7.47,7.47,0,0,0,1.36-.39h3.44c1.07-.13,1.94-.22,2.62-.28s1.23-.07,1.64-.07a4.78,4.78,0,0,1,.62-1.26,2.6,2.6,0,0,1,1-.79v-.18c-1.55-.58-2.7-1-3.46-1.35s-1.12-.52-1.12-.61c-.33,0-1.15,0-2.48.13l-5.54.4h-.33v-1.07l-.81-.62v-4c0-1.16,0-2.35.1-3.55s.14-2.47.22-3.76c-.08-1.2-.22-2.32-.38-3.33a17.3,17.3,0,0,0-.6-2.64,5.72,5.72,0,0,0,.85-.08,5.58,5.58,0,0,0,.95-.28c4,0,7-.07,9-.21s3-.33,3-.59A1.25,1.25,0,0,0,274,156a4.14,4.14,0,0,0,.35-1.89Z"/><path class="cls-3" d="M215.45,401.73H2.33a42.23,42.23,0,0,1-1.52-5.67,46,46,0,0,1-.8-9.89c0-5.6,0-15.15,0-27.74H431c0,14.09,0,24.35,0,27.82a47.14,47.14,0,0,1-.26,6c-.18,1.71-.41,3-.5,3.45a42.27,42.27,0,0,1-1.6,6.05Z"/><path class="cls-2" d="M95.26,349.94a2.7,2.7,0,0,0-1.29.69,1.59,1.59,0,0,0-.48,1.24v.59a4.12,4.12,0,0,0,.48,1.35c.3.67.74,1.61,1.29,2.79h1.32V356c-.55-1.18-1-2.1-1.28-2.76a4.63,4.63,0,0,1-.48-1.09,4.57,4.57,0,0,0,.7-1,2,2,0,0,0,.18-.64Zm-12.79,0c-.78,1.41-1.4,2.47-1.88,3.21s-.88,1.08-1.21,1.08a.59.59,0,0,0,.18.47,1.49,1.49,0,0,0,.7.13h.88a20.3,20.3,0,0,1,2-3.53,4.69,4.69,0,0,1,1.8-1.65.59.59,0,0,0-.18-.47,1.49,1.49,0,0,0-.7-.13Zm23.6-5a1,1,0,0,0-.52.12,1.23,1.23,0,0,0-.37.47v.59a2.13,2.13,0,0,0,1.36,1.93,12.52,12.52,0,0,0,4.16,1,1.66,1.66,0,0,0,.7-.12.6.6,0,0,0,.18-.47v-.29a10.1,10.1,0,0,1-4.15-1A2.47,2.47,0,0,1,106.07,344.91Zm-8.61-6.81v.15c0,.37-.88.81-2.61,1.36s-4.33,1.15-7.75,1.89h-.89v-.29a47.58,47.58,0,0,0,5.45-1.65,17.76,17.76,0,0,0,3.6-1.76Zm23.61-1.78a.92.92,0,0,0-.52.13,1.08,1.08,0,0,0-.37.47v.59c0,.29.89.74,2.65,1.33h1.32v-.3c-1-.59-1.76-1.08-2.27-1.45S121.07,336.47,121.07,336.32Zm-23.16.3c0-.07.33-.3,1-.69s1.58-.94,2.8-1.68H103l.44,1.48c-.66,0-1.76.59-3.31,1.78a6.49,6.49,0,0,1-1.69-.35C98.09,337,97.91,336.84,97.91,336.62Zm9-7.25a20.69,20.69,0,0,1,2,.91c.45.22.67.42.67.57l-4,3.7a2.2,2.2,0,0,1-.78-.45,10.68,10.68,0,0,1-1.43-1.33c1-.89,1.76-1.63,2.28-2.19s.81-1,.81-1.21Zm1.32-2.37a3.84,3.84,0,0,1,1.33.32c.55.2,1.21.49,2,.86a5.7,5.7,0,0,1-.62.87c-.22.22-.37.32-.48.32a7.06,7.06,0,0,1-2.65-1.78Zm2.43-2.52a1.46,1.46,0,0,1,.81.42,7.51,7.51,0,0,1,.95,1.21v.3a5.49,5.49,0,0,1-.73-.1c-.37-.05-.92-.12-1.69-.2v-.29l.44-1.34Zm.88-1.48a6.11,6.11,0,0,1,1-1.33,1.39,1.39,0,0,1,.81-.44v2.07a.6.6,0,0,1-.19.47,1.63,1.63,0,0,1-.7.12,1.08,1.08,0,0,0-.18-.66A.93.93,0,0,0,111.58,323Zm6.62-13.61a21.24,21.24,0,0,1-1,3.87c-.33.86-.74,1.31-1.18,1.31l.44-3.41V308.8Zm.88-4.29v1.77l-.44.45a2.28,2.28,0,0,1-1.69-.55,2.45,2.45,0,0,1-.52-1.67Zm-2.65-3.56a1.69,1.69,0,0,1,.48.1l.85.2a2.37,2.37,0,0,0,.55-.1c.26-.05.66-.12,1.21-.2v2.37c-.88-.29-1.32-.59-1.32-.89a1.9,1.9,0,0,0-.52.1c-.22.05-.47.13-.8.2h-.45ZM116,297a3.33,3.33,0,0,0,1.44.66,8.94,8.94,0,0,0,2.09.22v2.08c-.88-.3-1.32-.6-1.32-.89l-2.21.29Zm1.77-10.07h.44l.88-.3c.11,1.93.22,3.58.3,5s.14,2.62.14,3.58v.29l-2.64.3-.89-1.92v-2.37l1.33.59h.44a1.66,1.66,0,0,0,.7-.12.6.6,0,0,0,.18-.47v-.3c0-1.18-.88-1.77-2.65-1.77V286ZM116,281.12a3.93,3.93,0,0,1,2.28,1.58,5,5,0,0,1,.81,3h-.88c-1.77-1.63-2.65-2.67-2.65-3.11v-1.48ZM86.21,254.18a3.83,3.83,0,0,1,1.7.67,1.43,1.43,0,0,1,.51,1.11c0,2.37,0,4.46.15,6.34s.18,3.5.29,4.91c-.11,1.48-.22,3-.29,4.53s-.15,3.16-.15,4.79L92,306.28v8.29l.22,3.55c-.66,0-1.21-1.83-1.69-5.45s-.85-9.05-1.18-16.31Q87.82,283.6,87,273.3c-.55-6.83-.81-12.83-.81-17.93a.61.61,0,0,0-.14-.35c-.08-.15-.19-.32-.3-.54a.6.6,0,0,0,.3-.1A.2.2,0,0,0,86.21,254.18Zm1.33-1.77.88.29-.44.59a1.05,1.05,0,0,1-.52-.12,1.21,1.21,0,0,1-.36-.47v-.29Zm-.88-1.34v.74h-.89v-.74Zm19.85-3.25a32.31,32.31,0,0,1,5.11,6,39,39,0,0,1,3.93,7.89q1,2.88,2.65,18.2h-.44a8.35,8.35,0,0,1-2.28-2.09,3.59,3.59,0,0,1-.81-2.2,51.57,51.57,0,0,0-2.28-16,32.35,32.35,0,0,0-6.76-11.86Zm-15.88-.89a52.21,52.21,0,0,1,6.43,5.87c1.43,1.6,2.17,2.86,2.17,3.75.77,0,1.54,3.38,2.35,10.11s1.73,16.83,2.72,30.3a77.05,77.05,0,0,1-.62,8.65c-.33,1.93-.7,2.89-1.14,2.89a26.81,26.81,0,0,1-1.69,10.09,15.08,15.08,0,0,1-5.15,6.78.59.59,0,0,0-.15-.47.43.43,0,0,0-.29-.12c-.33-8.88-.85-17.29-1.51-25.21s-1.58-15.34-2.68-22.3c0-1.85,0-3.58.14-5.2s.19-3.16.3-4.57c-.33-5-.55-9.1-.7-12.38s-.18-5.75-.18-7.3l-.44-.59a.41.41,0,0,0,.29-.1A.22.22,0,0,0,90.63,246.93Zm-4.42-.59c0,.15.15.37.48.66A16.71,16.71,0,0,0,88,248.11c-.11,0-.22.13-.29.35a3,3,0,0,0-.15,1.13H85.77l-.44-1.48v-1.77Zm-3.74-4.29,1.1,27.52q2.64,24.65,2.64,28v2.66c.34,2.07.56,4,.7,5.77s.19,3.41.19,4.89c1,4.22,1.76,7.69,2.28,10.43a34,34,0,0,1,.81,6v2.36a5.6,5.6,0,0,0,1,.87,1.53,1.53,0,0,0,.81.32h.22a66.77,66.77,0,0,0,5.66-4c1.22-1,1.84-1.73,1.84-2.1q5.3-2.67,7.28-22.64V288.37c-.77-9.47-1.62-17-2.5-22.62s-1.91-9.27-3-11A26.17,26.17,0,0,0,96,248.26a40.68,40.68,0,0,0-8.45-5.62H85.33a1.85,1.85,0,0,0-.18-.87.77.77,0,0,0-.7-.32h-.88Zm-6.62-4a25.5,25.5,0,0,1,5.29-.89h1.77a21.88,21.88,0,0,1,4,.86,40.88,40.88,0,0,1,4.16,1.66,37.43,37.43,0,0,1,11.06,8,42.8,42.8,0,0,1,7.91,12c.44,4.51.88,8.51,1.36,11.94a82.59,82.59,0,0,0,1.5,8.63c0,3.4,0,7.84.15,13.3s.19,11.94.3,19.41c0,1.7-1,4.07-2.95,7.1a99.49,99.49,0,0,1-8.74,11.1,47.07,47.07,0,0,1-8.83,5.65A28.7,28.7,0,0,1,84,339.43v-6.07a44.8,44.8,0,0,0-.63-7.12c-.44-2.52-1-5.23-1.8-8.12q-.83-10.55-1.47-17c-.44-4.32-.84-7.33-1.17-9,0-1.63,0-4-.15-7.13s-.19-7-.3-11.67Zm4.85-2.67c-1.21,0-2.32.05-3.27.13A11,11,0,0,0,75,236c-.11,0-.34.17-.67.54s-.77.86-1.32,1.53c.33,5.25.66,10.43,1.07,15.54s.81,10.14,1.36,15.1v3.1l.44.6h-.44a1.3,1.3,0,0,0,.14.64,2.12,2.12,0,0,0,.3.54l-.44,1.18c0,3.93.14,8.12.47,12.56s.74,9.2,1.29,14.23a.41.41,0,0,0-.29.1.22.22,0,0,0-.15.2l.44,1.78v4.88q4,20.64,4,22.64V340a19.22,19.22,0,0,0,2.8,2.32,9.31,9.31,0,0,0,2.27,1.24,10.33,10.33,0,0,0,1.84-.23c.81-.14,1.8-.36,3-.66q12.41-3.66,18.67-8.88t6.25-12a6.26,6.26,0,0,0,1.69-2.22,6.82,6.82,0,0,0,.52-2.66,56.35,56.35,0,0,0,2.17-8.34,40.72,40.72,0,0,0,.7-7.35V290c0-2.44-.08-4.27-.19-5.45s-.37-1.8-.7-1.8a146.67,146.67,0,0,0-1.47-15.45,37.53,37.53,0,0,0-2.28-9.12,44.11,44.11,0,0,0-6.21-8.88,13.69,13.69,0,0,0-5.92-4,96.37,96.37,0,0,0-12.72-7.45c-3.53-1.65-6.36-2.47-8.45-2.47ZM65,223.54a40.19,40.19,0,0,1,2.68,3.58,4.73,4.73,0,0,1,.85,1.9h1.32v-.59a3.88,3.88,0,0,0-1-2,26.36,26.36,0,0,0-3-3.21Zm13-2.81a1.07,1.07,0,0,0-.66.25,2.49,2.49,0,0,0-.66.79l.44,1.48-.44,1.18a2.47,2.47,0,0,0,.51,1.14,1.11,1.11,0,0,0,.81.34c.44,1.41.85,2.59,1.18,3.53a7.31,7.31,0,0,0,1,1.95l.88-.3c-.44-1.85-.88-3.48-1.32-4.91s-.88-2.71-1.33-3.82l.45-1.33Zm15.89-.59q-1.66,0-2,5.77V229l.22.59.88-.29a29.77,29.77,0,0,1,.48-6.12,4.32,4.32,0,0,1,1.29-2.76v-.3Z"/><path class="cls-2" d="M136.8,345.94a2.43,2.43,0,0,0-1.29.77A1.81,1.81,0,0,0,135,348v1.77h1.32a7.42,7.42,0,0,1,.88-3.55.37.37,0,0,1-.29-.1.21.21,0,0,1-.15-.2m-9-3.4a5.81,5.81,0,0,0-2.14.69,29.31,29.31,0,0,0-3.6,2.12.59.59,0,0,0,.18.47,1.51,1.51,0,0,0,.7.12l5.3-2.81ZM141,340.47l4.41-.2c1.29-.07,2.32-.1,3.09-.1v.59l-.44.6-3.82-.2c-1.11-.07-2-.1-2.8-.1H141Zm41.47-1.78c0-.22.62-.47,1.84-.76s3-.57,5.44-.87v.3c0,.37-.55.67-1.69.89a34.27,34.27,0,0,1-5.15.44Zm-60-2.22A10.48,10.48,0,0,0,120,337c-.55.19-.85.41-.85.64v.44a6.08,6.08,0,0,0,1.73-.25,10.5,10.5,0,0,0,2-.79Zm56-13,2.65,13.91-.89.3h-.44a18.84,18.84,0,0,0-.66-4.84,24.67,24.67,0,0,0-2-5.08l.88-.89V326h-1.11v-1.33a2.81,2.81,0,0,0,.52-.64,1.2,1.2,0,0,0,.15-.54Zm-1.32-2.67a1.42,1.42,0,0,1,.69.13.59.59,0,0,1,.19.47v.29a3.46,3.46,0,0,1-.63.67,1,1,0,0,1-.48.22h-.44A3.77,3.77,0,0,1,177.17,320.78Zm-.67-3.1a1,1,0,0,1,.52.12.59.59,0,0,1,.15.47v1.18c0,.3-.23.45-.67.45h-.44v-1.63Zm-.88-3.85a1.66,1.66,0,0,1,.7.12.6.6,0,0,1,.18.47v.89l-.44,1.48h-.88v-2.37Zm-1.32-2.22c.66-.59,1.1-.89,1.32-.89v1.48a.6.6,0,0,1-.18.47,1.66,1.66,0,0,1-.7.12h-.44l.44-.59Zm-34.85-1.78a18,18,0,0,1,3.31-1.77v3.25c-.89,4.59-1.55,8.59-2,12a67.36,67.36,0,0,0-.66,8.31h-.22c0-6.14,0-11-.15-14.65S139.56,310.94,139.45,309.83Zm34.41-1.18a1.78,1.78,0,0,1,1.32-.89h.44l-.88,2.07h-.88Zm-.44-1.63c0-1,.44-1.63,1.32-1.78v.3L174.3,307Zm-34-.89a4.94,4.94,0,0,0,1-.34c.55-.25,1.32-.62,2.32-1.14v2.07a5.6,5.6,0,0,0-1.37.2c-.44.15-.95.32-1.5.54h-.44Zm34.85-3.25a1.55,1.55,0,0,1-1.33,1.77v-.29l.45-1.48ZM172.53,301a.6.6,0,0,1,.19-.47,1.59,1.59,0,0,1,.7-.12v1.33h-.89Zm-32.64-.59c0-.07.22-.27.7-.57s1.17-.69,2.17-1.21v3.7c0,.23-.23.47-.7.77a11.67,11.67,0,0,1-2.17,1h-.44l.44-1.48Zm31.76-1.48a.6.6,0,0,1,.18-.47,1.66,1.66,0,0,1,.7-.12H173l-.44,1.48h-.88ZM155.33,298c0-.22.26-.42.81-.57a13.55,13.55,0,0,1,2.28-.32c0,.23-.22.42-.67.6a17.86,17.86,0,0,1-2,.59.21.21,0,0,0-.15-.2A.41.41,0,0,0,155.33,298Zm-12.57-1.78v.6a10.86,10.86,0,0,1-1.37,1.13,1.71,1.71,0,0,1-.84.35h-.44V297.1a2.92,2.92,0,0,0,1.28-.22.69.69,0,0,0,.48-.67Zm24.92-.29a11.57,11.57,0,0,0,1.47-.1c.52-.05,1.07-.12,1.62-.2,0,.15-.15.3-.48.45a7.82,7.82,0,0,1-1.29.44l-.84-.2a1.69,1.69,0,0,0-.48-.1Zm-27.57,0a2.6,2.6,0,0,1,.66-1.9,3.34,3.34,0,0,1,2-.91v1.48a14.79,14.79,0,0,1-1.37,1,1.61,1.61,0,0,1-.84.32Zm.44-4.29a9.37,9.37,0,0,1,1.43-1.14,2.56,2.56,0,0,1,.78-.34h.44v.29a1.76,1.76,0,0,1-.67,1.36,6,6,0,0,1-2,1ZM143.64,278c0,.52,0,1.63-.15,3.33s-.18,4-.29,6.88c0,.22-.15.45-.48.69a12.61,12.61,0,0,1-1.29.94l-.88-.3L141,289v-8.29a2,2,0,0,1,.48-1,20.28,20.28,0,0,1,1.29-1.65Zm-1.33-.89a1.17,1.17,0,0,1,.48-.94,5.58,5.58,0,0,1,1.29-.69l-.44,1.63Zm14.78-10.95A149,149,0,0,1,167,289.26l-10.37.59h-.44c0-2.52,0-5.72.15-9.64s.18-8.49.29-13.74v-.3Zm-13.89,0,.88-.3v.3a4.59,4.59,0,0,1-1,1.13,1.54,1.54,0,0,1-.81.35v-1.78Zm1.32-1.18c.55-.52,1-.92,1.36-1.21a1.54,1.54,0,0,1,.85-.42V264a10.93,10.93,0,0,1-.15,1.78c-.07.66-.18,1.4-.3,2.22a15.31,15.31,0,0,1-1.47,5.2,2.9,2.9,0,0,1-2.5,1.75h-.44a4.68,4.68,0,0,1,.77-1.87,10.77,10.77,0,0,1,1.44-1.68.41.41,0,0,0-.19-.35,2.14,2.14,0,0,0-.69-.24l-.89.29v-.74a3.11,3.11,0,0,1,.85-1.57,27.81,27.81,0,0,1,2.68-2.57v-.3a.49.49,0,0,0-.33-.47,3.39,3.39,0,0,0-1-.12Zm0-3.7a2.3,2.3,0,0,0,.7-.35l1.51-1.13v1.48c-.89.81-1.59,1.48-2.14,2a6.15,6.15,0,0,0-1,1.11h-.88l.88-3.4Zm12.57-4.59c.33.07,1.07,1.5,2.17,4.31s2.69,6.94,4.67,12.41l6.84,15.84h-.88a1,1,0,0,1-.52-.25,5.18,5.18,0,0,1-.81-.79,125.87,125.87,0,0,0-4.37-12.45,50.74,50.74,0,0,0-4.67-9A25.32,25.32,0,0,0,157.9,262c-.48-1.06-.92-1.58-1.25-1.58.11-.52.22-1.09.3-1.68A11.58,11.58,0,0,0,157.09,256.7Zm.44-11.25c-.77,0-1.5,1.33-2.17,4a93.41,93.41,0,0,0-1.8,11.87c0,1.85,0,5.1-.14,9.71s-.19,10.64-.3,18l-.44,2.67,2.21.89c1-.3,1.76-.52,2.35-.67a6.42,6.42,0,0,1,1.4-.22c1.87,0,3.93,0,6.14-.1s4.67-.13,7.31-.2l1.33.59a11.07,11.07,0,0,0,2.64-1.77v-.3c0-.22-.14-.37-.48-.47a5.75,5.75,0,0,0-1.28-.12c-.88-1.7-1.58-3-2.13-3.87s-.85-1.31-1-1.31c-1.21-3.63-2.76-7.65-4.6-12.09s-3.89-9.22-6.21-14.4a81,81,0,0,0-1.36-9.13C158.6,246.44,158.09,245.45,157.53,245.45Zm-9-1.78c0,.08-.11,1-.33,2.86s-.55,4.54-1,8.1v3.25c-.89.74-1.58,1.31-2.14,1.68a2.81,2.81,0,0,1-.95.54l.44-3.4v-1.19l1.32-1.18v-.59h-1.32a13.37,13.37,0,0,1,.81-3.75c.51-1.7,1.29-3.8,2.28-6.32Zm-.44-2.37a.4.4,0,0,1,.18-.34,2.27,2.27,0,0,1,.7-.25v1.19a.6.6,0,0,1-.18.47,1.66,1.66,0,0,1-.7.12Zm-1.77,38.19c.34-1.78.74-3.58,1.22-5.43a42.76,42.76,0,0,1,1.87-5.52c.33-6.29.63-11,.85-14.11s.48-4.69.7-4.69a87.35,87.35,0,0,1,.84-8.85c.37-2,.81-3,1.36-3H154q5,0,7.28,4.88,14.07,38.31,21,61.3t7,30.91a26.82,26.82,0,0,1-2.8.47c-.84.08-1.61.12-2.28.12h-.44a54.57,54.57,0,0,0-1.14-6.19c-.73-3.57-1.84-8.68-3.27-15.27-1.43-6.88-2.54-12.06-3.38-15.51s-1.36-5.21-1.69-5.21c-3.53.3-6.84.59-9.93.92s-6,.64-8.6,1a17.55,17.55,0,0,1-2,1.8,2.78,2.78,0,0,1-1.14.57c-.11,2.07-.22,3.84-.29,5.35s-.15,2.71-.15,3.67c-.55,4.22-1.07,8.88-1.51,14s-.81,10.78-1.14,16.93c0,.29-.22.44-.66.44h-3.09l-3.08.3a106.2,106.2,0,0,1,.8-12.41c.52-4.61,1.29-9.72,2.28-15.27v-4.29a19.45,19.45,0,0,0-.14-2.57c-.08-.84-.19-1.65-.3-2.46a78.74,78.74,0,0,0,.7-7.92c.11-3.14.18-6.81.18-11l.45-2.66a.45.45,0,0,1-.3-.1A.22.22,0,0,1,146.28,279.49Zm7.28-43.66a6.88,6.88,0,0,0-3,.91,26.92,26.92,0,0,0-4.31,2.79,13,13,0,0,1-.84,3.87,44.34,44.34,0,0,1-2.68,5.75,64.57,64.57,0,0,1-.78,9.2c-.4,2.22-.88,3.6-1.43,4.12-.33,6-.66,10.48-1,13.44s-.66,4.47-1,4.47l.45,1.18c0,3.33-.19,7.11-.52,11.3s-.92,8.83-1.69,13.86q.33,16,1.32,30.64c-.33,1.26-.55,2.22-.7,2.91a13.45,13.45,0,0,0-.18,1.38,3.21,3.21,0,0,0,1.32.87,6.14,6.14,0,0,0,2,.32h8.38c.11,0,.37-.23.81-.67s1-1.11,1.62-2q1.65,0,4-40.4h.88a42.13,42.13,0,0,1,5.48-1.36c2.13-.37,4.56-.71,7.31-1l2.21,8.73c1,7.11,2,12.8,2.94,17.12s1.91,7.23,2.79,8.78c.34,2.59.63,4.59.85,6a6.7,6.7,0,0,0,.7,2.44c3-.08,5.29-.17,6.87-.3a16,16,0,0,0,2.61-.29,4.77,4.77,0,0,0,3.13-1.09,7.8,7.8,0,0,0,2.17-3.21V335a4.16,4.16,0,0,1-.85-1,4.37,4.37,0,0,1-.48-1.09c0-3-1-8.41-3-16.11s-5-17.71-9.12-30.07q-4.47-13.42-7.9-23.21c-2.32-6.51-4.23-11.79-5.77-15.86q-1.5-5.88-4.64-8.86A11.05,11.05,0,0,0,153.56,235.83Zm7.94,115.3.67-.3a25.86,25.86,0,0,0,3-2.64c.63-.67.85-1.06.74-1.21a.54.54,0,0,0-.48-.22,1.14,1.14,0,0,0-.63.22,31.91,31.91,0,0,0-3.53,3c-.69.71-1,1.16-.88,1.3Zm11.25,0,.67-.45a7.1,7.1,0,0,0,1.14-2.66,1.91,1.91,0,0,0-.7-1.78l-.44-.15a.52.52,0,0,0-.48-.34,1,1,0,0,0-.63.19,2.53,2.53,0,0,1,.52,1.71,12.9,12.9,0,0,1-.52,3Zm13.9-4.89a2,2,0,0,0,1.32,0l-.22-.59-2-1.78a1.37,1.37,0,0,0-.66-.24,2.25,2.25,0,0,0-.67.09l.23.6Z"/><path class="cls-2" d="M227.75,348.31a6.16,6.16,0,0,0,1.29,1.34,2.17,2.17,0,0,0,1.14.44l.88-.3c0-.07-.11-.22-.37-.47s-.62-.56-1.18-1v-1.48h-1.32ZM222,346.24c-.23,0-.48.17-.81.54a7.73,7.73,0,0,0-1,1.53,2.8,2.8,0,0,0,.33,1.31,3.83,3.83,0,0,0,1,1.21l.89-.3-.44-1.92.44-2.07a.45.45,0,0,1-.3-.1A.2.2,0,0,1,222,346.24Zm13-.59a1.29,1.29,0,0,0-.7.12.6.6,0,0,0-.18.47,5.12,5.12,0,0,0,.95.86,1.48,1.48,0,0,0,.81.33l.88-.3a5.12,5.12,0,0,0-.95-1.14A1.6,1.6,0,0,0,235,345.65Zm-17.65-.59a1.81,1.81,0,0,0-1.17.86,8.54,8.54,0,0,0-1,2.1v1.48h1.32v-1.19a2.09,2.09,0,0,1,.48-1.23,8.37,8.37,0,0,1,1.29-1.43v-.59Zm25.37-5.18c0-.15.15-.3.48-.45a7.11,7.11,0,0,1,1.28-.44v1.18h-1.76Zm-6.84-.6a1.59,1.59,0,0,0,.48-.09l.85-.2h.88c0,.15-.15.29-.48.44a7.15,7.15,0,0,1-1.29.45h-.44Zm-2.65.3a.4.4,0,0,1,.19-.34,2,2,0,0,1,.7-.25H235c0,.15-.15.29-.48.44a6.88,6.88,0,0,1-1.29.45Zm-3.08,0c0-.15.18-.3.51-.44a9.65,9.65,0,0,1,1.69-.45v.3c0,.15-.14.29-.48.44a7,7,0,0,1-1.28.45h-.44Zm-3.31,0c0-.44.88-.74,2.64-.89h.23v.59l-2,.3Zm-3.09,0a1.78,1.78,0,0,1,1.32-.89h1.33c0,.15-.15.3-.48.45a8.55,8.55,0,0,1-1.29.44Zm-9-1.18a1.64,1.64,0,0,0,.47-.1l.85-.2c1,0,2,0,3,.12a26,26,0,0,1,3,.47c.33-.07.58-.15.8-.19a1.58,1.58,0,0,1,.52-.1h.44a1.37,1.37,0,0,1-.7.59,11.1,11.1,0,0,1-1.51.59l-2.42-.3h-4.41ZM213,322v2.66a11.63,11.63,0,0,1-.15,1.75c-.07.74-.18,1.58-.29,2.54h-.44l-.44-3v-2.51l.44-1.48Zm-1.32-2.07a4,4,0,0,1,.66-.55,1.38,1.38,0,0,1,.66-.19v.44c0,1-.44,1.63-1.32,1.78Zm0-1.93a1.78,1.78,0,0,1,1.32-.89V318a1.78,1.78,0,0,1-1.32.89Zm0-1.77a1.75,1.75,0,0,1,1.32-.89,2.38,2.38,0,0,1-.48,1.13,1.17,1.17,0,0,1-.84.35Zm-.44-1.19a1.55,1.55,0,0,1,.47-1.23,2.7,2.7,0,0,1,1.29-.69v1a1.75,1.75,0,0,1-1.32.89Zm0-2.22a1.82,1.82,0,0,1,.47-1.31,2.41,2.41,0,0,1,1.29-.76v1.78a1.59,1.59,0,0,0-.48.09l-.84.2Zm-1.77-73.11a2.49,2.49,0,0,0,.19.79,8.93,8.93,0,0,0,.47,1.13,3.81,3.81,0,0,1-.66,1.78l.66,1.33q.51,17.43,1.18,33.3T213,308.2a10.82,10.82,0,0,1-1.58,1.88,2.29,2.29,0,0,1-1.29.64q-.66-27-1-44.48t-.33-25.38v-1.18Zm3.09-1.48c.77.07,1.36.14,1.8.19s.74.1.85.1c1,0,1.76.62,2.28,1.88a14.23,14.23,0,0,1,.81,5.52c-.12.22-.23.4-.3.55a.62.62,0,0,0-.15.34l.45,1.48-.45,2.67a.45.45,0,0,1,.3.09.22.22,0,0,1,.15.2.42.42,0,0,0-.3.1.21.21,0,0,0-.15.2v1l.45.6h-.45a2.22,2.22,0,0,0,.15.91,1.81,1.81,0,0,0,.3.57l-.45,4.58q-.16,18.77-.29,32.32t-.15,22a4,4,0,0,0,.15,1c.07.42.18.89.29,1.41a.33.33,0,0,0-.29.22,1.13,1.13,0,0,0-.15.67q1.34,14.86,2.65,17.31l4.19-.29h2.21a79.19,79.19,0,0,1,8.42.32c1.87.2,2.83.49,2.83.86a2.58,2.58,0,0,0,.84-.1,5.89,5.89,0,0,0,.7-.19c1.21.22,2.35.37,3.46.47s2.17.12,3.16.12h.44a1.8,1.8,0,0,1-.15.79,4.19,4.19,0,0,1-.29.69c0,.29-.37.52-1.14.66a17.69,17.69,0,0,1-3.27.23H241l-2.42-.3-.85.2a1.64,1.64,0,0,1-.47.1,1.84,1.84,0,0,1-.52-.1c-.22-.05-.48-.13-.81-.2l-.88.3-.88-.2a3.41,3.41,0,0,0-.89-.1h-2.2c-1.1,0-2.94-.05-5.48-.12s-5.88-.25-10-.47c-.22,0-.44-.32-.66-1a21.35,21.35,0,0,1-.67-2.86q.68-4.11,1-6.81a36.82,36.82,0,0,0,.33-4.14V316.2q-1.49-23.65-2.61-42.73t-1.8-33.65a1.07,1.07,0,0,1,.33-.69A7.8,7.8,0,0,1,212.53,238.2Zm-6,1.33,3.53,98.57a2,2,0,0,1,1.36.67,11,11,0,0,1,1.51,2c7.94.3,14.56.52,19.82.67s9.19.22,11.72.22q3,0,4.64-7.55l-.44-.59a10.82,10.82,0,0,0-1.33.1l-2,.2c-4.75-.59-8.94-1-12.54-1.33s-6.65-.45-9.08-.45l-.88.3c0-.08-.08-.15-.19-.2a1.64,1.64,0,0,0-.69-.1c-.67-.37-1.22-3-1.62-7.94s-.7-12.11-.81-21.51l.44-1.92-.44-1.48q.66-19.77.66-51.51c0-1.48-.07-2.94-.18-4.32s-.26-2.71-.48-4c0-.89-.63-1.6-1.84-2.1a17.61,17.61,0,0,0-5.66-.86Zm22.5-9.77a17,17,0,0,0-2.68,1.36c-.55.37-.85.71-.85,1l.45.59c1.21-.74,2.13-1.31,2.79-1.68s1-.61,1-.69a.37.37,0,0,0-.15-.34A1.48,1.48,0,0,0,229.07,229.76Zm-6.61-1.48a2.07,2.07,0,0,0-1,.69,11.27,11.27,0,0,0-1.18,1.68l.44.59a1.45,1.45,0,0,0,1.18-.67,7,7,0,0,0,1-2v-.3Zm-8.61-1.18a9.15,9.15,0,0,0,.52,2.46c.22.52.48.79.81.79a1.66,1.66,0,0,0,.7-.12.6.6,0,0,0,.18-.47v-.59q0-2-1.32-2.22Z"/><path class="cls-2" d="M281,348.31a6.16,6.16,0,0,0,1.29,1.34,2.17,2.17,0,0,0,1.14.44l.88-.3c0-.07-.11-.22-.37-.47s-.62-.56-1.17-1v-1.48h-1.33Zm-5.73-2.07c-.22,0-.48.17-.81.54a7.73,7.73,0,0,0-1,1.53,2.8,2.8,0,0,0,.33,1.31,3.74,3.74,0,0,0,1,1.21l.88-.3-.44-1.92.44-2.07a.45.45,0,0,1-.3-.1A.2.2,0,0,1,275.25,346.24Zm13-.59a1.29,1.29,0,0,0-.7.12.6.6,0,0,0-.18.47,5.12,5.12,0,0,0,.95.86,1.51,1.51,0,0,0,.81.33l.89-.3a5.4,5.4,0,0,0-1-1.14A1.6,1.6,0,0,0,288.26,345.65Zm-17.65-.59a1.81,1.81,0,0,0-1.17.86,8.54,8.54,0,0,0-1,2.1v1.48h1.32v-1.19a2.09,2.09,0,0,1,.48-1.23,8.82,8.82,0,0,1,1.29-1.43v-.59ZM296,339.88c0-.15.15-.3.48-.45a7,7,0,0,1,1.29-.44v1.18H296Zm-6.84-.6a1.59,1.59,0,0,0,.48-.09l.85-.2h.88c0,.15-.15.29-.48.44a6.88,6.88,0,0,1-1.29.45h-.44Zm-2.64.3a.39.39,0,0,1,.18-.34,2,2,0,0,1,.7-.25h.88c0,.15-.15.29-.48.44a7,7,0,0,1-1.28.45Zm-3.09,0c0-.15.18-.3.51-.44a9.65,9.65,0,0,1,1.69-.45v.3c0,.15-.14.29-.47.44a7.45,7.45,0,0,1-1.29.45h-.44Zm-3.31,0c0-.44.88-.74,2.65-.89H283v.59l-2,.3Zm-3.09,0a1.78,1.78,0,0,1,1.32-.89h1.33c0,.15-.15.3-.48.45a8.17,8.17,0,0,1-1.29.44Zm-9-1.18a1.75,1.75,0,0,0,.48-.1l.84-.2c1,0,2,0,3,.12a26,26,0,0,1,3,.47c.33-.07.59-.15.81-.19a1.53,1.53,0,0,1,.51-.1H277a1.37,1.37,0,0,1-.7.59,11.41,11.41,0,0,1-1.5.59l-2.43-.3H268ZM266.2,322v2.66a11.42,11.42,0,0,1-.14,1.75c-.08.74-.19,1.58-.3,2.54h-.44l-.44-3v-2.51l.44-1.48Zm-1.32-2.07a4,4,0,0,1,.66-.55,1.38,1.38,0,0,1,.66-.19v.44c0,1-.44,1.63-1.32,1.78Zm0-1.93a1.78,1.78,0,0,1,1.32-.89V318a1.78,1.78,0,0,1-1.32.89Zm0-1.77a1.75,1.75,0,0,1,1.32-.89,2.39,2.39,0,0,1-.47,1.13,1.21,1.21,0,0,1-.85.35Zm-.44-1.19a1.56,1.56,0,0,1,.48-1.23,2.62,2.62,0,0,1,1.28-.69v1a1.75,1.75,0,0,1-1.32.89Zm0-2.22a1.83,1.83,0,0,1,.48-1.31,2.35,2.35,0,0,1,1.28-.76v1.78a1.54,1.54,0,0,0-.47.09l-.85.2Zm-1.77-73.11a2.49,2.49,0,0,0,.19.79,7.85,7.85,0,0,0,.48,1.13,3.85,3.85,0,0,1-.67,1.78l.67,1.33q.5,17.43,1.17,33.3t1.69,30.19a10.82,10.82,0,0,1-1.58,1.88,2.29,2.29,0,0,1-1.28.64q-.68-27-1-44.48T262,240.86v-1.18Zm3.09-1.48c.77.07,1.36.14,1.8.19s.74.1.85.1c1,0,1.76.62,2.28,1.88a14.23,14.23,0,0,1,.81,5.52c-.11.22-.22.4-.3.55a.59.59,0,0,0-.14.34l.44,1.48-.44,2.67a.4.4,0,0,1,.29.09.22.22,0,0,1,.15.2.45.45,0,0,0-.3.1.2.2,0,0,0-.14.2v1l.44.6h-.44a2.23,2.23,0,0,0,.14.91,2.34,2.34,0,0,0,.3.57l-.44,4.58q-.17,18.77-.3,32.32t-.15,22a4,4,0,0,0,.15,1c.08.42.19.89.3,1.41a.35.35,0,0,0-.3.22,1.13,1.13,0,0,0-.15.67q1.33,14.86,2.65,17.31l4.19-.29h2.21a79.19,79.19,0,0,1,8.42.32c1.87.2,2.83.49,2.83.86a2.58,2.58,0,0,0,.84-.1,5.89,5.89,0,0,0,.7-.19c1.22.22,2.35.37,3.46.47s2.17.12,3.16.12h.44a1.8,1.8,0,0,1-.15.79,4.19,4.19,0,0,1-.29.69c0,.29-.37.52-1.14.66a17.69,17.69,0,0,1-3.27.23h-.44l-2.43-.3-.85.2a1.64,1.64,0,0,1-.47.1,1.9,1.9,0,0,1-.52-.1c-.22-.05-.48-.13-.81-.2l-.88.3-.88-.2a3.38,3.38,0,0,0-.88-.1h-2.21c-1.1,0-2.94-.05-5.48-.12s-5.88-.25-10-.47c-.22,0-.44-.32-.66-1a20.14,20.14,0,0,1-.66-2.86q.66-4.11,1-6.81a36.82,36.82,0,0,0,.33-4.14V316.2q-1.49-23.65-2.61-42.73t-1.8-33.65a1.07,1.07,0,0,1,.33-.69A7.8,7.8,0,0,1,265.76,238.2Zm-5.95,1.33,3.53,98.57a2,2,0,0,1,1.36.67,11.54,11.54,0,0,1,1.5,2c7.94.3,14.56.52,19.82.67s9.19.22,11.73.22q3,0,4.63-7.55l-.44-.59a11,11,0,0,0-1.33.1l-2,.2c-4.74-.59-8.94-1-12.54-1.33S279.44,332,277,332l-.88.3c0-.08-.07-.15-.18-.2a1.72,1.72,0,0,0-.7-.1c-.66-.37-1.22-3-1.62-7.94s-.7-12.11-.81-21.51l.44-1.92-.44-1.48q.66-19.77.66-51.51c0-1.48-.07-2.94-.18-4.32s-.26-2.71-.48-4c0-.89-.62-1.6-1.84-2.1a17.61,17.61,0,0,0-5.66-.86Zm22.5-9.77a16.73,16.73,0,0,0-2.69,1.36c-.55.37-.84.71-.84,1l.44.59c1.21-.74,2.13-1.31,2.79-1.68s1-.61,1-.69a.37.37,0,0,0-.15-.34A1.42,1.42,0,0,0,282.31,229.76Zm-6.62-1.48a2.12,2.12,0,0,0-1,.69,11.27,11.27,0,0,0-1.18,1.68l.44.59a1.45,1.45,0,0,0,1.18-.67,7,7,0,0,0,1-2v-.3Zm-8.6-1.18a9.22,9.22,0,0,0,.51,2.46c.22.52.48.79.81.79a1.66,1.66,0,0,0,.7-.12.6.6,0,0,0,.18-.47v-.59q0-2-1.32-2.22Z"/><path class="cls-2" d="M339.07,349.5q0,1.11,3.31,4.88l.88-.29c0-.45-1.11-2.08-3.31-4.89Zm-4.86,1.63v.59a4.34,4.34,0,0,0,.19,1.23,3.23,3.23,0,0,0,.7,1.14l.88-.3a5.09,5.09,0,0,0-.15-1.23c-.07-.45-.18-.92-.29-1.43l.44-1.63v-.3h-1.33Zm9.05-2.82c.11.37.59.82,1.43,1.34a36.61,36.61,0,0,0,3.42,1.77H349v-.59a38.79,38.79,0,0,0-3.42-2.12,6.64,6.64,0,0,0-1.43-.69Zm-11.69-.88a5.73,5.73,0,0,0-1.33,1.13c-.77.74-1.87,1.9-3.31,3.45v.6h.45a8.54,8.54,0,0,0,2.13-1.53,39.17,39.17,0,0,0,2.94-3.06v-.59Zm8.82-7.85h2v.3L330.9,342c-.11,0-.29-.12-.51-.35a8.54,8.54,0,0,1-.81-1.13Zm8.16-.59v.29h-2.2V339Zm2.87-.59h2.2v.29c-.11,0-.55.05-1.28.13s-1.69.24-2.91.46v-.59Zm2.2-5.18a6.16,6.16,0,0,1,1.7.34c.33.15.51.32.51.54v3.56a6.49,6.49,0,0,1-1.69-.35c-.33-.15-.52-.32-.52-.54Zm-22.05-19.84a2.86,2.86,0,0,1,1,.32c.22.13.33.28.33.42v.6H332a2.74,2.74,0,0,0-.66-1.34Zm-2-.59a27.05,27.05,0,0,1,2.46,2.79,3.51,3.51,0,0,1,.85,1.8c0,1.41,0,3.08.15,5s.18,4.09.29,6.53c-.11,1.11-.22,2.1-.29,3a17.45,17.45,0,0,0-.15,2.19,2.53,2.53,0,0,1-1.65-.69,7.33,7.33,0,0,1-1.66-2.12c.11-1.11.22-2.12.3-3a20.17,20.17,0,0,0,.14-2.46v-8.14a14.81,14.81,0,0,0-.14-2C329.8,314.86,329.69,313.9,329.58,312.79Zm.44-3.25a3.25,3.25,0,0,0,.52,1c.33.5.81,1.16,1.47,2v.29h-.66a1.6,1.6,0,0,1-.81-.34,4.87,4.87,0,0,1-1-1.14v-1.77Zm0-6.66a10.74,10.74,0,0,1,1.36,3.23,41.5,41.5,0,0,1,1.07,4.91h-.88c-.78-1.26-1.36-2.22-1.8-2.89a7.38,7.38,0,0,1-.63-1.11l.44-1.78v-1.48l-.44-.59Zm-.88-2.82a5.88,5.88,0,0,1,1.69,1.36,2.43,2.43,0,0,1,.52,1.46h-.89c-.44-.74-.77-1.34-1-1.76a3.59,3.59,0,0,1-.33-.76Zm-.44-5a11.65,11.65,0,0,0,2.65,1.78,1.31,1.31,0,0,1-.15.64,1.65,1.65,0,0,1-.3.54l.67.89V301a6.84,6.84,0,0,1-2.17-2.1,4.21,4.21,0,0,1-.7-2.34Zm0-4.29c1.76,2.51,2.65,4.14,2.65,4.88v.3a7.64,7.64,0,0,1-2.69-2.32,5.25,5.25,0,0,1-.84-2.86Zm0-2.22a2.05,2.05,0,0,1,1.29.62,1.78,1.78,0,0,1,.47,1.3v1.19c-.33,0-.69-.27-1.1-.79a7.73,7.73,0,0,1-1.1-2.32Zm0-4.44c.22,0,.48.34.81,1a20.74,20.74,0,0,1,.95,3.13H330c-.44,0-.81-.34-1.14-1a10.59,10.59,0,0,1-.62-3.13Zm13.68,0a.42.42,0,0,1,.18-.35,2.07,2.07,0,0,1,.7-.24v.59Zm-6.4-.59,5.07.29v.3c-.77,0-1.76,0-3,.1l-4.3.19a.89.89,0,0,1-.51-.12,1.14,1.14,0,0,1-.37-.47v-.29Zm7.28-3.7a10.55,10.55,0,0,0,1.47.86,3,3,0,0,0,1.17.32v1.92h-.44c-1.76-.74-2.64-1.18-2.64-1.33v-1.77ZM329.14,274v3.11l.88.89v.59h-.44l-2.2-.29V274Zm-2.21-3a1.41,1.41,0,0,1,.85.45,13.38,13.38,0,0,1,1.36,1.33v.89h-.44a3.33,3.33,0,0,1-1.69-1,2.72,2.72,0,0,1-.52-1.66Zm-.44-4.29a2,2,0,0,1,1.84,1.14,8.18,8.18,0,0,1,.81,3.45h-.88a7.61,7.61,0,0,1-1.44-1.87,6.61,6.61,0,0,1-.77-2.42.45.45,0,0,0,.3-.1A.2.2,0,0,0,326.49,266.76Zm0-3.7a3.79,3.79,0,0,1,1.18.57,10.14,10.14,0,0,1,1.47,1.36v2.07h-.44a9.36,9.36,0,0,1-1.69-.64c-.33-.23-.52-.4-.52-.55Zm0-5.77a8.8,8.8,0,0,1,2,.32c.44.12.66.27.66.42v1.48a1.69,1.69,0,0,1-.48-.1l-.84-.2h-.44l1.76,1.48v2.67a3.65,3.65,0,0,1-2.65-1.78Zm0-3c1.77,0,2.65.59,2.65,1.78V257c-1.54,0-2.43-.29-2.65-.88Zm0-2.52a4.23,4.23,0,0,1,1.51.25,2.68,2.68,0,0,1,1.14.79V254c-1.54,0-2.43-.29-2.65-.88Zm.44-6.36a2.49,2.49,0,0,1,1,.32c.22.12.33.27.33.42v2.07l.44,3.55a11.15,11.15,0,0,1-1.69-.76c-.33-.2-.52-.35-.52-.42v-5.18Zm5.52-.89c2.43,0,4.74-.05,7-.12s4.38-.25,6.47-.47l.89.89H345a18.92,18.92,0,0,0-2,.1c-.78,0-1.66.12-2.65.19l-.88-.29a8.41,8.41,0,0,1-2.1.47c-.84.07-1.76.12-2.76.12H330v-.59l2-.3Zm14.34-3.85c.88.3,1.32.59,1.32.89v1.78c-.88-.3-1.32-.6-1.32-.89Zm-30.22.3c5-.52,9.74-.94,14.37-1.21s9-.42,13.2-.42h.44a10.16,10.16,0,0,1-.48,2.32,1.81,1.81,0,0,1-.84,1.08c-5.74.23-10.15.37-13.24.47s-4.85.13-5.29.13l-.88.29c.11,1,.22,1.78.29,2.47a12,12,0,0,1,.15,1.83v3.84c0,2.08,0,4.52-.15,7.35s-.18,6-.29,9.67c.33,2.89.66,5.23.95,7s.59,3.11.81,3.93a28.83,28.83,0,0,1,3.68.32c.77.15,1.17.34,1.17.56l9.05-.88H340a.76.76,0,0,1,.51.12.59.59,0,0,1,.15.47v1.77c-1.43,0-3.31,0-5.59.1l-8.09.2-1.32.44c.33,1,.55,1.73.7,2.32a8.92,8.92,0,0,1,.18,1.24,1.11,1.11,0,0,1-.33.86,1.34,1.34,0,0,1-1,.32q1.65,10,2.65,33.75V322c0,1.11,0,2.51-.15,4.19s-.18,3.65-.29,5.87c2,2.22,3.3,3.41,4,3.55h7.28q3.14-.56,6.17-1t6.18-.76l.44,1.48v.29a1.09,1.09,0,0,1-.15.6c-.07.17-.18.37-.29.59a75.11,75.11,0,0,1-8,1.11c-3.71.37-8.46.74-14.3,1.11l-4-.3a.21.21,0,0,1-.15.2.41.41,0,0,1-.29.1v-1.33q-1.5-7.44-2.17-11.45c-.48-2.66-.7-4.17-.7-4.54q-.5-12.65-1.1-20.55c-.41-5.25-.77-8.9-1.11-11v-3.41c0-.52-.22-3.67-.66-9.42s-1.1-14.11-2-25.06Zm29.78-3.41q-10.26,0-29.78,1.78h-.44a10.26,10.26,0,0,0-1.29.57c-.33.17-.48.32-.48.47v11.1q4,52.6,4,60.38a82.49,82.49,0,0,0,1,10.86c.66,4.46,1.58,9.79,2.79,15.93a1.68,1.68,0,0,0,.81,1.53,3.94,3.94,0,0,0,2.28.54,7.71,7.71,0,0,0,2.61,2,7.42,7.42,0,0,0,3.12.67c3.2-.74,5.63-1.26,7.25-1.6a12.36,12.36,0,0,0,2.46-.62q8.77-.68,13.09-1.19c2.9-.34,4.34-.61,4.34-.83v-2.45l.44-2.93a13.6,13.6,0,0,0-1.69-.89c-.78-.37-1.84-.81-3.17-1.33h-.44c-.66.22-1.32.39-1.95.54a10.2,10.2,0,0,1-1.8.2c-.11,0-1.14.15-3.12.44l-8.57,1.33H335.1v-3.4l.44-1.48a.41.41,0,0,1-.3-.1.2.2,0,0,1-.14-.2l.44-.59a2.12,2.12,0,0,1-.3-.54,1.3,1.3,0,0,1-.14-.64V316.79l-2.65-24.87.44-.59a2.44,2.44,0,0,0-.18-.79,4.83,4.83,0,0,0-.7-1,4.48,4.48,0,0,1,.66-.54,1.4,1.4,0,0,1,.66-.2L332,287v-.3a25.8,25.8,0,0,0,3-.54,9.82,9.82,0,0,0,1.84-.64h4.63c1.44-.22,2.61-.37,3.53-.47a20.15,20.15,0,0,1,2.21-.12,8.75,8.75,0,0,1,.84-2.1,3.78,3.78,0,0,1,1.36-1.31v-.29c-2.09-1-3.64-1.71-4.67-2.25s-1.5-.86-1.5-1c-.44,0-1.55.07-3.35.22s-4.26.37-7.46.67H332v-1.78l-1.11-1v-6.66c0-1.93,0-3.9.15-5.9s.19-4.09.3-6.24c-.11-2-.3-3.85-.52-5.53a37,37,0,0,0-.81-4.39,7.51,7.51,0,0,0,1.14-.12,6.14,6.14,0,0,0,1.29-.47c5.4,0,9.45-.12,12.09-.34s4-.55,4-1a1.64,1.64,0,0,0,1.51-1,8.37,8.37,0,0,0,.48-3.14Z"/><text class="cls-4" transform="translate(121.26 389.5)">Woman Code</text></g></g></svg>