<svg xmlns="http://www.w3.org/2000/svg" viewBox="0 0 740.89 216.42"><defs><style>.cls-1{fill:#adcf00;}.cls-1,.cls-2{fill-rule:evenodd;}.cls-2,.cls-3{fill:#fff;}</style></defs><title>woman-code-horizontal4</title><g id="Capa_2" data-name="Capa 2"><g id="Capa_1-2" data-name="Capa 1"><polygon class="cls-1" points="370.58 216.42 0.28 216.42 0.28 0 740.88 0 740.88 216.42 370.58 216.42"/><path d="M356.41,120.28a22.67,22.67,0,0,0-3.23-2.48,30.71,30.71,0,0,0,1.08-3.37,41.26,41.26,0,0,0,.84-4.38V106.8c0-2.14.08-4.27.23-6.35s.37-4.12.66-6.11l-.29-1.25v-6.6c0-.78-.05-1.57-.13-2.37a17.28,17.28,0,0,0-.47-2.45l.6-.2-.3-2.1V73.61A28.5,28.5,0,0,0,355,69.3c-.22-1-.47-1.5-.77-1.55a50.14,50.14,0,0,0-1.33-7.47,7.68,7.68,0,0,0-1.78-3.63,4.41,4.41,0,0,0-2.7-2.37,21.84,21.84,0,0,0-6-1.29,47.59,47.59,0,0,0-5.15.55c-1.11.21-1.68.44-1.68.7A7.4,7.4,0,0,0,329.88,62a131.46,131.46,0,0,0-2.34,14.14q-.93,7.77-1.36,17v10.47a29.45,29.45,0,0,0,.54,5.62,39.34,39.34,0,0,0,1.53,5.79,16.58,16.58,0,0,0,2.8,5,11,11,0,0,0,3.88,3,17.14,17.14,0,0,1,2.79.52c.62.19.92.37.92.53a20.76,20.76,0,0,0,3.9-.54c1.63-.35,3.59-.88,5.89-1.56h.29a17.89,17.89,0,0,0,2.2,2.2c1,.89,2.33,1.94,3.89,3.14h.89c.52-.26.91-.47,1.21-.61a1.65,1.65,0,0,1,.57-.23.13.13,0,0,0,.1.14.32.32,0,0,0,.19.07l3.42-1.78C359.33,123,357.72,121.46,356.41,120.28Zm-10.08-9.86a.75.75,0,0,0-.13.47c-.22,0-.59-.3-1.09-.87a22.69,22.69,0,0,1-1.87-2.59,10,10,0,0,0-1.56.3l-3.34.85a.36.36,0,0,0,.1.23l.2.4-.6,1.47v.21c1.71,2,3,3.51,3.89,4.55a11.31,11.31,0,0,1,1.31,1.73H341.6l-2.67-2.2q-2.9-4.25-4-12.25c.22-7.12.39-12.63.54-16.56s.2-6.26.2-7a11.64,11.64,0,0,1-.12-1.69c0-.66,0-1.4,0-2.18.15-1.83.3-3.21.42-4.16a4.1,4.1,0,0,1,.32-1.39,32.16,32.16,0,0,1,.57-6.3,16.68,16.68,0,0,1,1.81-4.91h.89a3.1,3.1,0,0,1,1.23.23,4.67,4.67,0,0,1,1.14.61c.52,0,1.14,2.08,1.88,6.22s1.53,10.38,2.42,18.7q0,2.28.1,7.79c.05,3.68.13,8.44.2,14.31.07,1.1.15,2,.2,2.6s.1,1.06.1,1.27A.58.58,0,0,0,346.33,110.42Z"/><path d="M393.5,108.58c-.37,4.56-1.33,8.12-2.92,10.72a10.25,10.25,0,0,1-6.57,4.89,3.1,3.1,0,0,1-1.78.31h-.6a20.56,20.56,0,0,1-8-2.51,8.46,8.46,0,0,1-2.87-2.76,13.76,13.76,0,0,1-1.73-4.57,10.27,10.27,0,0,1-2.47-5.26,34.08,34.08,0,0,1-.35-8.56c0-4-.05-8.33-.12-12.92s-.25-9.44-.47-14.62q-.11-10.76-.54-16.13c-.28-3.57-.65-5.39-1.09-5.44l.15-1.36.59-.63,1.48.31,3.56.11a21.57,21.57,0,0,0,1.88,1.32,4.25,4.25,0,0,0,1.09.56l-.44,1.47q.1,11.85.42,19.58t.76,11.41c-.07,1.73,0,3.93.15,6.62s.52,5.89,1,9.61l.74,9.84-.29,3.88a3.7,3.7,0,0,0,1.5,1,9,9,0,0,0,2.2.4l1.64.1a5,5,0,0,0,1.87-1.11,7.5,7.5,0,0,0,1.54-2.13l-.15-.73q.1-8.81,0-13.76a54.14,54.14,0,0,0-.32-6.14q.12-11.46.35-21.18t.54-17.67a1.22,1.22,0,0,0,.2-.47,2.51,2.51,0,0,0,.1-.78,2.78,2.78,0,0,1-.45-1.26l.6-.21a1.35,1.35,0,0,1,.47.18.3.3,0,0,1,.12.24c1-.16,1.93-.26,2.7-.33s1.38-.09,1.9-.09c0,.16.15.35.42.58s.69.52,1.21.89c.37.05.6,2.25.62,6.61s-.1,10.93-.47,19.67a90.13,90.13,0,0,0,0,11.48,136.45,136.45,0,0,0,1.58,13.75c.08,1.52.13,2.73.13,3.6S393.5,108.43,393.5,108.58Z"/><path d="M429.08,118.11l-.3,2.08v1.73c0,.15-1,.35-2.92.59s-4.87.52-8.8.84a7.66,7.66,0,0,1-1.65.43c-1.09.25-2.72.62-4.88,1.14a4.92,4.92,0,0,1-2.1-.47,5.41,5.41,0,0,1-1.75-1.42,2.58,2.58,0,0,1-1.54-.38,1.2,1.2,0,0,1-.54-1.08c-.81-4.35-1.43-8.12-1.88-11.28a61.7,61.7,0,0,1-.64-7.67q0-5.5-2.67-42.72V52c0-.1.1-.21.32-.33a7.72,7.72,0,0,1,.87-.4h.29q13.13-1.26,20-1.26l2.82,2.62a6.32,6.32,0,0,1-.32,2.22,1.1,1.1,0,0,1-1,.71c0,.32-.89.54-2.69.7s-4.5.25-8.14.25a4.2,4.2,0,0,1-.86.33,4.79,4.79,0,0,1-.77.08,28.16,28.16,0,0,1,.55,3.11c.14,1.19.27,2.5.34,3.91s-.15,3-.2,4.41-.1,2.81-.1,4.18v4.71l.75.73v1.26h.29c2.15-.21,3.84-.37,5-.47s2-.16,2.25-.16c0,.1.35.35,1,.71s1.73.91,3.14,1.59v.21a2.56,2.56,0,0,0-.92.93,6.44,6.44,0,0,0-.57,1.48,13.19,13.19,0,0,0-1.48.09c-.62.07-1.41.17-2.37.33h-3.12a6.12,6.12,0,0,1-1.24.45,17.35,17.35,0,0,1-2,.39V85l.89,1.25a.88.88,0,0,0-.45.14,2.62,2.62,0,0,0-.44.39,3.25,3.25,0,0,1,.47.69,2,2,0,0,1,.12.56l-.3.42,1.78,17.59v7.33a1,1,0,0,0,.1.45,1.58,1.58,0,0,0,.2.39l-.3.42a.17.17,0,0,0,.1.14.29.29,0,0,0,.2.07l-.3,1v2.41h1.78l5.76-.94c1.34-.21,2-.31,2.11-.31a7,7,0,0,0,1.21-.14c.42-.11.86-.23,1.31-.39h.3c.89.37,1.6.68,2.12.94A10,10,0,0,1,429.08,118.11Z"/><polygon id="White_block" data-name="White block" class="cls-2" points="370.34 197.25 0 197.25 0 158.39 740.88 158.39 740.88 197.25 370.34 197.25"/><g id="woman-code"><path d="M263.48,167.7h4.3l3.33,14.68,4.1-14.68h3.64L283,182.38l3.29-14.68h4.31l-5.18,23h-4.2L277,175.83l-4.16,14.86h-4.16Z"/><path d="M301.54,173.25a9,9,0,0,1,4.52,1.2,8.85,8.85,0,0,1,4.49,7.72,9,9,0,0,1-1.19,4.5A8.7,8.7,0,0,1,306.1,190a9.08,9.08,0,0,1-4.55,1.18,8.45,8.45,0,0,1-6.24-2.61,8.95,8.95,0,0,1,6.23-15.27Zm.07,4a4.38,4.38,0,0,0-3.31,1.38,4.88,4.88,0,0,0-1.33,3.54,5,5,0,0,0,1.31,3.59,4.35,4.35,0,0,0,3.31,1.38,4.42,4.42,0,0,0,3.33-1.39,5.5,5.5,0,0,0,0-7.14A4.42,4.42,0,0,0,301.61,177.27Z"/><path d="M314,173.69h4.27v1.95a7.39,7.39,0,0,1,2.43-1.8,7.19,7.19,0,0,1,2.92-.59,5.4,5.4,0,0,1,2.87.78,5.61,5.61,0,0,1,2.07,2.28,6.93,6.93,0,0,1,2.49-2.28,6.82,6.82,0,0,1,3.23-.78,6,6,0,0,1,3.19.84,4.89,4.89,0,0,1,2,2.21,11.78,11.78,0,0,1,.6,4.42v10h-4.3v-8.63a7.48,7.48,0,0,0-.71-3.91,2.47,2.47,0,0,0-2.16-1,3.24,3.24,0,0,0-2,.62,3.67,3.67,0,0,0-1.29,1.73,10.74,10.74,0,0,0-.42,3.54v7.67h-4.3v-8.24a11.32,11.32,0,0,0-.34-3.3,2.94,2.94,0,0,0-1-1.52,2.6,2.6,0,0,0-1.62-.5,3.24,3.24,0,0,0-1.94.63,3.77,3.77,0,0,0-1.3,1.77,10.91,10.91,0,0,0-.43,3.6v7.56H314Z"/><path d="M356.66,173.69h4.27v17h-4.27v-1.8a8.46,8.46,0,0,1-2.5,1.71,7,7,0,0,1-2.73.53,7.57,7.57,0,0,1-5.69-2.56,8.88,8.88,0,0,1-2.41-6.35,9.11,9.11,0,0,1,2.33-6.45,7.4,7.4,0,0,1,5.65-2.52,7.11,7.11,0,0,1,2.87.58,7.8,7.8,0,0,1,2.48,1.73Zm-4.48,3.5a4.29,4.29,0,0,0-3.29,1.4,5,5,0,0,0-1.31,3.58,5.14,5.14,0,0,0,1.33,3.63,4.31,4.31,0,0,0,3.28,1.42,4.39,4.39,0,0,0,3.33-1.4,5.07,5.07,0,0,0,1.33-3.66,5,5,0,0,0-1.33-3.6A4.45,4.45,0,0,0,352.18,177.19Z"/><path d="M365.24,173.69h4.26v1.74a10.27,10.27,0,0,1,2.63-1.7,6.36,6.36,0,0,1,2.41-.48,5.81,5.81,0,0,1,4.29,1.77,6.05,6.05,0,0,1,1.49,4.43v11.24H376.1v-7.45a19,19,0,0,0-.27-4,2.8,2.8,0,0,0-1-1.52,2.64,2.64,0,0,0-1.67-.52A3.17,3.17,0,0,0,371,178a4.64,4.64,0,0,0-1.29,2.4,19.7,19.7,0,0,0-.19,3.45v6.82h-4.26Z"/><path d="M415,171.74l-3.06,2.92a9.47,9.47,0,0,0-7-3.3,7.68,7.68,0,0,0-7.8,7.8,8.18,8.18,0,0,0,1,4.09,7.16,7.16,0,0,0,2.82,2.8,8.76,8.76,0,0,0,7.54.3,12.46,12.46,0,0,0,3.47-2.59l3,3.1a16.41,16.41,0,0,1-4.82,3.44,13,13,0,0,1-5.17,1,11.92,11.92,0,0,1-8.77-3.4,11.76,11.76,0,0,1-3.42-8.71,11.89,11.89,0,0,1,1.56-6.11,11.52,11.52,0,0,1,4.45-4.3,12.57,12.57,0,0,1,6.24-1.62,13.27,13.27,0,0,1,10,4.61Z"/><path d="M426.33,173.25a9.06,9.06,0,0,1,4.53,1.2,8.85,8.85,0,0,1,4.49,7.72,8.87,8.87,0,0,1-1.2,4.5A8.6,8.6,0,0,1,430.9,190a9.1,9.1,0,0,1-4.55,1.18,8.45,8.45,0,0,1-6.24-2.61,8.95,8.95,0,0,1,6.22-15.27Zm.07,4a4.4,4.4,0,0,0-3.31,1.38,4.91,4.91,0,0,0-1.32,3.54,5,5,0,0,0,1.31,3.59,4.35,4.35,0,0,0,3.31,1.38,4.45,4.45,0,0,0,3.33-1.39,5.5,5.5,0,0,0,0-7.14A4.45,4.45,0,0,0,426.4,177.27Z"/><path d="M451.38,167.13h4.27v23.56h-4.27v-1.8a8.37,8.37,0,0,1-2.51,1.71,6.94,6.94,0,0,1-2.72.53,7.57,7.57,0,0,1-5.69-2.56,8.88,8.88,0,0,1-2.41-6.35,9.11,9.11,0,0,1,2.33-6.45,7.4,7.4,0,0,1,5.65-2.52,7.11,7.11,0,0,1,2.87.58,7.8,7.8,0,0,1,2.48,1.73Zm-4.48,10.06a4.29,4.29,0,0,0-3.29,1.4,5,5,0,0,0-1.31,3.58,5.14,5.14,0,0,0,1.33,3.63,4.31,4.31,0,0,0,3.28,1.42,4.39,4.39,0,0,0,3.33-1.4,5.07,5.07,0,0,0,1.33-3.66,5,5,0,0,0-1.33-3.6A4.45,4.45,0,0,0,446.9,177.19Z"/><path d="M477,183.42h-13.7a4.5,4.5,0,0,0,1.58,2.88,5,5,0,0,0,3.29,1.08,5.69,5.69,0,0,0,4.11-1.68l3.59,1.69a8.43,8.43,0,0,1-3.21,2.82,10.08,10.08,0,0,1-4.46.92,8.8,8.8,0,0,1-6.51-2.53,8.58,8.58,0,0,1-2.52-6.32,8.88,8.88,0,0,1,2.51-6.46,8.44,8.44,0,0,1,6.29-2.57,8.76,8.76,0,0,1,6.53,2.57,9.27,9.27,0,0,1,2.51,6.79Zm-4.27-3.36a4.27,4.27,0,0,0-1.66-2.31,4.88,4.88,0,0,0-2.89-.89,5.09,5.09,0,0,0-3.13,1,5.64,5.64,0,0,0-1.57,2.2Z"/></g><g id="D"><path d="M86.89,86.66c-.14-1.16-.34-1.72-.64-1.72C86,79,85.52,74.1,84.92,70.22a38.09,38.09,0,0,0-2.07-8.71,41.89,41.89,0,0,0-5.63-8.46,12.29,12.29,0,0,0-5.36-3.81,85.64,85.64,0,0,0-11.53-7.1A29.09,29.09,0,0,0,56,40.37h0a14.07,14.07,0,0,0-5-1.17h-2.2c-1.1,0-2.1,0-3,.12a9.75,9.75,0,0,0-2.23.44c-.1,0-.3.17-.6.52s-.7.82-1.2,1.46c.3,5,.6,10,1,14.81s.73,9.67,1.23,14.4v3l.4.56H44a1.31,1.31,0,0,0,.13.62,1.88,1.88,0,0,0,.27.51L44,76.72c0,3.74.13,7.74.43,12s.67,8.78,1.17,13.57a.38.38,0,0,0-.27.1.19.19,0,0,0-.13.19l.4,1.69v4.66q3.6,19.68,3.6,21.58V139a18.27,18.27,0,0,0,2.53,2.21,8.24,8.24,0,0,0,2.07,1.18l.45,0a6.36,6.36,0,0,0,1.23.61,9.14,9.14,0,0,0,1.67-.21c.73-.14,1.63-.35,2.73-.63q11.25-3.5,16.93-8.47t5.66-11.43A6.1,6.1,0,0,0,84,120.07a7,7,0,0,0,.46-2.54,55.94,55.94,0,0,0,2-7.94,41.33,41.33,0,0,0,.63-7V91.85C87.05,89.52,87,87.78,86.89,86.66Zm-35.62,32q-.75-10.05-1.34-16.22c-.4-4.12-.76-7-1.06-8.61,0-1.55,0-3.81-.14-6.8s-.16-6.68-.26-11.12l-2.4-33.59a22.14,22.14,0,0,1,4.8-.84h1.6a17.61,17.61,0,0,1,3.09.66q1.27.48,2.61,1.14a34.12,34.12,0,0,1,10,7.62,40.65,40.65,0,0,1,7.17,11.43c.4,4.3.8,8.11,1.23,11.38A81.88,81.88,0,0,0,78,81.94c0,3.25,0,7.48.13,12.68s.17,11.38.27,18.51c0,1.62-.9,3.88-2.67,6.77a96.16,96.16,0,0,1-7.93,10.58,42.58,42.58,0,0,1-8,5.39,25.37,25.37,0,0,1-6.3,2.22V133.2a45.17,45.17,0,0,0-.57-6.8C52.5,124,52,121.41,51.27,118.66Z"/><path d="M72,68.73c-.83-5.36-1.73-8.84-2.73-10.46a24.67,24.67,0,0,0-4.93-6.21,37.21,37.21,0,0,0-7.67-5.36H56c-.35-.21-.7-.41-1.06-.6h-.38c0-.09-.06-.16-.09-.23a.66.66,0,0,0-.63-.3h-.8l-.14.08a1.15,1.15,0,0,0-.12-.37.67.67,0,0,0-.63-.31h-.8l-1,.57,1,26.24q2.4,23.5,2.4,26.67V101c.29,2,.5,3.81.63,5.51s.17,3.24.17,4.65c.89,4,1.59,7.34,2.06,9.95a33.71,33.71,0,0,1,.73,5.72v2.25a4.7,4.7,0,0,0,.87.83,1.32,1.32,0,0,0,.73.3h.2l.23-.16a4.1,4.1,0,0,0,.53.45,1.35,1.35,0,0,0,.73.31h.2A58,58,0,0,0,66,127c1.1-1,1.67-1.64,1.67-2q4.8-2.54,6.6-21.59V90.3C73.56,81.27,72.79,74.07,72,68.73ZM69.6,106.14c-.3,1.84-.63,2.76-1,2.76A26.8,26.8,0,0,1,67,118.51a14.43,14.43,0,0,1-3.42,5.37c-.3-8-.75-15.69-1.32-22.9-.64-7.55-1.44-14.63-2.44-21.26,0-1.77,0-3.41.14-5s.16-3,.26-4.35c-.3-4.72-.5-8.67-.63-11.8s-.17-5.47-.17-7a41.28,41.28,0,0,1,4.15,4.14c1.29,1.53,2,2.73,2,3.58.7,0,1.4,3.22,2.13,9.64s1.57,16,2.47,28.88A74.86,74.86,0,0,1,69.6,106.14Z"/><path class="cls-3" d="M86.09,85.17c-.14-1.15-.34-1.72-.64-1.72-.3-5.92-.73-10.84-1.33-14.72A38,38,0,0,0,82.05,60a42.42,42.42,0,0,0-5.63-8.47,12.46,12.46,0,0,0-5.36-3.81,86.69,86.69,0,0,0-11.53-7.1,29.09,29.09,0,0,0-4.32-1.77l-.06,0a14.11,14.11,0,0,0-5-1.16H48c-1.1,0-2.1,0-3,.12a9.2,9.2,0,0,0-2.23.45c-.1,0-.3.16-.6.51s-.7.83-1.2,1.46c.3,5,.6,9.95,1,14.82s.73,9.66,1.23,14.39v3l.4.57h-.4a1.29,1.29,0,0,0,.13.61,2,2,0,0,0,.27.52l-.4,1.13c0,3.74.13,7.73.43,12s.67,8.77,1.17,13.57a.37.37,0,0,0-.27.09.2.2,0,0,0-.13.19l.4,1.69v4.66q3.6,19.68,3.6,21.59v8.46a19.11,19.11,0,0,0,2.53,2.22,11.82,11.82,0,0,0,1.23.79,1.67,1.67,0,0,0,.16.12,8.38,8.38,0,0,0,2.06,1.18,9.14,9.14,0,0,0,1.67-.21c.73-.14,1.63-.36,2.73-.64q11.25-3.49,16.93-8.46a20.38,20.38,0,0,0,1.62-1.59q.16-.17.3-.33a14.22,14.22,0,0,0,4-9.81,2.6,2.6,0,0,0,.32-.35,5.87,5.87,0,0,0,1.22-1.79,7,7,0,0,0,.46-2.54,55.72,55.72,0,0,0,2-8,41.16,41.16,0,0,0,.63-7V90.37C86.25,88,86.19,86.3,86.09,85.17ZM68.8,104.66c-.3,1.83-.63,2.75-1,2.75A26.82,26.82,0,0,1,66.24,117a14.35,14.35,0,0,1-3.72,5.65q-.45-12.06-1.32-22.87c-.64-7.55-1.44-14.63-2.44-21.26,0-1.76,0-3.41.14-5s.16-3,.26-4.35c-.3-4.73-.5-8.68-.63-11.81s-.17-5.48-.17-7l-.4-.56a.38.38,0,0,0,.27-.1,0,0,0,0,0,0,0,41.51,41.51,0,0,1,4.56,4.5c1.3,1.53,2,2.73,2,3.58.7,0,1.4,3.22,2.13,9.64s1.57,16,2.47,28.88A75.28,75.28,0,0,1,68.8,104.66Z"/></g><g id="A"><path d="M151.73,133.81l0-.07a3.4,3.4,0,0,1-.35-.84.65.65,0,0,1,0-.13c0-2.89-.9-8-2.74-15.35S144,100.53,140.3,88.75q-4.05-12.81-7.16-22.13T127.9,51.5a21.49,21.49,0,0,0-2.36-6.08,11.65,11.65,0,0,0-1.83-2.37,9.32,9.32,0,0,0-4.41-2.51,10.47,10.47,0,0,0-4.48-.93,6.06,6.06,0,0,0-2.7.87,24.93,24.93,0,0,0-3.9,2.66,12.93,12.93,0,0,1-.77,3.69A42.15,42.15,0,0,1,105,52.31a63.56,63.56,0,0,1-.7,8.77c-.36,2.12-.8,3.44-1.3,3.93q-.45,8.58-.9,12.82c-.3,2.84-.6,4.25-.9,4.25l.4,1.13c0,3.18-.16,6.78-.46,10.77s-.84,8.42-1.54,13.22q.3,15.24,1.2,29.21c-.3,1.2-.5,2.12-.63,2.78,0,.19,0,.36-.08.51,0,.39-.09.65-.09.8a2.84,2.84,0,0,0,1.2.83,4.24,4.24,0,0,0,1,.24,0,0,0,0,0,0,0,3.42,3.42,0,0,0,.66.34,5,5,0,0,0,1.8.31h7.6c.1,0,.33-.21.73-.64a23.17,23.17,0,0,0,1.47-1.9q1.5,0,3.6-38.52h.8a36,36,0,0,1,5-1.3c1.42-.26,3-.5,4.7-.73l.43,0,1.81,7.55q1.35,10.15,2.67,16.32a37,37,0,0,0,2.53,8.37c.3,2.47.57,4.38.77,5.72.05.31.1.58.16.83a3.88,3.88,0,0,0,.47,1.49l1.42,0a1.72,1.72,0,0,0,.27.64c2.7-.07,4.8-.16,6.23-.28a14,14,0,0,0,2.37-.28,4.22,4.22,0,0,0,2.83-1,7.33,7.33,0,0,0,2-3.06v-.56A4.29,4.29,0,0,1,151.73,133.81Zm-7.06.79-.83.07c-.13-.92-.45-2.68-1-5.26-.67-3.41-1.67-8.28-3-14.56-1.3-6.56-2.3-11.5-3.07-14.79s-1.23-5-1.53-5l-1.27.11c-.16-.48-.31-.71-.42-.71q-4.8.42-9,.87c-2.79.28-5.39.61-7.79,1a15.53,15.53,0,0,1-1.77,1.71,2.35,2.35,0,0,1-1,.54c-.1,2-.2,3.67-.27,5.11s-.13,2.58-.13,3.5c-.5,4-1,8.47-1.37,13.36s-.73,10.28-1,16.13c0,.29-.2.43-.6.43h-2.8l-1.1.11q0-4.9.72-11.06c.47-4.4,1.17-9.27,2.07-14.56v-4.09a19.39,19.39,0,0,0-.13-2.45c-.07-.8-.17-1.58-.27-2.35.3-2,.5-4.56.63-7.55s.17-6.49.17-10.51l.4-2.54A.38.38,0,0,1,110,82a.19.19,0,0,1-.13-.19q.45-2.53,1.1-5.17a41.29,41.29,0,0,1,1.7-5.27c.3-6,.57-10.49.77-13.45s.43-4.47.63-4.47c.2-3.74.47-6.56.77-8.44s.73-2.85,1.23-2.85h.8a8,8,0,0,1,1.5.14,7.82,7.82,0,0,1,3.41,3.92q12.74,36.51,19.06,58.45c4.23,14.65,6.33,24.45,6.33,29.46A20.06,20.06,0,0,1,144.67,134.6Z"/><path d="M136.47,91.26a4.65,4.65,0,0,0-1.13-.11h0c-.27-.54-.51-1-.74-1.49-.38-.74-.7-1.36-1-1.86h0c-.06-.12-.13-.23-.19-.34-.47-.82-.77-1.24-.87-1.24-.08-.26-.17-.52-.25-.78a0,0,0,0,0,0,0c-1.06-3.25-2.37-6.81-3.9-10.73-1.64-4.21-3.53-8.79-5.63-13.73a79.64,79.64,0,0,0-1.24-8.7c-.34-1.64-.72-2.56-1.13-2.8a.41.41,0,0,0-.23-.07,1,1,0,0,0-.79.57q-.42-1.17-.9-1.17h-.1c-.66.12-1.3,1.38-1.87,3.78a93.44,93.44,0,0,0-1.63,11.31c0,1.77,0,4.87-.13,9.27s-.17,10.13-.27,17.12l-.4,2.54,2,.85.17,0,1.52.64c.9-.28,1.6-.49,2.13-.63a5.88,5.88,0,0,1,1.27-.22c1.7,0,3.56,0,5.56-.09l6.63-.19,1.2.57a9.92,9.92,0,0,0,2.4-1.7v-.28C136.9,91.5,136.77,91.36,136.47,91.26ZM118.91,91c0-.27,0-.55,0-.84v-.7q0-3,.12-7c.06-3.28.15-7.06.23-11.34a1,1,0,0,0,0-.17,152.27,152.27,0,0,1,7.45,18.72c.1.27.19.55.28.82Z"/><path class="cls-3" d="M151.34,132.9a4,4,0,0,1-.41-.58,4.21,4.21,0,0,1-.44-1q0-4.35-2.73-15.36T139.5,87.26q-4-12.81-7.16-22.13T127.1,50a23.92,23.92,0,0,0-1.56-4.59,13.62,13.62,0,0,0-2.64-3.85,9.19,9.19,0,0,0-4.37-2.51,10.46,10.46,0,0,0-4.51-.94,6.19,6.19,0,0,0-2.7.87,24.93,24.93,0,0,0-3.9,2.66,12.93,12.93,0,0,1-.77,3.69,41.56,41.56,0,0,1-2.43,5.48,63.87,63.87,0,0,1-.7,8.78c-.36,2.11-.8,3.43-1.3,3.92q-.45,8.58-.9,12.82c-.3,2.85-.6,4.26-.9,4.26l.4,1.13c0,3.17-.16,6.77-.46,10.77s-.84,8.42-1.54,13.22q.3,15.24,1.2,29.2c-.3,1.2-.5,2.12-.63,2.78s-.17,1.11-.17,1.32a2.77,2.77,0,0,0,.89.68l.31.14a4.23,4.23,0,0,0,1,.25h0l.35.2.31.14a5.29,5.29,0,0,0,1.8.3h7.6l.08,0a3.43,3.43,0,0,0,.65-.6c.37-.43.87-1.06,1.47-1.91q1.49,0,3.55-37.64c0-.29,0-.58,0-.88h.8l.28-.09c.73-.25,1.53-.48,2.4-.7.72-.18,1.48-.34,2.28-.5,1.53-.29,3.24-.55,5.13-.79l.18.76.19.78,1.44,6q1.35,10.16,2.67,16.32a37,37,0,0,0,2.53,8.37c.3,2.47.57,4.38.77,5.72a6.51,6.51,0,0,0,.63,2.33h.33l1.09,0a1.65,1.65,0,0,0,.27.63h.33c2.07-.05,3.78-.12,5.08-.21l.25,0,.57,0a14,14,0,0,0,2.37-.28,4.14,4.14,0,0,0,2.31-.66,2.62,2.62,0,0,0,.34-.24l.18-.14a7.39,7.39,0,0,0,2-3v-.57C151.57,133.14,151.45,133,151.34,132.9ZM118.92,89.5l-.81,0c0-2.28,0-5.12.13-8.52s.15-7.15.24-11.5c.26.53.53,1.08.79,1.65a169.14,169.14,0,0,1,6.94,17.88Z"/></g><g id="L"><path d="M195.66,138.81c0-.14.13-.28.43-.42a6.53,6.53,0,0,1,1.17-.42v1.13h-1.6Zm-6.2-.56a1.3,1.3,0,0,0,.43-.09l.77-.19h.8c0,.14-.14.28-.44.42a6.11,6.11,0,0,1-1.16.42h-.4Zm-2.4.28a.4.4,0,0,1,.17-.33,1.9,1.9,0,0,1,.63-.23h.8c0,.14-.13.28-.43.42a6.53,6.53,0,0,1-1.17.42Zm-2.8,0c0-.14.17-.28.47-.42a8.34,8.34,0,0,1,1.53-.42V138c0,.14-.13.28-.43.42a6.53,6.53,0,0,1-1.17.42h-.4Zm-3,0q0-.63,2.4-.84h.2v.56l-1.8.28Zm-2.8,0q.6-.84,1.2-.84h1.2c0,.14-.13.28-.43.42a6.53,6.53,0,0,1-1.17.42Zm-8.19-1.13a1.3,1.3,0,0,0,.43-.09l.76-.19c.9,0,1.8,0,2.7.12a19.5,19.5,0,0,1,2.7.45c.3-.08.54-.15.74-.19a1.53,1.53,0,0,1,.46-.1h.4a1.32,1.32,0,0,1-.63.57,10.63,10.63,0,0,1-1.37.56l-2.2-.28h-4Zm-1.6-15.66v2.54a11.86,11.86,0,0,1-.14,1.67c-.06.71-.16,1.51-.26,2.42h-.4l-.4-2.82v-2.4l.4-1.41Zm-1.2-2a3.88,3.88,0,0,1,.6-.51,1.17,1.17,0,0,1,.6-.19v.42c0,1-.4,1.55-1.2,1.7Zm0-1.83c.4-.56.8-.85,1.2-.85v.85c-.4.56-.8.85-1.2.85Zm0-1.69c.4-.57.8-.85,1.2-.85a2.37,2.37,0,0,1-.44,1.08,1,1,0,0,1-.76.33Zm-.4-1.13a1.53,1.53,0,0,1,.43-1.18,2.42,2.42,0,0,1,1.17-.66v1c-.4.57-.8.85-1.2.85Zm0-2.12a1.8,1.8,0,0,1,.43-1.25,2.15,2.15,0,0,1,1.17-.72v1.69a1.35,1.35,0,0,0-.44.09l-.76.19Zm-1.6-69.71a2.41,2.41,0,0,0,.16.76,10.31,10.31,0,0,0,.44,1.08,3.74,3.74,0,0,1-.6,1.69l.6,1.27q.45,16.62,1.06,31.75t1.54,28.79a10,10,0,0,1-1.44,1.78,2.06,2.06,0,0,1-1.16.62q-.6-25.72-.9-42.41t-.3-24.2V43.28Zm2.8-1.41c.7.07,1.23.14,1.63.19s.67.09.77.09c.89,0,1.59.59,2.06,1.79a14.25,14.25,0,0,1,.73,5.27c-.1.21-.2.38-.26.52a.64.64,0,0,0-.14.33l.4,1.41-.4,2.54a.37.37,0,0,1,.27.09.2.2,0,0,1,.13.19.33.33,0,0,0-.26.09.22.22,0,0,0-.14.19v1l.4.56h-.4a2.17,2.17,0,0,0,.14.87,1.87,1.87,0,0,0,.26.55l-.4,4.37q-.15,17.88-.26,30.81c-.1,8.63-.14,15.61-.14,21a3.94,3.94,0,0,0,.14.91c.06.4.16.85.26,1.34a.31.31,0,0,0-.26.22,1.09,1.09,0,0,0-.14.63q1.2,14.19,2.4,16.51l3.8-.28h2a68.38,68.38,0,0,1,7.63.3c1.7.19,2.57.47,2.57.83a2.37,2.37,0,0,0,.76-.1,3.71,3.71,0,0,0,.64-.18c1.1.21,2.13.35,3.13.44s2,.12,2.86.12h.4a1.76,1.76,0,0,1-.13.75,3.51,3.51,0,0,1-.27.66c0,.28-.33.49-1,.64a15.51,15.51,0,0,1-3,.21h-.4l-2.2-.28-.77.18a1.38,1.38,0,0,1-.43.1,1.57,1.57,0,0,1-.47-.1l-.73-.18-.8.28-.8-.19a2.8,2.8,0,0,0-.8-.09h-2c-1,0-2.67,0-5-.12s-5.33-.24-9-.45c-.2,0-.39-.3-.59-.94a20.1,20.1,0,0,1-.6-2.73q.6-3.92.9-6.49a39,39,0,0,0,.29-4v-5.5Q169.72,93.7,168.7,75.5t-1.63-32.08a1,1,0,0,1,.3-.65A7.53,7.53,0,0,1,168.27,41.87Zm-5.4,1.27,3.2,94a1.79,1.79,0,0,1,1.23.64,10.59,10.59,0,0,1,1.37,1.9c7.19.28,13.19.49,18,.64s8.33.21,10.63.21q2.69,0,4.19-7.2l-.4-.56a8.67,8.67,0,0,0-1.2.09l-1.79.19c-4.3-.57-8.1-1-11.37-1.27s-6-.42-8.23-.42l-.8.28c0-.07-.06-.14-.16-.19a1.49,1.49,0,0,0-.64-.09c-.6-.36-1.1-2.9-1.46-7.58s-.64-11.54-.74-20.51l.4-1.83-.4-1.41q.6-18.84.6-49.11c0-1.41-.06-2.8-.16-4.11s-.24-2.59-.44-3.79c0-.85-.56-1.53-1.66-2a15.3,15.3,0,0,0-5.13-.82Z"/><path d="M197.35,139.41c0-.14.13-.28.43-.42a6.58,6.58,0,0,1,1.16-.43v1.13h-1.59Zm-6.2-.56a1.38,1.38,0,0,0,.43-.1l.77-.19h.8c0,.14-.14.29-.44.43a6.11,6.11,0,0,1-1.16.42h-.4Zm-2.4.28a.4.4,0,0,1,.17-.33,1.68,1.68,0,0,1,.63-.24h.8c0,.14-.14.29-.43.43a6.53,6.53,0,0,1-1.17.42Zm-2.8,0c0-.14.17-.28.47-.43a8.34,8.34,0,0,1,1.53-.42v.28c0,.14-.13.29-.43.43a6.53,6.53,0,0,1-1.17.42H186Zm-3,0c0-.43.8-.71,2.4-.85h.2v.57l-1.8.28Zm-2.8,0c.4-.57.8-.85,1.2-.85h1.2c0,.14-.13.28-.43.42a5.76,5.76,0,0,1-1.17.43ZM172,138a1.35,1.35,0,0,0,.44-.09l.76-.19c.9,0,1.8,0,2.7.11a23,23,0,0,1,2.7.45l.74-.19a1.44,1.44,0,0,1,.46-.09h.4a1.26,1.26,0,0,1-.63.56,9.18,9.18,0,0,1-1.37.57l-2.2-.28h-4Zm-1.59-15.66v2.54a12,12,0,0,1-.14,1.67c-.06.7-.16,1.5-.26,2.42h-.4l-.4-2.82v-2.4l.4-1.41Zm-1.2-2a4,4,0,0,1,.6-.52,1.26,1.26,0,0,1,.6-.18v.42c0,1-.4,1.55-1.2,1.69Zm0-1.83c.4-.57.8-.85,1.2-.85v.85q-.6.84-1.2.84Zm0-1.7q.6-.84,1.2-.84a2.42,2.42,0,0,1-.44,1.08,1,1,0,0,1-.76.33Zm-.4-1.13a1.53,1.53,0,0,1,.43-1.17,2.34,2.34,0,0,1,1.17-.66v1q-.6.84-1.2.84Zm0-2.11a1.78,1.78,0,0,1,.43-1.25,2.17,2.17,0,0,1,1.17-.73v1.7a1.35,1.35,0,0,0-.44.09l-.76.19Zm-1.6-69.71a2.35,2.35,0,0,0,.16.75,8.81,8.81,0,0,0,.44,1.08,3.77,3.77,0,0,1-.6,1.7l.6,1.27q.45,16.6,1.06,31.75t1.54,28.78a9.76,9.76,0,0,1-1.44,1.79,2,2,0,0,1-1.16.61q-.6-25.71-.9-42.4t-.3-24.2V43.88Zm2.8-1.41c.7.07,1.23.14,1.63.19s.66.09.76.09c.9,0,1.6.59,2.07,1.79a14.21,14.21,0,0,1,.73,5.27c-.1.21-.2.37-.26.51a.64.64,0,0,0-.14.33l.4,1.41-.4,2.54a.38.38,0,0,1,.27.1.2.2,0,0,1,.13.19.33.33,0,0,0-.26.09.22.22,0,0,0-.14.19v1l.4.56h-.4a2.2,2.2,0,0,0,.14.87,1.81,1.81,0,0,0,.26.54l-.4,4.38q-.15,17.88-.26,30.8c-.1,8.64-.14,15.62-.14,21a4,4,0,0,0,.14.92c.06.4.16.85.26,1.34a.3.3,0,0,0-.26.21,1.13,1.13,0,0,0-.14.64q1.2,14.17,2.4,16.51l3.8-.29h2a67.84,67.84,0,0,1,7.63.31c1.7.19,2.57.47,2.57.82a2.4,2.4,0,0,0,.76-.09,4.86,4.86,0,0,0,.64-.19c1.1.21,2.13.35,3.13.45s2,.12,2.86.12h.4a1.76,1.76,0,0,1-.13.75,4.8,4.8,0,0,1-.27.66c0,.28-.33.49-1,.63a15.51,15.51,0,0,1-3,.21h-.4l-2.2-.28-.77.19a1.3,1.3,0,0,1-.43.09,1.49,1.49,0,0,1-.47-.09l-.73-.19-.8.28c-.3-.07-.57-.14-.8-.18a2.78,2.78,0,0,0-.8-.1h-2c-1,0-2.67,0-5-.12s-5.33-.23-9-.44c-.2,0-.4-.31-.6-.94a20.46,20.46,0,0,1-.6-2.73c.4-2.61.7-4.78.9-6.49a37,37,0,0,0,.3-4v-5.51q-1.35-22.54-2.36-40.73T168.76,44a1.05,1.05,0,0,1,.3-.66A6.88,6.88,0,0,1,170,42.47Zm-5.4,1.27,3.2,94a1.81,1.81,0,0,1,1.23.63,11.11,11.11,0,0,1,1.37,1.91c7.19.28,13.19.49,18,.63s8.33.21,10.62.21q2.7,0,4.2-7.19l-.4-.57a9,9,0,0,0-1.2.1c-.5,0-1.1.11-1.8.18-4.29-.56-8.09-1-11.36-1.26s-6-.43-8.23-.43l-.8.28c0-.07-.06-.14-.16-.18a1.47,1.47,0,0,0-.64-.1c-.6-.35-1.1-2.89-1.46-7.57s-.64-11.55-.74-20.51l.4-1.83-.4-1.41q.6-18.84.6-49.11c0-1.41-.06-2.8-.16-4.12s-.24-2.58-.44-3.78c0-.85-.56-1.53-1.66-2a15.34,15.34,0,0,0-5.13-.82Z"/><path class="cls-3" d="M171.92,114.85a1.47,1.47,0,0,0-.06.46l.09,1v-1Zm18.31,17.71a.23.23,0,0,1,0,.11,3.23,3.23,0,0,0,.46,0Z"/><path class="cls-3" d="M201.94,131.85a9,9,0,0,0-1.2.1h-.12l0-.14-.4-.56a8.67,8.67,0,0,0-1.2.09l-1.8.19q-6.45-.85-11.36-1.27c-3.3-.28-6-.43-8.23-.43l-.27.1c-.44-1-.82-3.36-1.11-7.07-.4-4.71-.63-11.55-.73-20.51l.4-1.83-.4-1.41q.6-18.84.6-49.11c0-1.41-.07-2.8-.17-4.12s-.23-2.58-.43-3.78c0-.85-.57-1.53-1.66-2a8.33,8.33,0,0,0-1.27-.39,2.74,2.74,0,0,0-.42-.21,15.36,15.36,0,0,0-5.14-.82l-5,3,3.19,94a1.83,1.83,0,0,1,1.24.64,10.62,10.62,0,0,1,1.36,1.9l1.35.05c.11.17.23.36.34.55,7.2.28,13.2.49,18,.63s8.33.21,10.63.21q2.7,0,4.2-7.19Zm-30-15.54-.09-1a1.47,1.47,0,0,1,.06-.46l0,.49Zm18.31,16.36a.23.23,0,0,0,0-.11l.49.08A3.23,3.23,0,0,1,190.26,132.67Z"/><path class="cls-3" d="M171.92,114.85a1.47,1.47,0,0,0-.06.46l.09,1v-1Zm0,0a1.47,1.47,0,0,0-.06.46l.09,1v-1Z"/></g><g id="L-2" data-name="L"><path d="M243.9,138.81c0-.14.14-.28.44-.42a6.11,6.11,0,0,1,1.16-.42v1.13h-1.6Zm-6.19-.56a1.3,1.3,0,0,0,.43-.09l.77-.19h.8c0,.14-.14.28-.44.42a6.11,6.11,0,0,1-1.16.42h-.4Zm-2.4.28a.39.39,0,0,1,.16-.33,2.08,2.08,0,0,1,.64-.23h.8c0,.14-.14.28-.44.42a6.11,6.11,0,0,1-1.16.42Zm-2.8,0c0-.14.16-.28.46-.42a8.75,8.75,0,0,1,1.54-.42V138c0,.14-.14.28-.44.42a6.11,6.11,0,0,1-1.16.42h-.4Zm-3,0q0-.63,2.4-.84h.2v.56l-1.8.28Zm-2.8,0q.6-.84,1.2-.84h1.2c0,.14-.13.28-.43.42a6.53,6.53,0,0,1-1.17.42Zm-8.2-1.13a1.35,1.35,0,0,0,.44-.09l.76-.19c.9,0,1.8,0,2.7.12a19.5,19.5,0,0,1,2.7.45c.3-.08.53-.15.73-.19a1.57,1.57,0,0,1,.47-.1h.4a1.32,1.32,0,0,1-.63.57,10.63,10.63,0,0,1-1.37.56l-2.2-.28h-4Zm-1.6-15.66v2.54a11.61,11.61,0,0,1-.13,1.67c-.07.71-.17,1.51-.27,2.42h-.4l-.4-2.82v-2.4l.4-1.41Zm-1.2-2a3.88,3.88,0,0,1,.6-.51,1.17,1.17,0,0,1,.6-.19v.42c0,1-.4,1.55-1.2,1.7Zm0-1.83c.4-.56.8-.85,1.2-.85v.85c-.4.56-.8.85-1.2.85Zm0-1.69c.4-.57.8-.85,1.2-.85a2.38,2.38,0,0,1-.43,1.08,1.05,1.05,0,0,1-.77.33Zm-.4-1.13a1.54,1.54,0,0,1,.44-1.18,2.34,2.34,0,0,1,1.16-.66v1c-.4.57-.8.85-1.2.85Zm0-2.12a1.8,1.8,0,0,1,.44-1.25,2.09,2.09,0,0,1,1.16-.72v1.69a1.3,1.3,0,0,0-.43.09l-.77.19Zm-1.59-69.71a2.41,2.41,0,0,0,.16.76,10,10,0,0,0,.43,1.08,3.82,3.82,0,0,1-.59,1.69l.59,1.27q.47,16.62,1.07,31.75t1.53,28.79a10.47,10.47,0,0,1-1.43,1.78,2.08,2.08,0,0,1-1.17.62q-.59-25.72-.89-42.41t-.3-24.2V43.28Zm2.79-1.41c.7.07,1.24.14,1.64.19s.66.09.76.09c.9,0,1.6.59,2.07,1.79a14.25,14.25,0,0,1,.73,5.27c-.1.21-.2.38-.26.52a.64.64,0,0,0-.14.33l.4,1.41-.4,2.54a.37.37,0,0,1,.27.09.2.2,0,0,1,.13.19.33.33,0,0,0-.26.09.22.22,0,0,0-.14.19v1l.4.56h-.4a2.17,2.17,0,0,0,.14.87,1.87,1.87,0,0,0,.26.55l-.4,4.37q-.15,17.88-.26,30.81c-.1,8.63-.14,15.61-.14,21a3.94,3.94,0,0,0,.14.91c.06.4.16.85.26,1.34a.31.31,0,0,0-.26.22,1.09,1.09,0,0,0-.14.63q1.2,14.19,2.4,16.51l3.8-.28h2a68.38,68.38,0,0,1,7.63.3c1.7.19,2.57.47,2.57.83a2.37,2.37,0,0,0,.76-.1,3.71,3.71,0,0,0,.64-.18,31.33,31.33,0,0,0,3.13.44c1,.07,2,.12,2.86.12h.4a1.76,1.76,0,0,1-.13.75,4.34,4.34,0,0,1-.27.66c0,.28-.33.49-1,.64a15.7,15.7,0,0,1-3,.21h-.4l-2.19-.28-.77.18a1.38,1.38,0,0,1-.43.1,1.57,1.57,0,0,1-.47-.1l-.73-.18-.8.28-.8-.19a2.84,2.84,0,0,0-.8-.09h-2c-1,0-2.67,0-5-.12s-5.33-.24-9-.45c-.2,0-.4-.3-.6-.94a20.1,20.1,0,0,1-.6-2.73q.6-3.92.9-6.49a36.81,36.81,0,0,0,.3-4v-5.5Q218,93.7,217,75.5t-1.64-32.08a1,1,0,0,1,.3-.65A7.53,7.53,0,0,1,216.51,41.87Zm-5.39,1.27,3.19,94a1.83,1.83,0,0,1,1.24.64,10.62,10.62,0,0,1,1.36,1.9c7.2.28,13.2.49,18,.64s8.33.21,10.63.21q2.7,0,4.2-7.2l-.4-.56a8.67,8.67,0,0,0-1.2.09l-1.8.19q-6.45-.85-11.36-1.27c-3.3-.28-6-.42-8.23-.42l-.8.28c0-.07-.07-.14-.17-.19a1.41,1.41,0,0,0-.63-.09c-.6-.36-1.1-2.9-1.46-7.58s-.64-11.54-.74-20.51l.4-1.83-.4-1.41q.6-18.84.6-49.11c0-1.41-.07-2.8-.17-4.11s-.23-2.59-.43-3.79c0-.85-.56-1.53-1.66-2a15.36,15.36,0,0,0-5.14-.82Z"/><path d="M245.59,139.41c0-.14.14-.28.44-.42a6,6,0,0,1,1.16-.43v1.13h-1.6Zm-6.19-.56a1.38,1.38,0,0,0,.43-.1l.77-.19h.8c0,.14-.14.29-.44.43a6.11,6.11,0,0,1-1.16.42h-.4Zm-2.4.28a.39.39,0,0,1,.16-.33,1.82,1.82,0,0,1,.64-.24h.8c0,.14-.14.29-.44.43a6.11,6.11,0,0,1-1.16.42Zm-2.8,0c0-.14.16-.28.46-.43a8.75,8.75,0,0,1,1.54-.42v.28c0,.14-.14.29-.44.43a6.11,6.11,0,0,1-1.16.42h-.4Zm-3,0c0-.43.8-.71,2.4-.85h.2v.57l-1.8.28Zm-2.8,0c.4-.57.8-.85,1.2-.85h1.2c0,.14-.13.28-.43.42a5.76,5.76,0,0,1-1.17.43ZM220.2,138a1.35,1.35,0,0,0,.44-.09l.76-.19c.9,0,1.8,0,2.7.11a23,23,0,0,1,2.7.45l.73-.19A1.49,1.49,0,0,1,228,138h.4a1.26,1.26,0,0,1-.63.56,9.18,9.18,0,0,1-1.37.57l-2.2-.28h-4Zm-1.6-15.66v2.54a11.71,11.71,0,0,1-.13,1.67c-.07.7-.17,1.5-.27,2.42h-.4l-.4-2.82v-2.4l.4-1.41Zm-1.2-2a4,4,0,0,1,.6-.52,1.26,1.26,0,0,1,.6-.18v.42c0,1-.4,1.55-1.2,1.69Zm0-1.83c.4-.57.8-.85,1.2-.85v.85q-.6.84-1.2.84Zm0-1.7q.6-.84,1.2-.84a2.43,2.43,0,0,1-.43,1.08,1.05,1.05,0,0,1-.77.33Zm-.4-1.13a1.53,1.53,0,0,1,.44-1.17,2.27,2.27,0,0,1,1.16-.66v1q-.6.84-1.2.84Zm0-2.11a1.79,1.79,0,0,1,.44-1.25,2.1,2.1,0,0,1,1.16-.73v1.7a1.3,1.3,0,0,0-.43.09l-.77.19Zm-1.6-69.71a2.4,2.4,0,0,0,.17.75,8.57,8.57,0,0,0,.43,1.08,3.77,3.77,0,0,1-.6,1.7l.6,1.27q.45,16.6,1.07,31.75t1.53,28.78a10.21,10.21,0,0,1-1.43,1.79,2.08,2.08,0,0,1-1.17.61q-.6-25.71-.9-42.4T214.8,45V43.88Zm2.8-1.41c.7.07,1.24.14,1.64.19s.66.09.76.09c.9,0,1.6.59,2.07,1.79a14.21,14.21,0,0,1,.73,5.27c-.1.21-.2.37-.26.51a.64.64,0,0,0-.14.33l.4,1.41L223,54.6a.38.38,0,0,1,.27.1.2.2,0,0,1,.13.19.33.33,0,0,0-.26.09.22.22,0,0,0-.14.19v1l.4.56H223a2.2,2.2,0,0,0,.14.87,1.81,1.81,0,0,0,.26.54l-.4,4.38q-.15,17.88-.26,30.8c-.1,8.64-.14,15.62-.14,21a4,4,0,0,0,.14.92c.06.4.16.85.26,1.34a.3.3,0,0,0-.26.21,1.13,1.13,0,0,0-.14.64q1.2,14.17,2.4,16.51l3.8-.29h2a67.84,67.84,0,0,1,7.63.31c1.7.19,2.57.47,2.57.82a2.4,2.4,0,0,0,.76-.09,5.36,5.36,0,0,0,.64-.19c1.09.21,2.13.35,3.13.45s2,.12,2.86.12h.4a1.76,1.76,0,0,1-.13.75,4.8,4.8,0,0,1-.27.66c0,.28-.33.49-1,.63a15.7,15.7,0,0,1-3,.21H244l-2.2-.28-.76.19a1.3,1.3,0,0,1-.43.09,1.49,1.49,0,0,1-.47-.09l-.73-.19-.8.28c-.3-.07-.57-.14-.8-.18a2.83,2.83,0,0,0-.8-.1h-2c-1,0-2.67,0-5-.12s-5.33-.23-9-.44c-.2,0-.4-.31-.6-.94a20.46,20.46,0,0,1-.6-2.73c.4-2.61.7-4.78.9-6.49a37,37,0,0,0,.3-4v-5.51q-1.35-22.54-2.36-40.73T217,44a1.05,1.05,0,0,1,.3-.66A6.88,6.88,0,0,1,218.2,42.47Zm-5.39,1.27,3.19,94a1.85,1.85,0,0,1,1.24.63,11.15,11.15,0,0,1,1.36,1.91c7.2.28,13.2.49,18,.63s8.33.21,10.63.21q2.7,0,4.2-7.19l-.4-.57a9,9,0,0,0-1.2.1c-.5,0-1.1.11-1.8.18q-6.45-.84-11.36-1.26c-3.3-.29-6-.43-8.23-.43l-.8.28c0-.07-.07-.14-.17-.18a1.39,1.39,0,0,0-.63-.1c-.6-.35-1.1-2.89-1.47-7.57s-.63-11.55-.73-20.51L225,102l-.4-1.41q.6-18.84.6-49.11c0-1.41-.07-2.8-.17-4.12s-.23-2.58-.43-3.78c0-.85-.56-1.53-1.66-2a15.36,15.36,0,0,0-5.14-.82Z"/><path class="cls-3" d="M238.47,132.56a.23.23,0,0,1,0,.11,3.23,3.23,0,0,0,.46,0Zm-18.3-17.72a1.28,1.28,0,0,0-.06.47l.09,1.09v-1.06Z"/><path class="cls-3" d="M220.17,114.84a1.28,1.28,0,0,0-.06.47l.09,1.09v-1.06Zm0,0a1.28,1.28,0,0,0-.06.47l.09,1.09v-1.06Zm0,0a1.28,1.28,0,0,0-.06.47l.09,1.09v-1.06Z"/><path class="cls-3" d="M250.19,131.85a9,9,0,0,0-1.2.1h-.12l0-.14-.4-.56a8.67,8.67,0,0,0-1.2.09l-1.8.19c-4.3-.57-8.1-1-11.36-1.27s-6-.43-8.23-.43l-.27.1c-.44-1-.82-3.36-1.11-7.07-.4-4.71-.63-11.55-.73-20.51l.4-1.83-.4-1.41q.6-18.84.6-49.11c0-1.41-.07-2.8-.17-4.12s-.23-2.58-.43-3.78c0-.85-.57-1.53-1.67-2a9.28,9.28,0,0,0-1.28-.4,3.91,3.91,0,0,0-.41-.2,15.25,15.25,0,0,0-5.13-.82l-5,3,3.2,94a1.83,1.83,0,0,1,1.24.64,10.62,10.62,0,0,1,1.36,1.9l1.35.05c.11.17.23.36.34.55,7.2.28,13.2.49,18,.63s8.33.21,10.63.21q2.7,0,4.2-7.19Zm-30-15.45-.09-1.09a1.28,1.28,0,0,1,.06-.47l0,.5Zm18.3,16.27a.23.23,0,0,0,0-.11l.49.08A3.23,3.23,0,0,1,238.5,132.67Z"/></g><g id="E"><path d="M284.16,138.53H286v.28l-10.39,2c-.1,0-.27-.12-.47-.33a8.82,8.82,0,0,1-.73-1.08Zm7.39-.56v.28h-2V138Zm2.6-.57h2v.29l-1.17.11c-.63.1-1.53.24-2.63.45v-.56Zm2-4.94a5.84,5.84,0,0,1,1.53.33c.3.14.47.31.47.52v3.39a5.45,5.45,0,0,1-1.53-.33c-.3-.14-.47-.31-.47-.52Zm-20-18.9a2.3,2.3,0,0,1,.9.3c.2.12.3.26.3.4v.57h-.8a2.59,2.59,0,0,0-.6-1.27Zm-1.8-.57a25,25,0,0,1,2.23,2.66,3.49,3.49,0,0,1,.77,1.72c0,1.34,0,2.94.13,4.77s.17,3.9.27,6.23c-.1,1.06-.2,2-.27,2.85a17.33,17.33,0,0,0-.13,2.09,2.24,2.24,0,0,1-1.5-.66,7,7,0,0,1-1.5-2c.1-1.06.2-2,.27-2.87a20.37,20.37,0,0,0,.13-2.35v-7.76a15,15,0,0,0-.13-1.91C274.56,115,274.46,114.05,274.36,113Zm.4-3.1a3.09,3.09,0,0,0,.47.94c.3.47.73,1.1,1.33,1.88V113H276a1.41,1.41,0,0,1-.73-.33,4.55,4.55,0,0,1-.87-1.08v-1.69Zm0-6.35a10.66,10.66,0,0,1,1.23,3.08,42,42,0,0,1,1,4.68h-.8c-.7-1.2-1.23-2.12-1.63-2.75a7.11,7.11,0,0,1-.57-1.06l.4-1.7v-1.41l-.4-.56Zm-.8-2.68a5.11,5.11,0,0,1,1.53,1.29,2.37,2.37,0,0,1,.47,1.39h-.8c-.4-.71-.7-1.27-.9-1.67a3.67,3.67,0,0,1-.3-.73Zm-.4-4.8a10.24,10.24,0,0,0,2.4,1.69,1.3,1.3,0,0,1-.14.61,1.69,1.69,0,0,1-.26.52l.6.85v2a6.41,6.41,0,0,1-2-2,4.19,4.19,0,0,1-.63-2.23Zm0-4.09q2.4,3.6,2.4,4.65v.28a6.84,6.84,0,0,1-2.43-2.21,5.18,5.18,0,0,1-.77-2.72Zm0-2.12a1.85,1.85,0,0,1,1.17.59,1.77,1.77,0,0,1,.43,1.24v1.13c-.3,0-.63-.26-1-.75a7.19,7.19,0,0,1-1-2.21Zm0-4.23c.2,0,.43.33.73,1a19.58,19.58,0,0,1,.87,3h-.4c-.4,0-.73-.33-1-1a10.21,10.21,0,0,1-.57-3Zm12.39,0a.4.4,0,0,1,.17-.33,1.68,1.68,0,0,1,.63-.24v.57Zm-5.79-.57,4.59.28v.29c-.69,0-1.59,0-2.69.09l-3.9.19a.85.85,0,0,1-.47-.12,1,1,0,0,1-.33-.45v-.28Zm6.59-3.53a9,9,0,0,0,1.34.83,2.6,2.6,0,0,0,1.06.3v1.84h-.4a8,8,0,0,1-2.4-1.27v-1.7ZM274,76v3l.8.85v.57h-.4l-2-.29V76Zm-2-2.82a1.29,1.29,0,0,1,.77.42A14.09,14.09,0,0,1,274,74.89v.85h-.4a2.9,2.9,0,0,1-1.53-1,2.63,2.63,0,0,1-.47-1.57Zm-.4-4.09a1.84,1.84,0,0,1,1.67,1.08,8.09,8.09,0,0,1,.73,3.29h-.8a7,7,0,0,1-1.3-1.79,6.31,6.31,0,0,1-.7-2.3.34.34,0,0,0,.27-.1A.18.18,0,0,0,271.56,69.11Zm0-3.53a3.34,3.34,0,0,1,1.07.54A10.34,10.34,0,0,1,274,67.41v2h-.4a7.46,7.46,0,0,1-1.53-.61c-.3-.21-.47-.38-.47-.52Zm0-5.5a8.06,8.06,0,0,1,1.8.3c.4.12.6.26.6.4v1.41a1.3,1.3,0,0,1-.43-.09l-.77-.19h-.4l1.6,1.41v2.54a3.27,3.27,0,0,1-2.4-1.69Zm0-2.83c1.6,0,2.4.57,2.4,1.7v.84q-2.1,0-2.4-.84Zm0-2.4a3.72,3.72,0,0,1,1.37.24,2.41,2.41,0,0,1,1,.75V57c-1.4,0-2.2-.28-2.4-.85Zm.4-6.06a2.3,2.3,0,0,1,.9.3c.2.12.3.26.3.4v2l.4,3.38a9.87,9.87,0,0,1-1.53-.72c-.3-.19-.47-.33-.47-.4V48.79Zm5-.85c2.2,0,4.3,0,6.33-.12s4-.23,5.86-.44l.8.84h-1.6c-.5,0-1.1,0-1.8.1s-1.49.11-2.39.18l-.8-.28a7.17,7.17,0,0,1-1.9.45c-.77.07-1.6.12-2.5.12h-4.2v-.57l1.8-.28Zm13-3.67c.8.28,1.2.57,1.2.85v1.69c-.8-.28-1.2-.56-1.2-.85Zm-27.39.28c4.5-.49,8.83-.89,13-1.15s8.17-.4,12-.4h.4a10,10,0,0,1-.43,2.21,1.78,1.78,0,0,1-.77,1q-7.78.31-12,.44l-4.8.12-.8.28c.1.92.2,1.7.27,2.36a11.7,11.7,0,0,1,.13,1.74v3.66c0,2,0,4.31-.13,7s-.17,5.77-.27,9.22c.3,2.75.6,5,.87,6.7s.53,3,.73,3.74a25.69,25.69,0,0,1,3.33.31c.7.14,1.07.33,1.07.54l8.2-.85h.4a.68.68,0,0,1,.46.12.59.59,0,0,1,.13.45v1.69c-1.29,0-3,0-5.06.1s-4.53.11-7.33.18l-1.2.43c.3.91.5,1.64.63,2.21a9.09,9.09,0,0,1,.17,1.17,1.1,1.1,0,0,1-.3.83,1.18,1.18,0,0,1-.9.3q1.5,9.52,2.4,32.18v.56c0,1.06,0,2.4-.13,4s-.17,3.48-.27,5.6q2.7,3.16,3.6,3.38h6.6c1.89-.35,3.76-.68,5.59-1s3.7-.52,5.6-.73l.4,1.41v.28a1.09,1.09,0,0,1-.13.57c-.07.16-.17.35-.27.56a64.79,64.79,0,0,1-7.23,1.06c-3.36.35-7.66.7-13,1.06l-3.6-.28a.18.18,0,0,1-.13.18.38.38,0,0,1-.27.1V136.7c-.9-4.73-1.57-8.37-2-10.91s-.63-4-.63-4.33q-.45-12.08-1-19.59c-.36-5-.7-8.49-1-10.47V88.16c0-.5-.2-3.51-.6-9s-1-13.45-1.8-23.89Zm27-3.24q-9.29,0-27,1.69h-.4a9.57,9.57,0,0,0-1.16.54c-.3.17-.44.31-.44.45V54.57q3.6,50.18,3.6,57.57a82.65,82.65,0,0,0,.87,10.35c.6,4.26,1.43,9.34,2.53,15.2a1.62,1.62,0,0,0,.73,1.45,3.39,3.39,0,0,0,2.07.52,7.2,7.2,0,0,0,2.37,1.91,6.57,6.57,0,0,0,2.83.63c2.9-.7,5.1-1.2,6.56-1.53a10.19,10.19,0,0,0,2.23-.59c5.3-.42,9.27-.8,11.87-1.12s3.93-.59,3.93-.8v-2.33l.4-2.8a12.67,12.67,0,0,0-1.53-.85c-.7-.35-1.67-.77-2.87-1.27h-.4c-.6.21-1.2.38-1.77.52a8.34,8.34,0,0,1-1.63.19c-.1,0-1,.14-2.83.42l-7.76,1.27h-2.4v-3.24l.4-1.42a.37.37,0,0,1-.27-.09.2.2,0,0,1-.13-.19l.4-.56a2,2,0,0,1-.27-.52,1.29,1.29,0,0,1-.13-.61V116.8L277,93.1l.4-.57a2.4,2.4,0,0,0-.17-.75,4.15,4.15,0,0,0-.63-.94,4,4,0,0,1,.6-.52,1.17,1.17,0,0,1,.6-.19l-1.2-1.69v-.28a21.58,21.58,0,0,0,2.73-.52A8.56,8.56,0,0,0,281,87h4.2c1.29-.21,2.36-.36,3.19-.45a19,19,0,0,1,2-.12,8.7,8.7,0,0,1,.77-2,3.4,3.4,0,0,1,1.23-1.24v-.28c-1.9-.92-3.3-1.63-4.23-2.14s-1.37-.83-1.37-1c-.4,0-1.4.07-3,.21s-3.86.36-6.76.64h-.4V79l-1-1V71.65c0-1.84,0-3.72.13-5.62s.17-3.91.27-6c-.1-1.91-.27-3.67-.47-5.27a36.71,36.71,0,0,0-.73-4.19,6.16,6.16,0,0,0,1-.12,5.13,5.13,0,0,0,1.17-.44c4.9,0,8.56-.12,11-.33s3.63-.52,3.63-.94a1.48,1.48,0,0,0,1.37-1,8.16,8.16,0,0,0,.43-3Z"/><path d="M285.85,139.13h1.79v.28l-10.39,2c-.1,0-.27-.12-.47-.33a9.1,9.1,0,0,1-.73-1.09Zm7.39-.57v.29h-2v-.29Zm2.6-.56h2v.28c-.1,0-.5.05-1.17.12s-1.53.23-2.63.45v-.57Zm2-4.94a5.45,5.45,0,0,1,1.53.33c.3.14.47.31.47.52v3.38a5.12,5.12,0,0,1-1.53-.33c-.3-.14-.47-.3-.47-.51Zm-20-18.91a2.29,2.29,0,0,1,.9.31c.2.12.3.26.3.4v.56h-.8a2.67,2.67,0,0,0-.6-1.27Zm-1.8-.56a25,25,0,0,1,2.23,2.66,3.46,3.46,0,0,1,.77,1.71c0,1.34,0,2.94.13,4.78s.17,3.9.27,6.23c-.1,1.06-.2,2-.27,2.84a17.48,17.48,0,0,0-.13,2.1,2.24,2.24,0,0,1-1.5-.66,7.18,7.18,0,0,1-1.5-2c.1-1.06.2-2,.27-2.87a20.37,20.37,0,0,0,.13-2.35v-7.77a14.93,14.93,0,0,0-.13-1.9C276.25,115.56,276.15,114.65,276.05,113.59Zm.4-3.11a2.76,2.76,0,0,0,.47.94c.29.47.73,1.11,1.33,1.89v.28h-.6a1.38,1.38,0,0,1-.73-.33,4.76,4.76,0,0,1-.87-1.08v-1.7Zm0-6.35a10.78,10.78,0,0,1,1.23,3.08,43,43,0,0,1,1,4.68h-.8c-.7-1.2-1.24-2.11-1.64-2.75a7,7,0,0,1-.56-1.06l.4-1.69V105l-.4-.56Zm-.8-2.68a5.27,5.27,0,0,1,1.53,1.3,2.37,2.37,0,0,1,.47,1.38h-.8c-.4-.7-.7-1.27-.9-1.67a3.43,3.43,0,0,1-.3-.73Zm-.4-4.8a10.49,10.49,0,0,0,2.4,1.7,1.3,1.3,0,0,1-.14.61,1.69,1.69,0,0,1-.26.52l.6.84v2a6.52,6.52,0,0,1-2-2,4.24,4.24,0,0,1-.63-2.23Zm0-4.09q2.4,3.6,2.4,4.66v.28a6.93,6.93,0,0,1-2.43-2.21,5.18,5.18,0,0,1-.77-2.73Zm0-2.11a1.9,1.9,0,0,1,1.17.58,1.8,1.8,0,0,1,.43,1.25v1.13c-.3,0-.64-.26-1-.75a7.43,7.43,0,0,1-1-2.21Zm0-4.24c.2,0,.43.33.73,1a19.38,19.38,0,0,1,.87,3h-.4c-.4,0-.73-.33-1-1a10.29,10.29,0,0,1-.57-3Zm12.39,0a.4.4,0,0,1,.17-.33,1.9,1.9,0,0,1,.63-.23v.56Zm-5.79-.56,4.59.28v.28c-.69,0-1.59,0-2.69.1s-2.4.11-3.9.18a.86.86,0,0,1-.47-.11,1.17,1.17,0,0,1-.33-.45v-.28Zm6.59-3.53a8.82,8.82,0,0,0,1.34.82,2.64,2.64,0,0,0,1.06.31v1.83h-.4a7.69,7.69,0,0,1-2.4-1.27V82.12Zm-12.79-5.5v3l.8.85V81h-.4l-2-.28V76.62Zm-2-2.83a1.32,1.32,0,0,1,.77.43,12.85,12.85,0,0,1,1.23,1.27v.84h-.4a3,3,0,0,1-1.53-1,2.64,2.64,0,0,1-.47-1.58Zm-.4-4.09a1.86,1.86,0,0,1,1.67,1.08,8.19,8.19,0,0,1,.73,3.3h-.8a7.17,7.17,0,0,1-1.3-1.79,6.36,6.36,0,0,1-.7-2.31.37.37,0,0,0,.27-.09A.2.2,0,0,0,273.25,69.7Zm0-3.52a3.15,3.15,0,0,1,1.07.54A9.7,9.7,0,0,1,275.65,68v2h-.4a7.46,7.46,0,0,1-1.53-.61c-.3-.21-.47-.37-.47-.51Zm0-5.51a8,8,0,0,1,1.8.31c.4.12.6.26.6.4v1.41a1.38,1.38,0,0,1-.43-.1l-.77-.18h-.4l1.6,1.41v2.54a3.29,3.29,0,0,1-2.4-1.7Zm0-2.82c1.6,0,2.4.56,2.4,1.69v.85c-1.4,0-2.2-.28-2.4-.85Zm0-2.4a3.52,3.52,0,0,1,1.37.24,2.41,2.41,0,0,1,1,.75v1.13c-1.4,0-2.2-.28-2.4-.85Zm.4-6.07a2.29,2.29,0,0,1,.9.31c.2.12.3.26.3.4v2l.4,3.39a9.72,9.72,0,0,1-1.53-.73c-.3-.19-.47-.33-.47-.4V49.38Zm5-.84c2.2,0,4.3,0,6.33-.12s4-.24,5.86-.45l.8.85H290a18,18,0,0,0-1.8.09l-2.39.19-.8-.28a7.59,7.59,0,0,1-1.9.45c-.77.07-1.6.11-2.5.11h-4.2v-.56l1.8-.28Zm13-3.67q1.2.42,1.2.84v1.7c-.8-.28-1.2-.57-1.2-.85Zm-27.39.28c4.5-.49,8.83-.89,13-1.15s8.17-.4,12-.4h.4a10.28,10.28,0,0,1-.43,2.21,1.75,1.75,0,0,1-.77,1q-7.79.31-12,.45l-4.8.12-.8.28c.1.92.2,1.69.27,2.35a11.79,11.79,0,0,1,.13,1.74v3.67c0,2,0,4.3-.13,7s-.17,5.76-.27,9.22c.3,2.75.6,5,.87,6.7s.53,3,.73,3.74a24,24,0,0,1,3.33.31c.7.14,1.07.33,1.07.54l8.2-.85h.4a.65.65,0,0,1,.46.12.55.55,0,0,1,.13.44v1.7c-1.29,0-3,0-5.06.09l-7.33.19-1.2.42c.3.92.5,1.65.63,2.21a9.41,9.41,0,0,1,.17,1.18,1.07,1.07,0,0,1-.3.82,1.15,1.15,0,0,1-.9.31q1.5,9.53,2.4,32.17v.57c0,1,0,2.4-.13,4s-.17,3.48-.27,5.6q2.7,3.18,3.6,3.39h6.6c1.89-.35,3.76-.68,5.59-1s3.7-.51,5.6-.73l.4,1.42v.28a1,1,0,0,1-.13.56c-.07.17-.17.36-.27.57a67.29,67.29,0,0,1-7.23,1.06c-3.36.35-7.66.7-13,1.05l-3.6-.28a.2.2,0,0,1-.13.19.37.37,0,0,1-.27.09v-1.27c-.9-4.72-1.57-8.37-2-10.91s-.63-4-.63-4.33q-.45-12.06-1-19.59c-.37-5-.7-8.49-1-10.46V88.75c0-.49-.2-3.5-.6-9s-1-13.45-1.8-23.9Zm27-3.25q-9.28,0-27,1.7h-.4a8.25,8.25,0,0,0-1.16.54c-.3.16-.44.3-.44.45V55.17q3.6,50.16,3.6,57.57a82.8,82.8,0,0,0,.87,10.35c.6,4.26,1.43,9.34,2.53,15.19a1.63,1.63,0,0,0,.73,1.46,3.46,3.46,0,0,0,2.07.52,7.16,7.16,0,0,0,2.37,1.9,6.44,6.44,0,0,0,2.83.64c2.9-.71,5.1-1.2,6.56-1.53a10.19,10.19,0,0,0,2.23-.59c5.3-.42,9.27-.8,11.87-1.13s3.93-.59,3.93-.8v-2.33l.4-2.8a11.64,11.64,0,0,0-1.53-.84c-.7-.35-1.67-.78-2.87-1.27h-.4c-.6.21-1.2.37-1.77.52a9.11,9.11,0,0,1-1.63.18c-.1,0-1,.15-2.83.43s-4.37.7-7.76,1.27h-2.4v-3.25l.4-1.41a.37.37,0,0,1-.27-.09.2.2,0,0,1-.13-.19l.4-.57a1.88,1.88,0,0,1-.27-.51,1.29,1.29,0,0,1-.13-.61V117.4l-2.4-23.71.4-.56a2.52,2.52,0,0,0-.17-.76,4.38,4.38,0,0,0-.63-.94,3.88,3.88,0,0,1,.6-.51,1.17,1.17,0,0,1,.6-.19l-1.2-1.7v-.28a21.58,21.58,0,0,0,2.73-.52,7.43,7.43,0,0,0,1.67-.61h4.19c1.3-.21,2.37-.35,3.2-.44a16.57,16.57,0,0,1,2-.12,8.52,8.52,0,0,1,.77-2A3.51,3.51,0,0,1,294,83.81v-.28c-1.9-.92-3.3-1.62-4.23-2.14s-1.37-.82-1.37-1c-.4,0-1.4.07-3,.21l-6.76.63h-.4V79.58l-1-1V72.24c0-1.83,0-3.71.13-5.62s.17-3.9.27-6c-.1-1.9-.27-3.67-.47-5.27a36.9,36.9,0,0,0-.73-4.18,6.16,6.16,0,0,0,1-.12,5.18,5.18,0,0,0,1.17-.45c4.9,0,8.56-.11,11-.33s3.63-.51,3.63-.94a1.48,1.48,0,0,0,1.37-1,8.22,8.22,0,0,0,.43-3Z"/><path class="cls-3" d="M274.35,80.84a.06.06,0,0,1,0,0l.16,0Z"/><path class="cls-3" d="M269.56,138.17l-.51,0,.13.1a2.19,2.19,0,0,0,.77.36Z"/><path class="cls-3" d="M299.9,131.29c-.7-.35-1.66-.78-2.86-1.27h-.28c-.42-.19-.9-.39-1.41-.6H295c-.6.21-1.2.38-1.77.52a8.34,8.34,0,0,1-1.63.19c-.1,0-1,.14-2.83.42L281,131.82h-.71v-2.65l.4-1.41a.33.33,0,0,1-.26-.09.22.22,0,0,1-.14-.19l.4-.57a1.63,1.63,0,0,1-.26-.51,1.31,1.31,0,0,1-.14-.62v-9.87L277.85,92.2l.4-.56a2.45,2.45,0,0,0-.17-.76,4.38,4.38,0,0,0-.63-.94,3.88,3.88,0,0,1,.6-.51,1.17,1.17,0,0,1,.6-.19l-1.2-1.7v-.28a21.93,21.93,0,0,0,2.73-.52,7.84,7.84,0,0,0,1.66-.61H286c1.3-.21,2.37-.35,3.2-.44a16.47,16.47,0,0,1,2-.12,8.52,8.52,0,0,1,.77-2,3.51,3.51,0,0,1,1.23-1.25V82c-1.9-.92-3.3-1.62-4.23-2.14s-1.37-.82-1.37-1c-.18,0-.47,0-.88,0-.53-.31-.81-.53-.81-.64-.4,0-1.4.07-3,.21l-5.47.51v-1l-1-1V70.75c0-1.83,0-3.71.13-5.62s.17-3.9.27-5.95c-.1-1.9-.27-3.67-.47-5.27a36.9,36.9,0,0,0-.73-4.18,6.16,6.16,0,0,0,1-.12,5.18,5.18,0,0,0,1.17-.45c4.89,0,8.56-.12,11-.33s3.63-.51,3.63-.94a1.48,1.48,0,0,0,1.37-1,8.44,8.44,0,0,0,.43-3l-3.8-3.53h-1.05l-.64-.6q-9.3,0-27,1.69h-.4a9.57,9.57,0,0,0-1.16.54c-.3.17-.44.31-.44.45V53.08q3.6,50.16,3.6,57.57a82.8,82.8,0,0,0,.87,10.35c.6,4.26,1.43,9.34,2.53,15.19a1.63,1.63,0,0,0,.73,1.46,2.89,2.89,0,0,0,1.56.5l.51,0,.39.44a7.13,7.13,0,0,0,2,1.47,6.42,6.42,0,0,0,1.5.49l.19.1a6.62,6.62,0,0,0,2.84.64c2.89-.71,5.09-1.2,6.56-1.53a10.19,10.19,0,0,0,2.23-.59c5.3-.42,9.27-.8,11.87-1.13s3.93-.59,3.93-.8v-2.33l.4-2.8A11.26,11.26,0,0,0,299.9,131.29ZM274.36,80.88a.06.06,0,0,0,0,0l.17,0Z"/></g><g id="D-2" data-name="D"><path d="M474.43,137.28v.14c0,.35-.8.77-2.37,1.29s-3.93,1.11-7,1.81h-.8v-.28a38.93,38.93,0,0,0,4.93-1.58,16.13,16.13,0,0,0,3.27-1.66Zm.4-1.41c0-.07.3-.29.86-.66s1.44-.9,2.54-1.6h1.2l.4,1.41c-.6,0-1.6.56-3,1.69a5.63,5.63,0,0,1-1.54-.33C475,136.24,474.83,136.08,474.83,135.87ZM483,129a19.71,19.71,0,0,1,1.8.87c.4.21.6.4.6.54l-3.59,3.53a1.8,1.8,0,0,1-.7-.42,9.94,9.94,0,0,1-1.3-1.27,27.26,27.26,0,0,0,2.06-2.1c.5-.56.73-.94.73-1.15Zm1.2-2.26a3.3,3.3,0,0,1,1.2.31c.5.19,1.1.47,1.8.82a5.33,5.33,0,0,1-.56.83c-.2.21-.34.3-.44.3a6.33,6.33,0,0,1-2.4-1.69Zm2.2-2.39a1.29,1.29,0,0,1,.74.4,6.84,6.84,0,0,1,.86,1.15v.28a3.94,3.94,0,0,1-.66-.09c-.34-.05-.84-.12-1.54-.19v-.28l.4-1.27Zm.8-1.42a6.12,6.12,0,0,1,.87-1.27,1.22,1.22,0,0,1,.73-.42v2a.56.56,0,0,1-.16.44,1.42,1.42,0,0,1-.64.12,1.08,1.08,0,0,0-.16-.63A.81.81,0,0,0,487.22,122.88Zm6-13a21.29,21.29,0,0,1-.93,3.69c-.3.83-.67,1.25-1.07,1.25l.4-3.24v-2.26Zm.8-4.09v1.69l-.4.43a2,2,0,0,1-1.53-.52,2.42,2.42,0,0,1-.47-1.6Zm-2.4-3.39a1.38,1.38,0,0,1,.43.1l.77.19a1.93,1.93,0,0,0,.5-.1c.23,0,.6-.12,1.1-.19v2.26c-.8-.28-1.2-.56-1.2-.85a1.57,1.57,0,0,0-.47.1l-.73.19h-.4Zm-.4-4.37a2.88,2.88,0,0,0,1.3.63,7.45,7.45,0,0,0,1.9.22v2c-.8-.28-1.2-.56-1.2-.85l-2,.29Zm1.6-9.6h.4l.8-.28c.1,1.84.2,3.41.27,4.78s.13,2.49.13,3.41v.28l-2.4.28-.8-1.83V92.83l1.2.56h.4a1.36,1.36,0,0,0,.63-.11.6.6,0,0,0,.17-.45v-.28c0-1.13-.8-1.7-2.4-1.7V87.61Zm-1.6-5.5a3.66,3.66,0,0,1,2.07,1.51,4.87,4.87,0,0,1,.73,2.86h-.8c-1.6-1.55-2.4-2.53-2.4-3V83Zm-27-25.68a3.37,3.37,0,0,1,1.53.63,1.43,1.43,0,0,1,.47,1.06c0,2.26,0,4.26.13,6.05s.17,3.34.27,4.68c-.1,1.41-.2,2.84-.27,4.32s-.13,3-.13,4.57l3.2,28.36v7.9l.2,3.39c-.6,0-1.1-1.74-1.53-5.2s-.77-8.63-1.07-15.55q-1.35-12.17-2.07-22c-.5-6.52-.73-12.23-.73-17.1a.61.61,0,0,0-.13-.33c-.07-.14-.17-.31-.27-.52a.58.58,0,0,0,.27-.09A.2.2,0,0,0,464.23,57.27Zm1.2-1.69.8.28-.4.56a.78.78,0,0,1-.47-.12,1.06,1.06,0,0,1-.33-.44v-.28Zm-.8-1.27V55h-.8v-.7Zm18-3.11a30.14,30.14,0,0,1,4.64,5.74,38.66,38.66,0,0,1,3.56,7.53q.9,2.75,2.4,17.35h-.4a7.59,7.59,0,0,1-2.06-2,3.49,3.49,0,0,1-.74-2.09A51.8,51.8,0,0,0,488,62.51a31.5,31.5,0,0,0-6.13-11.31Zm-14.39-.85a48.89,48.89,0,0,1,5.83,5.6c1.3,1.53,2,2.73,2,3.58.7,0,1.4,3.22,2.13,9.64s1.57,16,2.47,28.88a74.86,74.86,0,0,1-.57,8.25c-.3,1.84-.63,2.76-1,2.76a26.53,26.53,0,0,1-1.54,9.61,14.24,14.24,0,0,1-4.66,6.47.52.52,0,0,0-.14-.44.32.32,0,0,0-.26-.12q-.45-12.7-1.37-24t-2.43-21.26c0-1.76,0-3.41.13-5s.17-3,.27-4.35c-.3-4.73-.5-8.68-.63-11.81s-.17-5.48-.17-7l-.4-.56a.38.38,0,0,0,.27-.1A.19.19,0,0,0,468.23,50.35Zm-4-.56c0,.14.13.35.43.63a14.1,14.1,0,0,0,1.17,1.06c-.1,0-.2.12-.27.33a3,3,0,0,0-.13,1.08h-1.6l-.4-1.41V49.79Zm-3.4-4.09,1,26.24q2.4,23.5,2.4,26.67v2.54c.3,2,.5,3.81.63,5.51s.17,3.24.17,4.65c.9,4,1.6,7.34,2.07,10a33.71,33.71,0,0,1,.73,5.72v2.25a4.7,4.7,0,0,0,.87.83,1.32,1.32,0,0,0,.73.3h.2a60.4,60.4,0,0,0,5.13-3.78c1.1-1,1.67-1.65,1.67-2Q481.23,122,483,103V89.86q-1-13.55-2.26-21.56c-.83-5.36-1.73-8.84-2.73-10.47a25.26,25.26,0,0,0-4.93-6.21,37.59,37.59,0,0,0-7.67-5.36h-2a1.67,1.67,0,0,0-.17-.82.67.67,0,0,0-.63-.31h-.8Zm-6-3.81a21.54,21.54,0,0,1,4.79-.85h1.6a18.73,18.73,0,0,1,3.63.82,38.19,38.19,0,0,1,3.77,1.58,34.29,34.29,0,0,1,10,7.62,41,41,0,0,1,7.16,11.43c.4,4.3.8,8.11,1.24,11.38a81.73,81.73,0,0,0,1.36,8.23q0,4.88.14,12.68c.06,5.22.16,11.38.26,18.51,0,1.62-.9,3.88-2.66,6.77a98.43,98.43,0,0,1-7.93,10.59,43.32,43.32,0,0,1-8,5.38,25.2,25.2,0,0,1-8,2.52v-5.79a46.42,46.42,0,0,0-.56-6.79c-.4-2.4-.94-5-1.64-7.74-.5-6.7-.93-12.11-1.33-16.23s-.77-7-1.07-8.61c0-1.55,0-3.81-.13-6.79s-.17-6.68-.27-11.13Zm4.39-2.54c-1.1,0-2.1,0-3,.12a9.64,9.64,0,0,0-2.23.44c-.1,0-.3.17-.6.52s-.7.82-1.2,1.46c.3,5,.6,10,1,14.81s.74,9.67,1.24,14.4v3l.4.57h-.4a1.29,1.29,0,0,0,.13.61,1.45,1.45,0,0,0,.27.51l-.4,1.13c0,3.74.13,7.74.43,12s.66,8.78,1.16,13.57a.34.34,0,0,0-.26.1.21.21,0,0,0-.14.19l.4,1.69v4.66q3.6,19.68,3.6,21.59v8.46a18.3,18.3,0,0,0,2.54,2.21,8,8,0,0,0,2.06,1.18,9.14,9.14,0,0,0,1.67-.21c.73-.14,1.63-.36,2.73-.64q11.25-3.5,16.93-8.46c3.76-3.32,5.66-7.13,5.66-11.43a6.12,6.12,0,0,0,1.53-2.12,7,7,0,0,0,.47-2.54,55.72,55.72,0,0,0,2-7.95,41.16,41.16,0,0,0,.63-7V91.42c0-2.33-.07-4.07-.17-5.2s-.33-1.72-.63-1.72c-.3-5.92-.73-10.84-1.33-14.72a38,38,0,0,0-2.07-8.7A42.85,42.85,0,0,0,486,52.61a12.57,12.57,0,0,0-5.36-3.81,87.34,87.34,0,0,0-11.53-7.1c-3.2-1.58-5.77-2.35-7.67-2.35Z"/><path d="M473.18,136.69v.14c0,.35-.8.78-2.36,1.3s-3.94,1.1-7,1.81H463v-.29a40.72,40.72,0,0,0,4.93-1.57,16.26,16.26,0,0,0,3.26-1.67Zm.4-1.41c0-.07.3-.28.87-.66s1.43-.89,2.53-1.6h1.2l.4,1.41c-.6,0-1.6.57-3,1.7a5.45,5.45,0,0,1-1.53-.33C473.75,135.66,473.58,135.49,473.58,135.28Zm8.2-6.91a17.36,17.36,0,0,1,1.8.87c.4.21.6.4.6.54l-3.6,3.52a2,2,0,0,1-.7-.42,9.32,9.32,0,0,1-1.3-1.27c.9-.85,1.6-1.55,2.07-2.09s.73-.94.73-1.15Zm1.2-2.26a3.24,3.24,0,0,1,1.2.3,18.39,18.39,0,0,1,1.8.83,4.94,4.94,0,0,1-.57.82c-.2.21-.33.31-.43.31a6.35,6.35,0,0,1-2.4-1.7Zm2.2-2.4a1.27,1.27,0,0,1,.73.4,6.7,6.7,0,0,1,.87,1.15v.28a4.13,4.13,0,0,1-.67-.09c-.33,0-.83-.12-1.53-.19V125l.4-1.27Zm.8-1.41a6,6,0,0,1,.86-1.27,1.26,1.26,0,0,1,.74-.43v2a.6.6,0,0,1-.17.45,1.36,1.36,0,0,1-.63.11,1.08,1.08,0,0,0-.17-.63A.81.81,0,0,0,486,122.3Zm6-13A20,20,0,0,1,491,113c-.3.82-.66,1.24-1.06,1.24l.4-3.24v-2.26Zm.81-4.1v1.7l-.41.42a2,2,0,0,1-1.53-.52,2.42,2.42,0,0,1-.46-1.6Zm-2.4-3.38a1.3,1.3,0,0,1,.43.09l.77.19a1.75,1.75,0,0,0,.49-.09c.24,0,.6-.12,1.1-.19v2.26c-.8-.29-1.2-.57-1.2-.85a1.49,1.49,0,0,0-.46.09l-.73.19h-.4Zm-.4-4.38a2.78,2.78,0,0,0,1.3.64,7.81,7.81,0,0,0,1.89.21v2c-.8-.29-1.2-.57-1.2-.85l-2,.28Zm1.6-9.59H492l.81-.28c.09,1.83.19,3.41.26,4.77s.13,2.49.13,3.41v.28l-2.39.28L490,94.5V92.24l1.2.57h.4a1.37,1.37,0,0,0,.63-.12.6.6,0,0,0,.16-.45V92c0-1.13-.79-1.69-2.39-1.69V87ZM490,82.36A3.65,3.65,0,0,1,492,83.87a4.91,4.91,0,0,1,.74,2.87H492c-1.59-1.55-2.39-2.54-2.39-3V82.36ZM463,56.68a3.37,3.37,0,0,1,1.53.64,1.39,1.39,0,0,1,.46,1.06c0,2.25,0,4.25.14,6s.16,3.34.26,4.68c-.1,1.41-.2,2.85-.26,4.33s-.14,3-.14,4.56l3.2,28.36v7.9l.2,3.39c-.6,0-1.1-1.74-1.53-5.2s-.77-8.63-1.06-15.54q-1.35-12.18-2.07-22c-.5-6.52-.73-12.23-.73-17.1a.64.64,0,0,0-.14-.33c-.06-.14-.16-.3-.26-.52a.43.43,0,0,0,.26-.09A.22.22,0,0,0,463,56.68Zm1.2-1.69.79.28-.39.57a.85.85,0,0,1-.47-.12,1.17,1.17,0,0,1-.33-.45V55Zm-.8-1.27v.7h-.8v-.7Zm18-3.11A30.42,30.42,0,0,1,486,56.35a38.37,38.37,0,0,1,3.57,7.53q.9,2.74,2.39,17.36h-.39a8.1,8.1,0,0,1-2.07-2,3.52,3.52,0,0,1-.73-2.1,51.43,51.43,0,0,0-2.07-15.21,31.31,31.31,0,0,0-6.13-11.32ZM467,49.77a48.32,48.32,0,0,1,5.84,5.6c1.29,1.52,2,2.72,2,3.57.7,0,1.4,3.22,2.13,9.64s1.57,16,2.47,28.88a75.28,75.28,0,0,1-.57,8.26c-.3,1.83-.63,2.75-1,2.75a26.82,26.82,0,0,1-1.53,9.62,14.37,14.37,0,0,1-4.67,6.47.57.57,0,0,0-.13-.45.4.4,0,0,0-.27-.12q-.45-12.7-1.36-24c-.64-7.55-1.44-14.63-2.44-21.26,0-1.77,0-3.41.14-5s.16-3,.26-4.35c-.3-4.72-.5-8.68-.63-11.8s-.17-5.48-.17-7l-.4-.56a.37.37,0,0,0,.27-.09A.2.2,0,0,0,467,49.77Zm-4-.57c0,.14.13.36.43.64s.67.63,1.17,1.06c-.1,0-.2.11-.27.33a2.93,2.93,0,0,0-.13,1.08h-1.6l-.4-1.41V49.2Zm-3.4-4.09,1,26.25Q463,94.85,463,98v2.54c.3,2,.5,3.81.63,5.5s.17,3.25.17,4.66q1.35,6,2.06,10a33.63,33.63,0,0,1,.73,5.71v2.26a5,5,0,0,0,.87.82,1.35,1.35,0,0,0,.73.31h.2c2.3-1.56,4-2.83,5.14-3.79s1.66-1.65,1.66-2q4.8-2.53,6.6-21.59V89.28c-.7-9-1.47-16.23-2.27-21.57s-1.73-8.84-2.73-10.46A24.67,24.67,0,0,0,471.85,51a37.4,37.4,0,0,0-7.66-5.36h-2a1.81,1.81,0,0,0-.17-.83.66.66,0,0,0-.63-.3h-.8Zm-6-3.81a22.14,22.14,0,0,1,4.8-.84H460a18.73,18.73,0,0,1,3.63.82,35.64,35.64,0,0,1,3.76,1.57,34.46,34.46,0,0,1,10,7.62,40.94,40.94,0,0,1,7.17,11.43c.4,4.31.8,8.12,1.23,11.39a82.37,82.37,0,0,0,1.37,8.23c0,3.24,0,7.48.13,12.67s.17,11.39.27,18.51c0,1.63-.9,3.88-2.67,6.78A96.16,96.16,0,0,1,477,130.06a42.5,42.5,0,0,1-8,5.38,24.9,24.9,0,0,1-8,2.52v-5.78a45.17,45.17,0,0,0-.57-6.8c-.4-2.4-.93-5-1.63-7.74q-.75-10-1.34-16.23c-.4-4.11-.76-7-1.06-8.6,0-1.56,0-3.81-.14-6.8s-.16-6.68-.26-11.12Zm4.4-2.54c-1.1,0-2.1.05-3,.12a9.2,9.2,0,0,0-2.23.45c-.1,0-.3.16-.6.51s-.7.83-1.2,1.46c.3,5,.6,10,1,14.82s.73,9.66,1.23,14.39v3l.4.57h-.4a1.29,1.29,0,0,0,.13.61,2,2,0,0,0,.27.52l-.4,1.13c0,3.74.13,7.73.43,12s.67,8.77,1.17,13.57a.37.37,0,0,0-.27.09.2.2,0,0,0-.13.19l.4,1.69v4.66q3.6,19.68,3.6,21.59v8.47a19.72,19.72,0,0,0,2.53,2.21,8.48,8.48,0,0,0,2.07,1.17,9.05,9.05,0,0,0,1.66-.21c.73-.14,1.63-.35,2.73-.63q11.25-3.49,16.93-8.47c3.77-3.32,5.67-7.13,5.67-11.43a6,6,0,0,0,1.53-2.12,7,7,0,0,0,.46-2.54,55.72,55.72,0,0,0,2-8,41.13,41.13,0,0,0,.63-7V90.83c0-2.33-.06-4.07-.16-5.2s-.34-1.71-.64-1.71c-.3-5.93-.73-10.85-1.33-14.73a37.68,37.68,0,0,0-2.06-8.7A42,42,0,0,0,484.74,52a12.29,12.29,0,0,0-5.36-3.81,86.91,86.91,0,0,0-11.53-7.11c-3.2-1.57-5.76-2.35-7.66-2.35Z"/><path class="cls-3" d="M468,40.44c-.43-.21-.85-.41-1.25-.58A86.69,86.69,0,0,1,478.31,47a4.91,4.91,0,0,1,.85.32A84.32,84.32,0,0,0,468,40.44Z"/><path class="cls-3" d="M479.16,47.28l.4.27a4.34,4.34,0,0,1,.47.16A5.84,5.84,0,0,0,479.16,47.28Z"/><path class="cls-3" d="M494.58,85c-.13-1.15-.33-1.71-.63-1.71-.3-5.93-.73-10.84-1.33-14.73a38.12,38.12,0,0,0-2.07-8.7,42.45,42.45,0,0,0-5.63-8.46A13,13,0,0,0,480,47.71a4.34,4.34,0,0,0-.47-.16l-.4-.27a4.91,4.91,0,0,0-.85-.32,86.69,86.69,0,0,0-11.53-7.1l-.12-.06c-3.15-1.54-5.66-2.29-7.54-2.29h-2.2c-1.1,0-2.1,0-3,.11a10.27,10.27,0,0,0-2.23.45c-.1,0-.3.17-.6.52s-.7.82-1.2,1.46c.3,5,.6,9.94,1,14.81s.73,9.67,1.23,14.4v3l.4.56h-.4a1.27,1.27,0,0,0,.13.61,1.8,1.8,0,0,0,.27.52l-.4,1.13c0,3.74.13,7.74.43,12s.67,8.77,1.17,13.57a.38.38,0,0,0-.27.1.18.18,0,0,0-.13.18l.4,1.7v4.65q3.6,19.7,3.6,21.59v8.47a18.27,18.27,0,0,0,2.53,2.21,8.91,8.91,0,0,0,2.07,1.18H462a6.7,6.7,0,0,0,1.18.58,9.14,9.14,0,0,0,1.67-.21c.73-.14,1.63-.35,2.73-.63q11.25-3.5,16.93-8.47c3.76-3.32,5.66-7.13,5.66-11.43a6.19,6.19,0,0,0,1.54-2.12,7,7,0,0,0,.46-2.54,55.72,55.72,0,0,0,2-8,41.13,41.13,0,0,0,.63-7V90.16C494.75,87.83,494.68,86.09,494.58,85ZM470,99.29Q469,88,467.56,78c0-1.77,0-3.41.13-5s.17-3,.27-4.35c-.3-4.72-.5-8.68-.63-11.8s-.17-5.48-.17-7l-.4-.57a.39.39,0,0,0,.15,0,45,45,0,0,1,4.84,4.75c1.3,1.53,2,2.73,2,3.57.7,0,1.4,3.23,2.14,9.65s1.56,16,2.46,28.88a74.86,74.86,0,0,1-.57,8.25c-.3,1.84-.63,2.75-1,2.75a26.82,26.82,0,0,1-1.53,9.62,14.35,14.35,0,0,1-3.85,5.78Q470.88,110.31,470,99.29Z"/></g><g id="A-2" data-name="A"><path d="M513.88,139.54c1.5-.08,2.83-.15,4-.19s2.1-.1,2.8-.1v.57l-.4.56-3.47-.19c-1-.07-1.83-.09-2.53-.09h-.4Zm37.59-1.7c0-.21.56-.44,1.66-.73s2.73-.54,4.93-.82v.28c0,.35-.5.64-1.53.85a29.89,29.89,0,0,1-4.66.42Zm-3.6-14.53,2.4,13.26-.8.28h-.4a18.83,18.83,0,0,0-.6-4.61,24.44,24.44,0,0,0-1.8-4.84l.8-.85v-.84h-1v-1.27a3.17,3.17,0,0,0,.46-.62,1.19,1.19,0,0,0,.14-.51Zm-1.2-2.54a1.22,1.22,0,0,1,.63.12.56.56,0,0,1,.17.44v.28a3.14,3.14,0,0,1-.57.64.9.9,0,0,1-.43.21h-.4A3.74,3.74,0,0,1,546.67,120.77Zm-.6-3a.82.82,0,0,1,.46.12.59.59,0,0,1,.14.45v1.13q0,.42-.6.42h-.4v-1.55Zm-.8-3.66a1.36,1.36,0,0,1,.63.11.6.6,0,0,1,.17.45v.85l-.4,1.41h-.8V114.7Zm-1.2-2.12c.6-.57,1-.85,1.2-.85v1.41a.57.57,0,0,1-.17.45,1.34,1.34,0,0,1-.63.12h-.4l.4-.57Zm-31.59-1.69a16.78,16.78,0,0,1,3-1.7v3.11c-.8,4.37-1.4,8.18-1.8,11.4a67.52,67.52,0,0,0-.6,7.93h-.2c0-5.86,0-10.51-.13-14S512.58,111.38,512.48,110.33Zm31.19-1.13c.4-.57.8-.85,1.2-.85h.4l-.8,2h-.8Zm-.4-1.56c0-1,.4-1.55,1.2-1.69v.28l-.4,1.41Zm-30.79-.84a4.53,4.53,0,0,0,.9-.33c.5-.24,1.2-.59,2.1-1.08v2a4.55,4.55,0,0,0-1.23.19c-.4.14-.87.31-1.37.52h-.4Zm31.59-3.11c0,1-.4,1.56-1.2,1.7v-.29l.4-1.41Zm-1.6-1.83a.6.6,0,0,1,.17-.45,1.34,1.34,0,0,1,.63-.12v1.27h-.8Zm-29.59-.57c0-.07.2-.25.63-.54s1.07-.65,2-1.15v3.53c0,.21-.2.45-.63.73a10,10,0,0,1-2,1h-.4l.4-1.41Zm28.79-1.41a.56.56,0,0,1,.17-.44,1.34,1.34,0,0,1,.63-.12h.4l-.4,1.41h-.8ZM526.87,99c0-.21.24-.4.74-.54a9.8,9.8,0,0,1,2.06-.31c0,.21-.2.4-.6.56a14,14,0,0,1-1.8.57.2.2,0,0,0-.13-.19A.37.37,0,0,0,526.87,99Zm-11.39-1.7v.57A11.6,11.6,0,0,1,514.25,99a1.52,1.52,0,0,1-.77.33h-.4V98.19a2.63,2.63,0,0,0,1.17-.21.66.66,0,0,0,.43-.64Zm22.59-.28A9.37,9.37,0,0,0,539.4,97c.47,0,1-.12,1.47-.19,0,.14-.13.28-.43.42a7.29,7.29,0,0,1-1.17.43l-.77-.19a1.38,1.38,0,0,0-.43-.1Zm-25,0a2.55,2.55,0,0,1,.6-1.81,3,3,0,0,1,1.8-.87v1.41a15.57,15.57,0,0,1-1.23,1,1.43,1.43,0,0,1-.77.3Zm.4-4.09a8.05,8.05,0,0,1,1.3-1.08,2.41,2.41,0,0,1,.7-.33h.4v.28a1.71,1.71,0,0,1-.6,1.29,5.34,5.34,0,0,1-1.8,1Zm2.8-13c0,.49,0,1.55-.14,3.17s-.16,3.81-.26,6.56a.87.87,0,0,1-.43.66,11.74,11.74,0,0,1-1.17.9l-.8-.29.4-.56v-7.9a2,2,0,0,1,.43-1c.27-.42.67-.94,1.17-1.57Zm-1.2-.85a1.11,1.11,0,0,1,.43-.89,4.3,4.3,0,0,1,1.17-.66l-.4,1.55ZM528.47,68.7a145.7,145.7,0,0,1,9,22l-9.4.57h-.4c0-2.4,0-5.46.14-9.2S528,74,528.07,69V68.7Zm-12.59,0,.8-.28v.28a4.55,4.55,0,0,1-.87,1.08,1.41,1.41,0,0,1-.73.33V68.42Zm1.2-1.13c.5-.49.9-.87,1.23-1.15a1.35,1.35,0,0,1,.77-.4v.56a11,11,0,0,1-.14,1.7c-.06.63-.16,1.34-.26,2.11a15.28,15.28,0,0,1-1.34,5A2.63,2.63,0,0,1,515.08,77h-.4a4.46,4.46,0,0,1,.7-1.78,9.39,9.39,0,0,1,1.3-1.6.4.4,0,0,0-.17-.33,1.68,1.68,0,0,0-.63-.24l-.8.29v-.71a3.05,3.05,0,0,1,.77-1.51,25.87,25.87,0,0,1,2.43-2.44v-.28A.45.45,0,0,0,518,68a2.82,2.82,0,0,0-.9-.12Zm0-3.53a1.93,1.93,0,0,0,.63-.33c.3-.23.77-.59,1.37-1.08V64L517.14,66a5.37,5.37,0,0,0-.86,1.06h-.8l.8-3.25Zm11.39-4.37c.3.07,1,1.43,2,4.11s2.43,6.61,4.23,11.83l6.2,15.1h-.8a.89.89,0,0,1-.47-.23,4.51,4.51,0,0,1-.73-.76c-1.3-4.51-2.6-8.46-4-11.87a49.11,49.11,0,0,0-4.23-8.59,26.47,26.47,0,0,0-1.46-4.56c-.44-1-.84-1.5-1.14-1.5.1-.5.2-1,.27-1.6A11.64,11.64,0,0,0,528.47,59.67Zm.4-10.73c-.7,0-1.36,1.27-2,3.79A93,93,0,0,0,525.27,64c0,1.77,0,4.87-.13,9.27s-.16,10.13-.26,17.12l-.4,2.54,2,.85c.9-.29,1.6-.5,2.14-.64a5.57,5.57,0,0,1,1.26-.21c1.7,0,3.57,0,5.57-.09l6.63-.19,1.2.56a10.08,10.08,0,0,0,2.4-1.69v-.28c0-.22-.14-.36-.44-.45a4.72,4.72,0,0,0-1.16-.12c-.8-1.62-1.43-2.84-1.93-3.69s-.77-1.25-.87-1.25c-1.1-3.45-2.5-7.29-4.17-11.52s-3.53-8.8-5.63-13.74a82.78,82.78,0,0,0-1.23-8.7C529.84,49.88,529.37,48.94,528.87,48.94Zm-8.19-1.69c0,.07-.1,1-.3,2.73s-.5,4.33-.9,7.71V60.8c-.8.7-1.44,1.24-1.94,1.6a2.49,2.49,0,0,1-.86.51l.4-3.24V58.54l1.2-1.13v-.56h-1.2a13.24,13.24,0,0,1,.73-3.58c.47-1.62,1.17-3.62,2.07-6Zm-.4-2.26a.39.39,0,0,1,.16-.33,2.08,2.08,0,0,1,.64-.23v1.13a.56.56,0,0,1-.17.44,1.34,1.34,0,0,1-.63.12Zm-1.6,36.41c.3-1.69.66-3.41,1.1-5.18a40.66,40.66,0,0,1,1.7-5.26q.45-9,.76-13.46c.24-3,.44-4.46.64-4.46.2-3.74.46-6.57.76-8.45s.74-2.84,1.24-2.84h.79q4.5,0,6.6,4.65Q545,82.91,551.33,104.85c4.23,14.65,6.33,24.45,6.33,29.46a19.92,19.92,0,0,1-2.53.45c-.77.07-1.47.12-2.07.12h-.4a55.31,55.31,0,0,0-1-5.9c-.66-3.41-1.66-8.28-3-14.56-1.3-6.56-2.3-11.5-3.07-14.79s-1.23-5-1.53-5q-4.8.42-9,.87t-7.8,1a16.48,16.48,0,0,1-1.76,1.71,2.41,2.41,0,0,1-1,.54c-.1,2-.2,3.67-.27,5.11s-.13,2.59-.13,3.5c-.5,4-1,8.47-1.37,13.36s-.73,10.28-1,16.13c0,.29-.2.43-.6.43h-2.8l-2.8.28a106.11,106.11,0,0,1,.73-11.83c.47-4.4,1.17-9.27,2.07-14.56v-4.09a19.35,19.35,0,0,0-.14-2.45c-.06-.8-.16-1.57-.26-2.35.3-2,.5-4.56.63-7.55s.17-6.49.17-10.51l.4-2.54a.37.37,0,0,1-.27-.09A.2.2,0,0,1,518.68,81.4Zm6.59-41.63a6.07,6.07,0,0,0-2.69.87,24.93,24.93,0,0,0-3.9,2.66,12.93,12.93,0,0,1-.77,3.69,42.15,42.15,0,0,1-2.43,5.48,63.56,63.56,0,0,1-.7,8.77c-.37,2.12-.8,3.44-1.3,3.93q-.45,8.58-.9,12.82c-.3,2.84-.6,4.25-.9,4.25l.4,1.13c0,3.18-.17,6.78-.47,10.78s-.83,8.41-1.53,13.21q.3,15.24,1.2,29.21c-.3,1.2-.5,2.12-.63,2.78s-.17,1.1-.17,1.31a2.84,2.84,0,0,0,1.2.83,5.06,5.06,0,0,0,1.8.3h7.6c.1,0,.33-.21.73-.63s.87-1.06,1.47-1.91q1.5,0,3.59-38.52h.8a36.24,36.24,0,0,1,5-1.29c1.93-.36,4.13-.69,6.63-1l2,8.33c.9,6.77,1.8,12.2,2.66,16.32a36.84,36.84,0,0,0,2.54,8.37c.3,2.47.56,4.38.76,5.72a6.74,6.74,0,0,0,.64,2.33c2.7-.08,4.79-.17,6.23-.29a12.8,12.8,0,0,0,2.36-.28,4.24,4.24,0,0,0,2.84-1,7.5,7.5,0,0,0,2-3.06v-.57a3.83,3.83,0,0,1-.76-.94,4.21,4.21,0,0,1-.44-1q0-4.34-2.73-15.36t-8.26-28.67Q545,75.52,541.9,66.18c-2.1-6.21-3.83-11.24-5.23-15.12q-1.35-5.61-4.2-8.44A9.72,9.72,0,0,0,525.27,39.77Z"/><path d="M512.63,139l4-.19c1.17-.07,2.1-.09,2.8-.09v.56l-.4.57c-1.3-.07-2.46-.15-3.46-.19s-1.84-.1-2.54-.1h-.4Zm37.59-1.69c0-.22.57-.45,1.67-.73s2.73-.54,4.93-.83V136c0,.35-.5.63-1.54.84a30.76,30.76,0,0,1-4.66.43Zm-3.6-14.54L549,136l-.8.28h-.4a18.77,18.77,0,0,0-.6-4.61,24.52,24.52,0,0,0-1.8-4.85l.8-.84v-.85h-1v-1.27a3,3,0,0,0,.47-.61,1.19,1.19,0,0,0,.13-.52Zm-1.2-2.54a1.34,1.34,0,0,1,.63.12.57.57,0,0,1,.17.45V121a3.33,3.33,0,0,1-.57.63.9.9,0,0,1-.43.21h-.4A3.77,3.77,0,0,1,545.42,120.18Zm-.6-3a.85.85,0,0,1,.47.12.55.55,0,0,1,.13.44v1.13q0,.42-.6.42h-.4v-1.55Zm-.8-3.67a1.34,1.34,0,0,1,.63.12.56.56,0,0,1,.17.44V115l-.4,1.41h-.8v-2.26Zm-1.2-2.12q.9-.84,1.2-.84V112a.56.56,0,0,1-.16.44,1.42,1.42,0,0,1-.64.12h-.4l.4-.56Zm-31.59-1.69a16.32,16.32,0,0,1,3-1.69v3.1q-1.2,6.55-1.8,11.41a67.37,67.37,0,0,0-.6,7.92h-.2c0-5.85,0-10.51-.13-14S511.33,110.8,511.23,109.74Zm31.19-1.13c.4-.56.8-.85,1.2-.85h.4l-.8,2h-.8Zm-.4-1.55c0-1,.4-1.55,1.2-1.69v.28l-.4,1.41Zm-30.79-.85a4.53,4.53,0,0,0,.9-.33q.75-.34,2.1-1.08v2A5,5,0,0,0,513,107c-.4.15-.87.31-1.37.52h-.4Zm31.59-3.1c0,1-.4,1.55-1.2,1.69v-.28l.4-1.41Zm-1.6-1.84a.56.56,0,0,1,.17-.44,1.34,1.34,0,0,1,.63-.12V102h-.8Zm-29.59-.56c0-.07.2-.26.64-.54s1.06-.66,2-1.15v3.52c0,.21-.2.45-.63.73a10.51,10.51,0,0,1-2,1h-.4l.4-1.41Zm28.79-1.41a.59.59,0,0,1,.17-.45,1.34,1.34,0,0,1,.63-.12h.4l-.4,1.41h-.8Zm-14.79-.85c0-.21.23-.4.73-.54a10.77,10.77,0,0,1,2.07-.31c0,.22-.2.4-.6.57a16.26,16.26,0,0,1-1.8.56.2.2,0,0,0-.13-.19A.37.37,0,0,0,525.63,98.45Zm-11.4-1.69v.56A9.67,9.67,0,0,1,513,98.4a1.43,1.43,0,0,1-.77.33h-.4V97.6a2.63,2.63,0,0,0,1.17-.21.65.65,0,0,0,.43-.63Zm22.59-.28a9.63,9.63,0,0,0,1.34-.1l1.46-.19c0,.14-.13.29-.43.43A6.53,6.53,0,0,1,538,97l-.76-.19a1.35,1.35,0,0,0-.44-.09Zm-25,0a2.58,2.58,0,0,1,.6-1.82,3.12,3.12,0,0,1,1.8-.87v1.42a13.11,13.11,0,0,1-1.23,1,1.45,1.45,0,0,1-.77.31Zm.4-4.1a9.15,9.15,0,0,1,1.3-1.08,2.41,2.41,0,0,1,.7-.33h.4v.28a1.73,1.73,0,0,1-.6,1.3,5.52,5.52,0,0,1-1.8,1Zm2.8-13c0,.5,0,1.55-.13,3.18s-.17,3.81-.27,6.56c0,.21-.13.42-.43.66a11.9,11.9,0,0,1-1.17.89l-.8-.28.4-.57v-7.9a1.94,1.94,0,0,1,.44-1,18.26,18.26,0,0,1,1.16-1.58Zm-1.2-.85a1.12,1.12,0,0,1,.44-.89,4.34,4.34,0,0,1,1.16-.66l-.4,1.55Zm13.4-10.44a144.93,144.93,0,0,1,9,22l-9.39.56h-.4c0-2.4,0-5.46.13-9.2s.17-8.09.27-13.1v-.28Zm-12.6,0,.8-.28v.28a4.59,4.59,0,0,1-.86,1.08,1.36,1.36,0,0,1-.74.33V67.83Zm1.2-1.13c.5-.49.9-.87,1.24-1.15a1.33,1.33,0,0,1,.76-.4V66a10.82,10.82,0,0,1-.13,1.69c-.07.63-.17,1.34-.27,2.12a15.47,15.47,0,0,1-1.33,5,2.66,2.66,0,0,1-2.27,1.67h-.4a4.59,4.59,0,0,1,.7-1.79,10.24,10.24,0,0,1,1.3-1.6.39.39,0,0,0-.16-.33,2.08,2.08,0,0,0-.64-.23l-.8.28v-.71a3,3,0,0,1,.77-1.5A24.62,24.62,0,0,1,517,68.11v-.28a.47.47,0,0,0-.3-.45,2.87,2.87,0,0,0-.9-.11Zm0-3.52a2,2,0,0,0,.64-.33c.29-.24.76-.59,1.36-1.09v1.42c-.8.77-1.43,1.41-1.93,1.9a5.46,5.46,0,0,0-.87,1.06h-.8l.8-3.25Zm11.4-4.38c.3.07,1,1.44,2,4.12s2.44,6.61,4.24,11.83l6.19,15.1h-.8a.91.91,0,0,1-.46-.24,4.75,4.75,0,0,1-.74-.75,124.83,124.83,0,0,0-4-11.88,49,49,0,0,0-4.23-8.58A25.35,25.35,0,0,0,528,64.11c-.43-1-.83-1.5-1.13-1.5.1-.49.2-1,.26-1.6A11.51,11.51,0,0,0,527.23,59.08Zm.4-10.72c-.7,0-1.37,1.27-2,3.78A93.67,93.67,0,0,0,524,63.46c0,1.76,0,4.86-.13,9.26s-.17,10.14-.27,17.12l-.4,2.54,2,.85,2.13-.64a5.72,5.72,0,0,1,1.27-.21c1.7,0,3.56,0,5.56-.09l6.63-.19,1.2.57a9.92,9.92,0,0,0,2.4-1.7v-.28c0-.21-.13-.35-.43-.45a5,5,0,0,0-1.17-.11c-.8-1.63-1.43-2.85-1.93-3.7s-.77-1.24-.87-1.24c-1.1-3.46-2.5-7.29-4.16-11.53s-3.53-8.79-5.63-13.73a79.64,79.64,0,0,0-1.24-8.7C528.59,49.3,528.13,48.36,527.63,48.36Zm-8.2-1.7c0,.07-.1,1-.3,2.73s-.5,4.33-.9,7.72v3.1a24,24,0,0,1-1.93,1.6,2.7,2.7,0,0,1-.87.52l.4-3.25V58l1.2-1.13v-.56h-1.2a13.35,13.35,0,0,1,.74-3.58c.46-1.62,1.16-3.62,2.06-6Zm-.4-2.25a.39.39,0,0,1,.17-.33,1.68,1.68,0,0,1,.63-.24V45a.6.6,0,0,1-.17.45,1.36,1.36,0,0,1-.63.11Zm-1.6,36.4q.45-2.53,1.1-5.17a40.79,40.79,0,0,1,1.7-5.27c.3-6,.57-10.49.77-13.45s.43-4.47.63-4.47c.2-3.74.47-6.56.77-8.44s.73-2.85,1.23-2.85h.8q4.5,0,6.6,4.66,12.74,36.51,19.06,58.44t6.33,29.47a21.89,21.89,0,0,1-2.54.44,20.06,20.06,0,0,1-2.06.12h-.4a55.77,55.77,0,0,0-1-5.9c-.67-3.41-1.67-8.28-3-14.56-1.3-6.56-2.3-11.5-3.06-14.79s-1.24-5-1.54-5c-3.2.28-6.2.56-9,.87s-5.4.61-7.8,1a15.77,15.77,0,0,1-1.77,1.72,2.48,2.48,0,0,1-1,.54c-.1,2-.2,3.67-.27,5.1s-.13,2.59-.13,3.51c-.5,4-1,8.46-1.37,13.35s-.73,10.28-1,16.14q0,.42-.6.42H517l-2.8.28a106.61,106.61,0,0,1,.74-11.83c.46-4.39,1.16-9.26,2.06-14.55v-4.1a19.23,19.23,0,0,0-.13-2.44c-.07-.8-.17-1.58-.27-2.35.3-2,.5-4.57.64-7.55s.16-6.49.16-10.52l.4-2.54a.33.33,0,0,1-.26-.09A.22.22,0,0,1,517.43,80.81ZM524,39.19a6.06,6.06,0,0,0-2.7.87,24.1,24.1,0,0,0-3.9,2.65,13.33,13.33,0,0,1-.76,3.7,43.76,43.76,0,0,1-2.44,5.47,63.87,63.87,0,0,1-.7,8.78c-.36,2.11-.8,3.43-1.3,3.92q-.45,8.58-.9,12.82c-.3,2.85-.6,4.26-.9,4.26l.4,1.13c0,3.17-.16,6.77-.46,10.77s-.84,8.42-1.54,13.22Q509.13,122,510,136c-.3,1.19-.5,2.11-.63,2.77s-.17,1.11-.17,1.32a2.92,2.92,0,0,0,1.2.82,5,5,0,0,0,1.8.31h7.6c.1,0,.33-.21.73-.64s.87-1.06,1.47-1.9q1.5,0,3.6-38.53h.8a37.56,37.56,0,0,1,5-1.29c1.94-.35,4.13-.68,6.63-1l2,8.32q1.35,10.17,2.67,16.32a37.1,37.1,0,0,0,2.53,8.38c.3,2.47.57,4.37.77,5.71a6.51,6.51,0,0,0,.63,2.33c2.7-.07,4.8-.17,6.23-.28a12.28,12.28,0,0,0,2.37-.29,4.22,4.22,0,0,0,2.83-1,7.51,7.51,0,0,0,2-3.06v-.56a4,4,0,0,1-1.2-2c0-2.89-.9-8-2.74-15.35s-4.56-16.89-8.26-28.67q-4.05-12.81-7.16-22.13t-5.23-15.13q-1.35-5.61-4.2-8.44A9.75,9.75,0,0,0,524,39.19Z"/><path class="cls-3" d="M559.43,132.12a4.11,4.11,0,0,1-.44-1c0-2.89-.9-8-2.73-15.35S551.7,98.84,548,87.06q-4.05-12.81-7.17-22.13c-2.1-6.21-3.83-11.25-5.23-15.13q-1.35-5.61-4.2-8.44a9.33,9.33,0,0,0-3.22-2.13h0A10.26,10.26,0,0,0,523,37.93a6.06,6.06,0,0,0-2.7.87,24.25,24.25,0,0,0-3.9,2.66,12.92,12.92,0,0,1-.76,3.69,43.81,43.81,0,0,1-2.44,5.48,63.7,63.7,0,0,1-.7,8.77c-.36,2.12-.8,3.44-1.3,3.93-.3,5.71-.59,10-.9,12.82s-.59,4.25-.89,4.25l.39,1.13c0,3.18-.16,6.78-.46,10.77s-.83,8.42-1.53,13.22q.3,15.24,1.2,29.21c-.3,1.2-.5,2.12-.64,2.77a13.13,13.13,0,0,0-.16,1.32,2.93,2.93,0,0,0,1.2.83,3.19,3.19,0,0,0,.44.13,3,3,0,0,0,.8.45,5,5,0,0,0,1.8.31H520c.1,0,.33-.21.73-.64s.87-1.06,1.47-1.9q1.5,0,3.6-38.53h.8a37.15,37.15,0,0,1,5-1.29c1.65-.3,3.49-.58,5.56-.83L539,105q1.35,10.16,2.67,16.32a37,37,0,0,0,2.53,8.37c.3,2.47.57,4.37.77,5.71a6.44,6.44,0,0,0,.63,2.33l1,0a1.59,1.59,0,0,0,.27.62c2.7-.07,4.8-.17,6.23-.28a13.94,13.94,0,0,0,2.36-.28,4.25,4.25,0,0,0,2.84-1,7.5,7.5,0,0,0,2-3.06v-.56A4,4,0,0,1,559.43,132.12ZM526.61,89.38c0-2.3,0-5.14.13-8.56s.16-7.65.25-12.35a153.61,153.61,0,0,1,8.17,20.4Z"/></g><g id="L-3" data-name="L"><path d="M606.11,139c0-.14.13-.28.43-.42a7.29,7.29,0,0,1,1.17-.43v1.13h-1.6Zm-6.2-.56a1.43,1.43,0,0,0,.44-.1l.76-.19h.8c0,.15-.13.29-.43.43a6.53,6.53,0,0,1-1.17.42h-.4Zm-2.4.28a.4.4,0,0,1,.17-.33,1.87,1.87,0,0,1,.63-.24h.8c0,.15-.13.29-.43.43a6.53,6.53,0,0,1-1.17.42Zm-2.79,0c0-.14.16-.28.46-.42a7.48,7.48,0,0,1,1.53-.43v.28c0,.15-.13.29-.43.43a6.68,6.68,0,0,1-1.16.42h-.4Zm-3,0c0-.42.8-.71,2.4-.85h.2v.57l-1.8.28Zm-2.8,0c.4-.57.8-.85,1.2-.85h1.2c0,.14-.14.28-.44.43a6.11,6.11,0,0,1-1.16.42Zm-8.2-1.13a1.3,1.3,0,0,0,.43-.09l.77-.19q1.35,0,2.7.12a21.08,21.08,0,0,1,2.7.44l.73-.19a1.49,1.49,0,0,1,.47-.09h.4a1.25,1.25,0,0,1-.64.56,9,9,0,0,1-1.36.57l-2.2-.28h-4Zm-1.6-15.66v2.54a11.71,11.71,0,0,1-.13,1.67c-.07.7-.17,1.5-.27,2.42h-.4l-.4-2.82v-2.4l.4-1.41Zm-1.2-2a4,4,0,0,1,.6-.52,1.26,1.26,0,0,1,.6-.18v.42c0,1-.4,1.55-1.2,1.69Zm0-1.83c.4-.57.8-.85,1.2-.85v.85q-.6.84-1.2.84Zm0-1.7q.6-.84,1.2-.84a2.43,2.43,0,0,1-.43,1.08,1.05,1.05,0,0,1-.77.33Zm-.4-1.13a1.53,1.53,0,0,1,.43-1.17,2.34,2.34,0,0,1,1.17-.66v1q-.6.84-1.2.84Zm0-2.11a1.78,1.78,0,0,1,.43-1.25,2.17,2.17,0,0,1,1.17-.73v1.7a1.3,1.3,0,0,0-.43.09l-.77.19Zm-1.6-69.71a2.4,2.4,0,0,0,.17.75,8.57,8.57,0,0,0,.43,1.08,3.77,3.77,0,0,1-.6,1.7l.6,1.27Q577,64.85,577.59,80t1.53,28.78a10.21,10.21,0,0,1-1.43,1.79,2.08,2.08,0,0,1-1.17.61q-.6-25.71-.9-42.4t-.3-24.2V43.44Zm2.8-1.41c.7.07,1.23.14,1.63.19s.67.09.77.09c.9,0,1.6.59,2.07,1.79a14.21,14.21,0,0,1,.73,5.27c-.1.21-.2.37-.27.51a.64.64,0,0,0-.13.33l.4,1.41-.4,2.54a.38.38,0,0,1,.27.1.2.2,0,0,1,.13.19.37.37,0,0,0-.27.09.2.2,0,0,0-.13.19v1l.4.56h-.4a2.22,2.22,0,0,0,.13.87,2.09,2.09,0,0,0,.27.54l-.4,4.38q-.15,17.88-.27,30.81c-.1,8.63-.13,15.61-.13,21a3.82,3.82,0,0,0,.13.92c.07.4.17.85.27,1.34a.32.32,0,0,0-.27.21,1.13,1.13,0,0,0-.13.64q1.2,14.17,2.4,16.51l3.8-.28h2a68.38,68.38,0,0,1,7.63.3c1.7.19,2.56.47,2.56.82a2.47,2.47,0,0,0,.77-.09,5.19,5.19,0,0,0,.63-.19c1.1.21,2.13.35,3.13.45s2,.12,2.87.12h.4a1.76,1.76,0,0,1-.13.75,4.8,4.8,0,0,1-.27.66c0,.28-.33.49-1,.63a15.7,15.7,0,0,1-3,.21h-.4l-2.2-.28-.76.19a1.35,1.35,0,0,1-.44.09,1.44,1.44,0,0,1-.46-.09l-.74-.19-.8.28c-.3-.07-.56-.14-.8-.18a2.78,2.78,0,0,0-.8-.1h-2c-1,0-2.66,0-5-.12s-5.33-.23-9-.44c-.2,0-.4-.31-.6-.94a20.1,20.1,0,0,1-.6-2.73c.4-2.61.7-4.78.9-6.49a37,37,0,0,0,.3-3.95v-5.51q-1.35-22.53-2.37-40.73t-1.63-32.08a1.05,1.05,0,0,1,.3-.66A6.88,6.88,0,0,1,578.72,42Zm-5.4,1.27,3.2,94a1.81,1.81,0,0,1,1.23.63,11.11,11.11,0,0,1,1.37,1.91c7.2.28,13.2.49,18,.63s8.33.21,10.63.21c1.8,0,3.2-2.39,4.2-7.19l-.4-.57a9,9,0,0,0-1.2.1c-.5,0-1.1.11-1.8.19-4.3-.57-8.1-1-11.36-1.27s-6-.43-8.23-.43l-.8.28c0-.07-.07-.14-.17-.18a1.39,1.39,0,0,0-.63-.1c-.6-.35-1.1-2.89-1.47-7.57s-.63-11.55-.73-20.51l.4-1.83-.4-1.41q.6-18.84.6-49.11c0-1.41-.07-2.8-.17-4.12s-.23-2.58-.43-3.78c0-.85-.57-1.53-1.67-2a15.25,15.25,0,0,0-5.13-.82Z"/><path d="M604.87,138.38c0-.14.13-.28.43-.42a6.38,6.38,0,0,1,1.16-.42v1.13h-1.59Zm-6.2-.56a1.3,1.3,0,0,0,.43-.09l.77-.19h.8c0,.14-.14.28-.44.42a6.11,6.11,0,0,1-1.16.42h-.4Zm-2.4.28a.39.39,0,0,1,.16-.33,2.08,2.08,0,0,1,.64-.23h.8c0,.14-.14.28-.44.42a6.11,6.11,0,0,1-1.16.42Zm-2.8,0c0-.14.17-.28.47-.42a8.34,8.34,0,0,1,1.53-.42v.28c0,.14-.13.28-.43.42a6.53,6.53,0,0,1-1.17.42h-.4Zm-3,0q0-.63,2.4-.84h.2v.56l-1.8.28Zm-2.8,0q.6-.84,1.2-.84h1.2c0,.14-.13.28-.43.42a6.53,6.53,0,0,1-1.17.42Zm-8.2-1.13a1.35,1.35,0,0,0,.44-.09l.76-.19c.9,0,1.8.05,2.7.12a19.5,19.5,0,0,1,2.7.45c.3-.08.54-.15.74-.19a1.47,1.47,0,0,1,.46-.1h.4a1.32,1.32,0,0,1-.63.57,10.63,10.63,0,0,1-1.37.56l-2.2-.28h-4Zm-1.59-15.66v2.54a11.86,11.86,0,0,1-.14,1.67c-.06.71-.16,1.51-.26,2.42h-.4l-.4-2.82v-2.4l.4-1.41Zm-1.2-2a3.88,3.88,0,0,1,.6-.51,1.17,1.17,0,0,1,.6-.19v.42c0,1-.4,1.55-1.2,1.7Zm0-1.83c.4-.56.8-.85,1.2-.85v.85c-.4.56-.8.85-1.2.85Zm0-1.69c.4-.57.8-.85,1.2-.85a2.37,2.37,0,0,1-.44,1.08,1,1,0,0,1-.76.33Zm-.4-1.13a1.53,1.53,0,0,1,.43-1.18,2.5,2.5,0,0,1,1.17-.66v1c-.4.57-.8.85-1.2.85Zm0-2.12a1.75,1.75,0,0,1,.43-1.24,2.11,2.11,0,0,1,1.17-.73v1.69a1.35,1.35,0,0,0-.44.09l-.76.19Zm-1.6-69.71a2.41,2.41,0,0,0,.16.76,10.31,10.31,0,0,0,.44,1.08,3.74,3.74,0,0,1-.6,1.69l.6,1.27q.45,16.62,1.06,31.75t1.54,28.79a10,10,0,0,1-1.44,1.78,2.06,2.06,0,0,1-1.16.62q-.6-25.73-.9-42.41t-.3-24.2V42.85Zm2.8-1.41c.69.07,1.23.14,1.63.19s.66.1.76.1c.9,0,1.6.58,2.07,1.78a14.25,14.25,0,0,1,.73,5.27c-.1.21-.2.38-.26.52a.64.64,0,0,0-.14.33l.4,1.41-.4,2.54a.37.37,0,0,1,.27.09.2.2,0,0,1,.13.19.33.33,0,0,0-.26.09.22.22,0,0,0-.14.19v1l.4.56h-.4a2.26,2.26,0,0,0,.14.88,1.94,1.94,0,0,0,.26.54l-.4,4.37q-.15,17.88-.26,30.81t-.14,21a3.94,3.94,0,0,0,.14.91c.06.4.16.85.26,1.34a.31.31,0,0,0-.26.22,1.09,1.09,0,0,0-.14.63q1.2,14.19,2.4,16.51l3.8-.28h2a68.38,68.38,0,0,1,7.63.3c1.7.19,2.57.48,2.57.83a2.37,2.37,0,0,0,.76-.1,3.71,3.71,0,0,0,.64-.18c1.1.21,2.13.35,3.13.44s2,.12,2.86.12h.4a1.76,1.76,0,0,1-.13.75,4.34,4.34,0,0,1-.27.66c0,.28-.33.5-1,.64a15.58,15.58,0,0,1-3,.21h-.4l-2.2-.28-.77.18a1.38,1.38,0,0,1-.43.1,1.57,1.57,0,0,1-.47-.1l-.73-.18-.8.28-.8-.19a2.84,2.84,0,0,0-.8-.09h-2c-1,0-2.67-.05-5-.12s-5.33-.24-9-.45c-.2,0-.4-.3-.6-.94a20.1,20.1,0,0,1-.6-2.73q.6-3.92.9-6.49a36.81,36.81,0,0,0,.3-4v-5.5q-1.35-22.54-2.36-40.74T576.28,43a1,1,0,0,1,.3-.66A7.53,7.53,0,0,1,577.48,41.44Zm-5.4,1.27,3.2,94a1.79,1.79,0,0,1,1.23.64,10.59,10.59,0,0,1,1.37,1.9c7.19.28,13.19.5,18,.64s8.33.21,10.62.21q2.7,0,4.2-7.2l-.4-.56a8.67,8.67,0,0,0-1.2.09l-1.8.19c-4.29-.57-8.09-1-11.36-1.27s-6-.42-8.23-.42l-.8.28c0-.07-.06-.14-.16-.19a1.49,1.49,0,0,0-.64-.09c-.6-.36-1.1-2.9-1.46-7.58s-.64-11.54-.74-20.5l.4-1.84-.4-1.41q.6-18.84.6-49.11c0-1.41-.06-2.79-.16-4.11s-.24-2.59-.44-3.79c0-.84-.56-1.53-1.66-2a15.34,15.34,0,0,0-5.13-.82Z"/><path id="L-4" data-name="L" class="cls-3" d="M610.84,132.21q-1.5,7.2-4.2,7.2c-2.3,0-5.83-.07-10.63-.21s-10.76-.36-18-.64l-.34-.55-.9,0a10.72,10.72,0,0,0-1.37-1.91,1.81,1.81,0,0,0-1.23-.63l-3.2-94,5-3a15.25,15.25,0,0,1,5.13.83,4,4,0,0,1,.72.39,5.19,5.19,0,0,1,.52.19c1.1.47,1.67,1.16,1.67,2,.2,1.2.33,2.47.43,3.79s.17,2.7.17,4.11q0,30.27-.6,49.11l.4,1.41-.4,1.84c.1,9,.33,15.8.73,20.5.31,3.89.7,6.3,1.18,7.21l.64-.22c2.2,0,4.93.14,8.23.42s7.07.71,11.37,1.27l1.79-.18a7.54,7.54,0,0,1,1.2-.1l.4.57s0,.05,0,.07a7.58,7.58,0,0,1,.87,0Z"/></g><g id="L-5" data-name="L"><path d="M654.36,139c0-.14.13-.28.43-.42a7.29,7.29,0,0,1,1.17-.43v1.13h-1.6Zm-6.2-.56a1.38,1.38,0,0,0,.43-.1l.77-.19h.8c0,.15-.13.29-.43.43a6.53,6.53,0,0,1-1.17.42h-.4Zm-2.4.28a.4.4,0,0,1,.17-.33,1.87,1.87,0,0,1,.63-.24h.8c0,.15-.13.29-.43.43a6.53,6.53,0,0,1-1.17.42Zm-2.8,0c0-.14.17-.28.47-.42a7.48,7.48,0,0,1,1.53-.43v.28c0,.15-.13.29-.43.43a6.53,6.53,0,0,1-1.17.42H643Zm-3,0c0-.42.8-.71,2.4-.85h.2v.57l-1.8.28Zm-2.79,0c.4-.57.79-.85,1.2-.85h1.19c0,.14-.13.28-.43.43a6.25,6.25,0,0,1-1.17.42Zm-8.2-1.13a1.3,1.3,0,0,0,.43-.09l.77-.19q1.35,0,2.7.12a21.08,21.08,0,0,1,2.7.44l.73-.19a1.49,1.49,0,0,1,.47-.09h.4a1.25,1.25,0,0,1-.64.56,9,9,0,0,1-1.36.57l-2.2-.28h-4Zm-1.6-15.66v2.54a11.71,11.71,0,0,1-.13,1.67c-.07.7-.17,1.5-.27,2.42h-.4l-.4-2.82v-2.4l.4-1.41Zm-1.2-2a4,4,0,0,1,.6-.52,1.26,1.26,0,0,1,.6-.18v.42c0,1-.4,1.55-1.2,1.69Zm0-1.83c.4-.57.8-.85,1.2-.85v.85q-.6.84-1.2.84Zm0-1.7q.6-.84,1.2-.84a2.43,2.43,0,0,1-.43,1.08,1.05,1.05,0,0,1-.77.33Zm-.4-1.13a1.53,1.53,0,0,1,.43-1.17,2.34,2.34,0,0,1,1.17-.66v1q-.6.84-1.2.84Zm0-2.11a1.78,1.78,0,0,1,.43-1.25,2.17,2.17,0,0,1,1.17-.73v1.7a1.3,1.3,0,0,0-.43.09l-.77.19Zm-1.6-69.71a2.4,2.4,0,0,0,.17.75,8.57,8.57,0,0,0,.43,1.08,3.77,3.77,0,0,1-.6,1.7l.6,1.27q.45,16.6,1.07,31.75t1.53,28.78a10.21,10.21,0,0,1-1.43,1.79,2.08,2.08,0,0,1-1.17.61q-.6-25.71-.9-42.4t-.3-24.2V43.44ZM627,42c.7.07,1.23.14,1.63.19s.67.09.77.09c.9,0,1.6.59,2.06,1.79a14.18,14.18,0,0,1,.74,5.27c-.1.21-.2.37-.27.51a.64.64,0,0,0-.13.33l.4,1.41-.4,2.54a.34.34,0,0,1,.26.1.22.22,0,0,1,.14.19.37.37,0,0,0-.27.09.2.2,0,0,0-.13.19v1l.4.56h-.4a2.22,2.22,0,0,0,.13.87,2.09,2.09,0,0,0,.27.54l-.4,4.38q-.15,17.88-.27,30.81c-.1,8.63-.13,15.61-.13,21a3.82,3.82,0,0,0,.13.92c.07.4.17.85.27,1.34a.32.32,0,0,0-.27.21,1.13,1.13,0,0,0-.13.64q1.2,14.17,2.4,16.51l3.8-.28h2a68.58,68.58,0,0,1,7.64.3c1.69.19,2.56.47,2.56.82a2.47,2.47,0,0,0,.77-.09,5.19,5.19,0,0,0,.63-.19c1.1.21,2.13.35,3.13.45s2,.12,2.87.12h.4a1.76,1.76,0,0,1-.14.75,3.77,3.77,0,0,1-.26.66c0,.28-.34.49-1,.63a15.7,15.7,0,0,1-3,.21h-.4l-2.2-.28-.77.19a1.3,1.3,0,0,1-.43.09,1.49,1.49,0,0,1-.47-.09l-.73-.19-.8.28c-.3-.07-.56-.14-.8-.18a2.78,2.78,0,0,0-.8-.1h-2c-1,0-2.66,0-5-.12s-5.33-.23-9-.44c-.2,0-.4-.31-.6-.94a20.1,20.1,0,0,1-.6-2.73c.4-2.61.7-4.78.9-6.49a37,37,0,0,0,.3-3.95v-5.51q-1.35-22.53-2.37-40.73t-1.63-32.08a1.05,1.05,0,0,1,.3-.66A6.88,6.88,0,0,1,627,42Zm-5.4,1.27,3.2,94a1.81,1.81,0,0,1,1.23.63,11.11,11.11,0,0,1,1.37,1.91q10.8.42,18,.63c4.8.14,8.33.21,10.63.21,1.8,0,3.2-2.39,4.2-7.19l-.4-.57a9,9,0,0,0-1.2.1c-.5,0-1.1.11-1.8.19-4.3-.57-8.1-1-11.36-1.27s-6-.43-8.23-.43l-.8.28c0-.07-.07-.14-.17-.18a1.39,1.39,0,0,0-.63-.1c-.6-.35-1.1-2.89-1.47-7.57s-.63-11.55-.73-20.51l.4-1.83-.4-1.41q.6-18.84.6-49.11c0-1.41-.07-2.8-.17-4.12s-.23-2.58-.43-3.78c0-.85-.57-1.53-1.67-2a15.25,15.25,0,0,0-5.13-.82Z"/><path d="M653.11,138.38c0-.14.14-.28.44-.42a6.11,6.11,0,0,1,1.16-.42v1.13h-1.6Zm-6.19-.56a1.3,1.3,0,0,0,.43-.09l.77-.19h.79c0,.14-.13.28-.43.42a6.11,6.11,0,0,1-1.16.42h-.4Zm-2.4.28a.39.39,0,0,1,.16-.33,2.08,2.08,0,0,1,.64-.23h.8c0,.14-.14.28-.44.42a6.11,6.11,0,0,1-1.16.42Zm-2.8,0c0-.14.16-.28.46-.42a8.75,8.75,0,0,1,1.54-.42v.28c0,.14-.14.28-.44.42a6.11,6.11,0,0,1-1.16.42h-.4Zm-3,0q0-.63,2.4-.84h.2v.56l-1.8.28Zm-2.8,0q.6-.84,1.2-.84h1.2c0,.14-.13.28-.43.42a6.53,6.53,0,0,1-1.17.42Zm-8.2-1.13a1.35,1.35,0,0,0,.44-.09l.76-.19c.9,0,1.8.05,2.7.12a19.5,19.5,0,0,1,2.7.45c.3-.08.53-.15.73-.19a1.57,1.57,0,0,1,.47-.1h.4a1.32,1.32,0,0,1-.63.57,10.63,10.63,0,0,1-1.37.56l-2.2-.28h-4Zm-1.6-15.66v2.54a11.61,11.61,0,0,1-.13,1.67c-.07.71-.17,1.51-.27,2.42h-.4l-.4-2.82v-2.4l.4-1.41Zm-1.2-2a3.88,3.88,0,0,1,.6-.51,1.17,1.17,0,0,1,.6-.19v.42c0,1-.4,1.55-1.2,1.7Zm0-1.83c.4-.56.8-.85,1.2-.85v.85c-.4.56-.8.85-1.2.85Zm0-1.69c.4-.57.8-.85,1.2-.85a2.38,2.38,0,0,1-.43,1.08,1.05,1.05,0,0,1-.77.33Zm-.4-1.13a1.54,1.54,0,0,1,.44-1.18,2.42,2.42,0,0,1,1.16-.66v1c-.4.57-.8.85-1.2.85Zm0-2.12a1.76,1.76,0,0,1,.44-1.24,2,2,0,0,1,1.16-.73v1.69a1.3,1.3,0,0,0-.43.09l-.77.19Zm-1.6-69.71a2.45,2.45,0,0,0,.17.76,10,10,0,0,0,.43,1.08,3.74,3.74,0,0,1-.6,1.69l.6,1.27q.45,16.62,1.07,31.75t1.53,28.79a10.47,10.47,0,0,1-1.43,1.78,2.11,2.11,0,0,1-1.17.62q-.6-25.73-.9-42.41t-.3-24.2V42.85Zm2.8-1.41c.7.07,1.24.14,1.64.19s.66.1.76.1c.9,0,1.6.58,2.07,1.78a14.25,14.25,0,0,1,.73,5.27c-.1.21-.2.38-.26.52a.64.64,0,0,0-.14.33l.4,1.41-.4,2.54a.37.37,0,0,1,.27.09.2.2,0,0,1,.13.19.33.33,0,0,0-.26.09.22.22,0,0,0-.14.19v1l.4.56h-.4a2.26,2.26,0,0,0,.14.88,1.94,1.94,0,0,0,.26.54l-.4,4.37q-.15,17.88-.26,30.81t-.14,21a3.94,3.94,0,0,0,.14.91c.06.4.16.85.26,1.34a.31.31,0,0,0-.26.22,1.09,1.09,0,0,0-.14.63q1.2,14.19,2.4,16.51l3.8-.28h2a68.38,68.38,0,0,1,7.63.3c1.7.19,2.57.48,2.57.83a2.41,2.41,0,0,0,.76-.1,3.86,3.86,0,0,0,.63-.18c1.1.21,2.14.35,3.14.44s2,.12,2.86.12h.4a1.76,1.76,0,0,1-.13.75,4.34,4.34,0,0,1-.27.66c0,.28-.33.5-1,.64a15.7,15.7,0,0,1-3,.21h-.4l-2.2-.28-.76.18a1.38,1.38,0,0,1-.43.1,1.57,1.57,0,0,1-.47-.1l-.73-.18-.8.28-.8-.19a2.84,2.84,0,0,0-.8-.09h-2c-1,0-2.67-.05-5-.12s-5.33-.24-9-.45c-.2,0-.4-.3-.6-.94a20.1,20.1,0,0,1-.6-2.73q.6-3.92.9-6.49a36.81,36.81,0,0,0,.3-4v-5.5q-1.35-22.54-2.36-40.74T624.52,43a1,1,0,0,1,.3-.66A7.53,7.53,0,0,1,625.72,41.44Zm-5.39,1.27,3.19,94a1.83,1.83,0,0,1,1.24.64,10.62,10.62,0,0,1,1.36,1.9c7.2.28,13.2.5,18,.64s8.33.21,10.63.21q2.7,0,4.2-7.2l-.4-.56a8.67,8.67,0,0,0-1.2.09l-1.8.19q-6.45-.85-11.36-1.27c-3.3-.28-6-.42-8.23-.42l-.8.28c0-.07-.07-.14-.17-.19a1.41,1.41,0,0,0-.63-.09c-.6-.36-1.1-2.9-1.47-7.58s-.63-11.54-.73-20.5l.4-1.84-.4-1.41q.6-18.84.6-49.11c0-1.41-.07-2.79-.17-4.11s-.23-2.59-.43-3.79c0-.84-.57-1.53-1.67-2a15.25,15.25,0,0,0-5.13-.82Z"/><path class="cls-3" d="M659.09,132.21q-1.5,7.2-4.2,7.2c-2.3,0-5.83-.07-10.63-.21s-10.76-.36-18-.64L626,138l-.91,0a10.76,10.76,0,0,0-1.36-1.91,1.81,1.81,0,0,0-1.23-.63l-3.2-94,5-3a15.32,15.32,0,0,1,5.14.83,4.39,4.39,0,0,1,.72.39,5.19,5.19,0,0,1,.52.19c1.1.47,1.67,1.16,1.67,2,.2,1.2.33,2.47.43,3.79s.17,2.7.17,4.11q0,30.27-.6,49.11l.4,1.41-.4,1.84c.1,9,.33,15.8.73,20.5.31,3.89.7,6.3,1.18,7.21l.64-.22c2.2,0,4.93.14,8.23.42s7.07.71,11.36,1.27c.7-.07,1.3-.14,1.8-.18a7.54,7.54,0,0,1,1.2-.1l.4.57s0,.05,0,.07a7.58,7.58,0,0,1,.87,0Z"/></g><g id="E-2" data-name="E"><path d="M694.61,138.69h1.8V139L686,141c-.1,0-.26-.12-.46-.33a9.51,9.51,0,0,1-.74-1.08Zm7.4-.57v.29h-2v-.29Zm2.6-.56h2v.28c-.1,0-.5,0-1.17.12s-1.53.23-2.63.45v-.57Zm2-4.94a5.45,5.45,0,0,1,1.53.33c.3.14.47.31.47.52v3.38a5.27,5.27,0,0,1-1.54-.33c-.3-.14-.46-.3-.46-.51Zm-20-18.91a2.29,2.29,0,0,1,.9.31c.2.12.3.26.3.4V115H687a2.67,2.67,0,0,0-.6-1.27Zm-1.8-.56a25.29,25.29,0,0,1,2.24,2.66,3.42,3.42,0,0,1,.76,1.71c0,1.34,0,2.94.14,4.78s.16,3.9.26,6.23c-.1,1.06-.2,2-.26,2.84a17.76,17.76,0,0,0-.14,2.1,2.24,2.24,0,0,1-1.5-.66,7.18,7.18,0,0,1-1.5-2c.1-1.06.2-2,.27-2.87a20.37,20.37,0,0,0,.13-2.35V117.8a14.93,14.93,0,0,0-.13-1.9C685,115.12,684.91,114.21,684.81,113.15Zm.4-3.11a3,3,0,0,0,.47.94c.3.47.73,1.11,1.33,1.89v.28h-.6a1.41,1.41,0,0,1-.73-.33,4.76,4.76,0,0,1-.87-1.08V110Zm0-6.35a11.06,11.06,0,0,1,1.24,3.08,45.77,45.77,0,0,1,1,4.68h-.8c-.7-1.2-1.23-2.11-1.63-2.75a6.15,6.15,0,0,1-.57-1.06l.4-1.69v-1.41l-.4-.56Zm-.8-2.68a5.47,5.47,0,0,1,1.54,1.3,2.36,2.36,0,0,1,.46,1.38h-.8c-.4-.7-.7-1.27-.9-1.67a3.23,3.23,0,0,1-.3-.73Zm-.4-4.8a10.49,10.49,0,0,0,2.4,1.7,1.29,1.29,0,0,1-.13.61A2,2,0,0,1,686,99l.6.84v2a6.47,6.47,0,0,1-2-2,4.16,4.16,0,0,1-.64-2.23Zm0-4.09q2.4,3.6,2.4,4.66v.28A6.93,6.93,0,0,1,684,94.85a5.18,5.18,0,0,1-.77-2.73ZM684,90a1.9,1.9,0,0,1,1.17.58,1.8,1.8,0,0,1,.43,1.25V93c-.3,0-.63-.26-1-.75a7.69,7.69,0,0,1-1-2.21Zm0-4.24c.2,0,.44.33.74,1a20.84,20.84,0,0,1,.86,3h-.4c-.4,0-.73-.33-1-1a10.29,10.29,0,0,1-.57-3Zm12.4,0a.4.4,0,0,1,.17-.33,1.9,1.9,0,0,1,.63-.23v.56Zm-5.8-.56,4.6.28v.28c-.7,0-1.6,0-2.7.1s-2.4.11-3.9.19a.82.82,0,0,1-.46-.12,1.09,1.09,0,0,1-.34-.45v-.28Zm6.6-3.53a8.78,8.78,0,0,0,1.33.82,2.68,2.68,0,0,0,1.07.31v1.83h-.4a7.69,7.69,0,0,1-2.4-1.27V81.68Zm-12.8-5.5v3l.8.85v.56h-.4l-2-.28V76.18Zm-2-2.82a1.26,1.26,0,0,1,.77.42,12.85,12.85,0,0,1,1.23,1.27v.85H684a3,3,0,0,1-1.53-1,2.63,2.63,0,0,1-.47-1.57Zm-.4-4.1a1.86,1.86,0,0,1,1.67,1.08,8.19,8.19,0,0,1,.73,3.3h-.8a7.17,7.17,0,0,1-1.3-1.79,6.57,6.57,0,0,1-.69-2.3.35.35,0,0,0,.26-.1A.2.2,0,0,0,682,69.26Zm0-3.52a3.15,3.15,0,0,1,1.07.54,9.7,9.7,0,0,1,1.33,1.29v2H684a8,8,0,0,1-1.53-.62c-.3-.21-.47-.37-.47-.51Zm0-5.51a8,8,0,0,1,1.8.31c.4.12.6.26.6.4v1.41a1.14,1.14,0,0,1-.43-.1l-.77-.18h-.4l1.6,1.41V66a3.3,3.3,0,0,1-2.4-1.7Zm0-2.82c1.6,0,2.4.56,2.4,1.69V60c-1.4,0-2.2-.28-2.4-.85Zm0-2.4a3.52,3.52,0,0,1,1.37.24,2.41,2.41,0,0,1,1,.75v1.13c-1.4,0-2.2-.28-2.4-.85Zm.4-6.07a2.29,2.29,0,0,1,.9.31c.2.12.3.26.3.4v2L684,55a9.72,9.72,0,0,1-1.53-.73c-.3-.19-.47-.33-.47-.4V48.94Zm5-.84c2.2,0,4.3-.05,6.33-.12s4-.24,5.87-.45l.8.85h-1.6a18,18,0,0,0-1.8.09l-2.4.19-.8-.28a7.48,7.48,0,0,1-1.9.45c-.77.07-1.6.11-2.5.11h-4.2v-.56l1.8-.28Zm13-3.67q1.2.42,1.2.84V47c-.8-.28-1.2-.57-1.2-.85ZM673,44.71c4.5-.49,8.83-.89,13-1.15s8.16-.4,12-.4h.4a10.15,10.15,0,0,1-.43,2.21,1.75,1.75,0,0,1-.77,1c-5.2.22-9.2.36-12,.45s-4.39.12-4.79.12l-.8.28c.1.92.2,1.69.26,2.35a12,12,0,0,1,.14,1.74V55c0,2,0,4.3-.14,7s-.16,5.76-.26,9.22c.3,2.75.6,5,.86,6.7s.54,3,.74,3.74a26.07,26.07,0,0,1,3.33.31c.7.14,1.06.33,1.06.54l8.2-.85h.4a.66.66,0,0,1,.47.12.55.55,0,0,1,.13.44v1.7c-1.3,0-3,0-5.06.09l-7.34.19-1.19.42c.3.92.5,1.65.63,2.21A8.82,8.82,0,0,1,682,88a1.11,1.11,0,0,1-.29.82,1.15,1.15,0,0,1-.9.31q1.48,9.53,2.39,32.17v.57c0,1,0,2.4-.13,4s-.17,3.49-.27,5.6q2.7,3.18,3.6,3.39H693c1.9-.35,3.77-.68,5.6-1s3.7-.51,5.6-.72l.4,1.41v.28a1,1,0,0,1-.14.56c-.06.17-.16.36-.26.57a67.29,67.29,0,0,1-7.23,1.06c-3.37.35-7.67.7-13,1.05l-3.59-.28a.22.22,0,0,1-.14.19.33.33,0,0,1-.26.09v-1.27c-.9-4.72-1.57-8.37-2-10.91s-.63-4-.63-4.33q-.45-12.06-1-19.59c-.37-5-.7-8.49-1-10.46V88.31c0-.49-.2-3.5-.6-9s-1-13.45-1.8-23.9Zm27-3.25q-9.3,0-27,1.7h-.4a9.07,9.07,0,0,0-1.17.54c-.3.16-.43.3-.43.45V54.73q3.6,50.16,3.6,57.57a84.42,84.42,0,0,0,.86,10.35c.6,4.26,1.44,9.34,2.54,15.19a1.63,1.63,0,0,0,.73,1.46,3.46,3.46,0,0,0,2.07.52,7.13,7.13,0,0,0,2.36,1.9,6.44,6.44,0,0,0,2.83.64c2.9-.71,5.1-1.2,6.57-1.53a10.19,10.19,0,0,0,2.23-.59q8-.63,11.86-1.13c2.63-.33,3.93-.59,3.93-.8V136l.4-2.79a10.37,10.37,0,0,0-1.53-.85c-.7-.35-1.66-.78-2.86-1.27h-.4c-.6.21-1.2.37-1.77.52a9.11,9.11,0,0,1-1.63.18c-.1,0-1,.15-2.84.43s-4.36.7-7.76,1.27h-2.4v-3.25l.4-1.41a.33.33,0,0,1-.26-.09.22.22,0,0,1-.14-.19l.4-.57a1.63,1.63,0,0,1-.26-.51,1.3,1.3,0,0,1-.14-.61V117l-2.4-23.71.4-.56a2.46,2.46,0,0,0-.16-.76A4.91,4.91,0,0,0,687,91a3.88,3.88,0,0,1,.6-.51,1.17,1.17,0,0,1,.6-.19l-1.2-1.7v-.28a24.42,24.42,0,0,0,2.74-.51,7.79,7.79,0,0,0,1.66-.62h4.2c1.3-.21,2.37-.35,3.2-.44a16.47,16.47,0,0,1,2-.12,8.53,8.53,0,0,1,.76-2,3.62,3.62,0,0,1,1.24-1.25v-.28c-1.9-.92-3.3-1.62-4.23-2.14s-1.37-.82-1.37-1c-.4,0-1.4.07-3,.21s-3.87.35-6.77.63H687V79.14l-1-1V71.8c0-1.83,0-3.71.14-5.62s.16-3.9.26-6c-.1-1.9-.26-3.67-.46-5.27a36.75,36.75,0,0,0-.74-4.18,6.26,6.26,0,0,0,1-.12,5.3,5.3,0,0,0,1.16-.45c4.9,0,8.57-.11,11-.33s3.63-.51,3.63-.94a1.47,1.47,0,0,0,1.36-1,8.18,8.18,0,0,0,.44-3Z"/><path d="M693.36,138.1h1.8v.28l-10.39,2c-.1,0-.27-.12-.47-.33a8.82,8.82,0,0,1-.73-1.08Zm7.4-.56v.28h-2v-.28Zm2.6-.57h2v.29l-1.17.11c-.63.1-1.53.24-2.63.45v-.56Zm2-4.94a5.84,5.84,0,0,1,1.53.33c.3.14.47.31.47.52v3.39a5.45,5.45,0,0,1-1.53-.33c-.3-.14-.47-.31-.47-.52Zm-20-18.9a2.3,2.3,0,0,1,.9.3c.2.12.3.26.3.4v.57h-.8a2.59,2.59,0,0,0-.6-1.27Zm-1.8-.57a25,25,0,0,1,2.23,2.66,3.49,3.49,0,0,1,.77,1.72c0,1.34,0,2.94.13,4.77s.17,3.9.27,6.23c-.1,1.06-.2,2-.27,2.85a17.33,17.33,0,0,0-.13,2.09,2.24,2.24,0,0,1-1.5-.66,7,7,0,0,1-1.5-2c.1-1.06.2-2,.26-2.87A20.54,20.54,0,0,0,684,125v-7.76a15.25,15.25,0,0,0-.14-1.91C683.77,114.54,683.67,113.62,683.57,112.56Zm.4-3.1a3,3,0,0,0,.46.94c.3.47.74,1.1,1.34,1.88v.28h-.6a1.44,1.44,0,0,1-.74-.33,4.81,4.81,0,0,1-.86-1.08v-1.69Zm0-6.35a10.66,10.66,0,0,1,1.23,3.08,42,42,0,0,1,1,4.68h-.8c-.7-1.2-1.24-2.12-1.64-2.75a7.59,7.59,0,0,1-.56-1.06l.4-1.69V104l-.4-.56Zm-.8-2.68a5.11,5.11,0,0,1,1.53,1.29,2.37,2.37,0,0,1,.47,1.39h-.8c-.4-.71-.7-1.27-.9-1.67a3.67,3.67,0,0,1-.3-.73Zm-.4-4.8a10.24,10.24,0,0,0,2.4,1.69,1.27,1.27,0,0,1-.14.61,1.58,1.58,0,0,1-.26.52l.6.85v2a6.41,6.41,0,0,1-2-2,4.19,4.19,0,0,1-.63-2.23Zm0-4.09q2.4,3.6,2.4,4.65v.29a7,7,0,0,1-2.43-2.22,5.18,5.18,0,0,1-.77-2.72Zm0-2.12a1.8,1.8,0,0,1,1.16.59,1.78,1.78,0,0,1,.44,1.24v1.13c-.3,0-.64-.26-1-.75a7.19,7.19,0,0,1-1-2.21Zm0-4.23c.2,0,.43.33.73,1a19.58,19.58,0,0,1,.87,3H684c-.4,0-.73-.33-1-1a10.21,10.21,0,0,1-.57-3Zm12.39,0a.4.4,0,0,1,.17-.33,1.68,1.68,0,0,1,.63-.24v.57Zm-5.79-.57,4.59.28v.29c-.7,0-1.59,0-2.69.09l-3.9.19a.85.85,0,0,1-.47-.12,1,1,0,0,1-.33-.45v-.28ZM696,81.09a9,9,0,0,0,1.34.83,2.6,2.6,0,0,0,1.06.3v1.84H698a8,8,0,0,1-2.4-1.27v-1.7Zm-12.79-5.5v3l.8.85V80h-.4l-2-.29V75.59Zm-2-2.82a1.29,1.29,0,0,1,.77.42,14.09,14.09,0,0,1,1.23,1.27v.85h-.4a2.9,2.9,0,0,1-1.53-1,2.63,2.63,0,0,1-.47-1.57Zm-.4-4.09a1.84,1.84,0,0,1,1.67,1.08,8.09,8.09,0,0,1,.73,3.29h-.8a7,7,0,0,1-1.3-1.79,6.31,6.31,0,0,1-.7-2.3.34.34,0,0,0,.27-.1A.18.18,0,0,0,680.77,68.68Zm0-3.53a3.34,3.34,0,0,1,1.07.54A10.34,10.34,0,0,1,683.17,67v2h-.4a7.46,7.46,0,0,1-1.53-.61c-.3-.21-.47-.38-.47-.52Zm0-5.5a8.06,8.06,0,0,1,1.8.3c.4.12.6.26.6.4v1.41a1.3,1.3,0,0,1-.43-.09l-.77-.19h-.4l1.6,1.41v2.54a3.27,3.27,0,0,1-2.4-1.69Zm0-2.83c1.6,0,2.4.57,2.4,1.7v.84q-2.1,0-2.4-.84Zm0-2.4a3.72,3.72,0,0,1,1.37.24,2.47,2.47,0,0,1,1,.75v1.13c-1.4,0-2.2-.28-2.4-.85Zm.4-6.06a2.3,2.3,0,0,1,.9.3c.2.12.3.26.3.4v2l.4,3.38a9.87,9.87,0,0,1-1.53-.72c-.3-.19-.47-.33-.47-.4V48.36Zm5-.85c2.2,0,4.3,0,6.33-.12s4-.23,5.86-.44l.8.84h-1.6c-.5,0-1.1,0-1.8.1s-1.5.11-2.4.19l-.8-.29a7,7,0,0,1-1.89.45c-.77.07-1.6.12-2.5.12H684v-.57l1.8-.28Zm13-3.67c.8.28,1.2.57,1.2.85v1.69c-.8-.28-1.2-.56-1.2-.85Zm-27.39.28c4.5-.49,8.83-.89,13-1.15s8.16-.4,12-.4h.4a10,10,0,0,1-.43,2.21,1.78,1.78,0,0,1-.77,1q-7.79.32-12,.44c-2.8.07-4.4.12-4.8.12l-.8.28c.1.92.2,1.7.27,2.36a11.7,11.7,0,0,1,.13,1.74v3.66c0,2,0,4.31-.13,7s-.17,5.77-.27,9.22c.3,2.75.6,5,.87,6.7s.53,3,.73,3.74a25.69,25.69,0,0,1,3.33.31c.7.14,1.07.33,1.07.54l8.19-.85h.4a.71.71,0,0,1,.47.12.59.59,0,0,1,.13.45v1.69c-1.29,0-3,0-5.06.1s-4.53.11-7.33.18l-1.2.43c.3.91.5,1.64.63,2.21a9.09,9.09,0,0,1,.17,1.17,1.1,1.1,0,0,1-.3.83,1.18,1.18,0,0,1-.9.3q1.5,9.53,2.4,32.18v.56c0,1.06,0,2.4-.13,4s-.17,3.48-.27,5.6q2.7,3.17,3.6,3.38h6.6c1.89-.35,3.76-.68,5.59-1s3.7-.52,5.6-.73l.4,1.41v.28a1.09,1.09,0,0,1-.13.57c-.07.16-.17.35-.27.56a64.79,64.79,0,0,1-7.23,1.06c-3.36.35-7.66.7-13,1.06l-3.6-.28a.18.18,0,0,1-.13.18.38.38,0,0,1-.27.1v-1.27c-.9-4.73-1.57-8.37-2-10.91s-.63-4-.63-4.33q-.45-12.06-1-19.59c-.37-5-.7-8.49-1-10.47V87.73c0-.5-.2-3.51-.6-9s-1-13.45-1.8-23.89Zm27-3.24q-9.3,0-27,1.69h-.4a9.57,9.57,0,0,0-1.16.54c-.3.17-.44.31-.44.45V54.14q3.6,50.18,3.6,57.58a82.66,82.66,0,0,0,.87,10.34c.6,4.26,1.43,9.34,2.53,15.2a1.62,1.62,0,0,0,.73,1.45,3.39,3.39,0,0,0,2.07.52,7.2,7.2,0,0,0,2.37,1.91,6.57,6.57,0,0,0,2.83.63c2.9-.7,5.1-1.2,6.56-1.53a9.51,9.51,0,0,0,2.23-.59c5.3-.42,9.27-.8,11.87-1.12s3.93-.59,3.93-.8V135.4l.4-2.8a12.67,12.67,0,0,0-1.53-.85c-.7-.35-1.67-.77-2.87-1.27H705c-.6.21-1.2.38-1.77.52a8.34,8.34,0,0,1-1.63.19c-.1,0-1,.14-2.83.42L691,132.88h-2.4v-3.24l.4-1.42a.37.37,0,0,1-.27-.09.2.2,0,0,1-.13-.19l.4-.56a2,2,0,0,1-.27-.52,1.29,1.29,0,0,1-.13-.61v-9.88l-2.4-23.7.4-.57a2.4,2.4,0,0,0-.17-.75,4.15,4.15,0,0,0-.63-.94,4,4,0,0,1,.6-.52,1.17,1.17,0,0,1,.6-.19L685.77,88v-.28a21.58,21.58,0,0,0,2.73-.52,8.56,8.56,0,0,0,1.67-.61h4.19c1.3-.21,2.37-.36,3.2-.45a19,19,0,0,1,2-.12,8.88,8.88,0,0,1,.77-2,3.4,3.4,0,0,1,1.23-1.24v-.28c-1.9-.92-3.3-1.63-4.23-2.14s-1.37-.83-1.37-1c-.4,0-1.4.07-3,.21s-3.86.36-6.76.64h-.4v-1.7l-1-1V71.22c0-1.84,0-3.72.13-5.62s.17-3.91.27-5.95c-.1-1.91-.27-3.67-.47-5.27a36.71,36.71,0,0,0-.73-4.19,6.16,6.16,0,0,0,1-.12,5.13,5.13,0,0,0,1.17-.44c4.9,0,8.56-.12,11-.33s3.63-.52,3.63-.94a1.48,1.48,0,0,0,1.37-1,8.38,8.38,0,0,0,.43-3Z"/><path class="cls-3" d="M709.94,131.93l-.4,2.8v2.33c0,.21-1.3.47-3.94.8s-6.56.7-11.86,1.12a9.51,9.51,0,0,1-2.23.59c-1.47.33-3.67.83-6.57,1.53a6.57,6.57,0,0,1-2.83-.63q-.27-.14-.54-.3h0c-.23-.08-.45-.18-.68-.28a7,7,0,0,1-1.89-1.37,2.68,2.68,0,0,1-1.3-.47.9.9,0,0,1-.19-.15,2.49,2.49,0,0,1-1.06-.43,1.66,1.66,0,0,1-.73-1.46c-1.1-5.86-1.93-10.94-2.53-15.19a82.8,82.8,0,0,1-.87-10.35q0-7.41-3.6-57.57V42.3c0-.14.14-.28.44-.44a8.25,8.25,0,0,1,1.16-.54h.4q17.7-1.7,27-1.7l.64.6h.61l3.8,3.53a8.12,8.12,0,0,1-.44,3,1.46,1.46,0,0,1-1.36,1c0,.42-1.2.73-3.63.94s-6.07.33-11,.33a5.24,5.24,0,0,1-1.16.44,6.26,6.26,0,0,1-1,.12,36.56,36.56,0,0,1,.74,4.19c.2,1.6.36,3.36.46,5.27-.1,2-.2,4-.26,6s-.14,3.78-.14,5.62V76.9l1,1v1l5.92-.55c1.64-.14,2.63-.21,3-.21,0,.1.25.31.74.6l.51,0c0,.14.47.47,1.37,1s2.33,1.22,4.23,2.14v.28a3.4,3.4,0,0,0-1.23,1.24,8.88,8.88,0,0,0-.77,2,18.81,18.81,0,0,0-2,.12c-.83.1-1.9.24-3.2.45h-4.2a8.44,8.44,0,0,1-1.66.61,22.13,22.13,0,0,1-2.74.52v.28l1.2,1.69a1.17,1.17,0,0,0-.6.19,4,4,0,0,0-.6.52,4.62,4.62,0,0,1,.64.94,2.35,2.35,0,0,1,.16.75l-.4.57,2.4,23.7v9.88a1.3,1.3,0,0,0,.14.61,1.69,1.69,0,0,0,.26.52l-.4.56a.22.22,0,0,0,.14.19.34.34,0,0,0,.26.1l-.4,1.41v2.66h1.16q5.1-.85,7.76-1.27c1.8-.29,2.73-.43,2.83-.43a8.43,8.43,0,0,0,1.64-.19c.56-.14,1.16-.3,1.76-.51h.4c1.2.49,2.17.91,2.87,1.27.48.21.89.4,1.24.58A12.22,12.22,0,0,1,709.94,131.93Z"/></g></g></g></svg>